%FSLAX45Y45*%
G04 Gerber Fmt 4.5, Leading zero omitted, Abs format (unit mm)*
G04 Created by KiCad (PCBNEW (5.1.10)-1) date 2021-06-01 12:55:46*
%MOMM*%
%LPD*%
G01*
G04 APERTURE LIST*
%TA.AperFunction,Profile*%
%ADD10C,0.050000*%
%TD*%
%ADD11C,0.200000*%
%ADD12C,0.300000*%
G04 APERTURE END LIST*
D10*
X8760000Y-11600000D02*
X8780000Y-11600000D01*
X8760000Y-14680000D02*
X8760000Y-11600000D01*
X14120000Y-14680000D02*
X8760000Y-14680000D01*
X14120000Y-11600000D02*
X14120000Y-14680000D01*
X8780000Y-11600000D02*
X14120000Y-11600000D01*
D11*
X9221900Y-12081900D02*
X9298100Y-12158100D01*
X9298100Y-12081900D02*
X9221900Y-12158100D01*
X9821900Y-13741900D02*
X9898100Y-13818100D01*
X9898100Y-13741900D02*
X9821900Y-13818100D01*
X9821900Y-14121900D02*
X9898100Y-14198100D01*
X9898100Y-14121900D02*
X9821900Y-14198100D01*
X10141900Y-12221900D02*
X10218100Y-12298100D01*
X10218100Y-12221900D02*
X10141900Y-12298100D01*
X10301900Y-12921900D02*
X10378100Y-12998100D01*
X10378100Y-12921900D02*
X10301900Y-12998100D01*
X10841900Y-12241900D02*
X10918100Y-12318100D01*
X10918100Y-12241900D02*
X10841900Y-12318100D01*
X11121900Y-13761900D02*
X11198100Y-13838100D01*
X11198100Y-13761900D02*
X11121900Y-13838100D01*
X11121900Y-14141900D02*
X11198100Y-14218100D01*
X11198100Y-14141900D02*
X11121900Y-14218100D01*
X11301900Y-12581900D02*
X11378100Y-12658100D01*
X11378100Y-12581900D02*
X11301900Y-12658100D01*
X11841900Y-13821900D02*
X11918100Y-13898100D01*
X11918100Y-13821900D02*
X11841900Y-13898100D01*
X11841900Y-14461900D02*
X11918100Y-14538100D01*
X11918100Y-14461900D02*
X11841900Y-14538100D01*
X12401900Y-12461900D02*
X12478100Y-12538100D01*
X12478100Y-12461900D02*
X12401900Y-12538100D01*
X12461900Y-12121900D02*
X12538100Y-12198100D01*
X12538100Y-12121900D02*
X12461900Y-12198100D01*
X12661900Y-11841900D02*
X12738100Y-11918100D01*
X12738100Y-11841900D02*
X12661900Y-11918100D01*
X12701900Y-13601900D02*
X12778100Y-13678100D01*
X12778100Y-13601900D02*
X12701900Y-13678100D01*
X12761900Y-14441900D02*
X12838100Y-14518100D01*
X12838100Y-14441900D02*
X12761900Y-14518100D01*
X12901900Y-12621900D02*
X12978100Y-12698100D01*
X12978100Y-12621900D02*
X12901900Y-12698100D01*
X13281900Y-12161900D02*
X13358100Y-12238100D01*
X13358100Y-12161900D02*
X13281900Y-12238100D01*
X13341900Y-13681900D02*
X13418100Y-13758100D01*
X13418100Y-13681900D02*
X13341900Y-13758100D01*
X9710000Y-12120000D02*
G75*
G03*
X9710000Y-12120000I-40000J0D01*
G01*
X9960000Y-12120000D02*
G75*
G03*
X9960000Y-12120000I-40000J0D01*
G01*
X10020000Y-12580000D02*
G75*
G03*
X10020000Y-12580000I-40000J0D01*
G01*
X10020000Y-12834000D02*
G75*
G03*
X10020000Y-12834000I-40000J0D01*
G01*
X10020000Y-13088000D02*
G75*
G03*
X10020000Y-13088000I-40000J0D01*
G01*
X10020000Y-13342000D02*
G75*
G03*
X10020000Y-13342000I-40000J0D01*
G01*
X10460000Y-12120000D02*
G75*
G03*
X10460000Y-12120000I-40000J0D01*
G01*
X10710000Y-12120000D02*
G75*
G03*
X10710000Y-12120000I-40000J0D01*
G01*
X10782000Y-12580000D02*
G75*
G03*
X10782000Y-12580000I-40000J0D01*
G01*
X10782000Y-12834000D02*
G75*
G03*
X10782000Y-12834000I-40000J0D01*
G01*
X10782000Y-13088000D02*
G75*
G03*
X10782000Y-13088000I-40000J0D01*
G01*
X10782000Y-13342000D02*
G75*
G03*
X10782000Y-13342000I-40000J0D01*
G01*
X11098000Y-12480000D02*
G75*
G03*
X11098000Y-12480000I-40000J0D01*
G01*
X11860000Y-12480000D02*
G75*
G03*
X11860000Y-12480000I-40000J0D01*
G01*
X12220000Y-13698000D02*
G75*
G03*
X12220000Y-13698000I-40000J0D01*
G01*
X12220000Y-14460000D02*
G75*
G03*
X12220000Y-14460000I-40000J0D01*
G01*
X12580000Y-13698000D02*
G75*
G03*
X12580000Y-13698000I-40000J0D01*
G01*
X12580000Y-14460000D02*
G75*
G03*
X12580000Y-14460000I-40000J0D01*
G01*
X11060000Y-12795000D02*
X11060000Y-12885000D01*
X11015000Y-12840000D02*
X11105000Y-12840000D01*
X11060000Y-13295000D02*
X11060000Y-13385000D01*
X11015000Y-13340000D02*
X11105000Y-13340000D01*
X11560000Y-13045000D02*
X11560000Y-13135000D01*
X11515000Y-13090000D02*
X11605000Y-13090000D01*
X11886000Y-13295000D02*
X11886000Y-13385000D01*
X11841000Y-13340000D02*
X11931000Y-13340000D01*
X12140000Y-13295000D02*
X12140000Y-13385000D01*
X12095000Y-13340000D02*
X12185000Y-13340000D01*
X12460000Y-13295000D02*
X12460000Y-13385000D01*
X12415000Y-13340000D02*
X12505000Y-13340000D01*
X12714000Y-13295000D02*
X12714000Y-13385000D01*
X12669000Y-13340000D02*
X12759000Y-13340000D01*
X12195356Y-12521356D02*
X12195356Y-12450644D01*
X12124644Y-12450644D01*
X12124644Y-12521356D01*
X12195356Y-12521356D01*
X12195356Y-12775356D02*
X12195356Y-12704644D01*
X12124644Y-12704644D01*
X12124644Y-12775356D01*
X12195356Y-12775356D01*
X12735356Y-12167356D02*
X12735356Y-12096644D01*
X12664644Y-12096644D01*
X12664644Y-12167356D01*
X12735356Y-12167356D01*
X12735356Y-12421356D02*
X12735356Y-12350644D01*
X12664644Y-12350644D01*
X12664644Y-12421356D01*
X12735356Y-12421356D01*
X12735356Y-12675356D02*
X12735356Y-12604644D01*
X12664644Y-12604644D01*
X12664644Y-12675356D01*
X12735356Y-12675356D01*
X9260000Y-12785000D02*
X9325000Y-12720000D01*
X9260000Y-12655000D01*
X9195000Y-12720000D01*
X9260000Y-12785000D01*
X9260000Y-13285000D02*
X9325000Y-13220000D01*
X9260000Y-13155000D01*
X9195000Y-13220000D01*
X9260000Y-13285000D01*
X9540000Y-14225000D02*
X9605000Y-14160000D01*
X9540000Y-14095000D01*
X9475000Y-14160000D01*
X9540000Y-14225000D01*
X11790000Y-14225000D02*
X11855000Y-14160000D01*
X11790000Y-14095000D01*
X11725000Y-14160000D01*
X11790000Y-14225000D01*
X13600000Y-12785000D02*
X13665000Y-12720000D01*
X13600000Y-12655000D01*
X13535000Y-12720000D01*
X13600000Y-12785000D01*
X13600000Y-13285000D02*
X13665000Y-13220000D01*
X13600000Y-13155000D01*
X13535000Y-13220000D01*
X13600000Y-13285000D01*
X8870000Y-14290000D02*
X9170000Y-14590000D01*
X9170000Y-14290000D02*
X8870000Y-14590000D01*
X9170000Y-14440000D02*
G75*
G03*
X9170000Y-14440000I-150000J0D01*
G01*
X13710000Y-14290000D02*
X14010000Y-14590000D01*
X14010000Y-14290000D02*
X13710000Y-14590000D01*
X14010000Y-14440000D02*
G75*
G03*
X14010000Y-14440000I-150000J0D01*
G01*
X8870000Y-11690000D02*
X9170000Y-11990000D01*
X9170000Y-11690000D02*
X8870000Y-11990000D01*
X9020000Y-11690000D02*
X9020000Y-11990000D01*
X8870000Y-11840000D02*
X9170000Y-11840000D01*
X13710000Y-11690000D02*
X14010000Y-11990000D01*
X14010000Y-11690000D02*
X13710000Y-11990000D01*
X13860000Y-11690000D02*
X13860000Y-11990000D01*
X13710000Y-11840000D02*
X14010000Y-11840000D01*
D12*
X9043928Y-15148214D02*
X9043928Y-14848214D01*
X9115357Y-14848214D01*
X9158214Y-14862500D01*
X9186786Y-14891071D01*
X9201071Y-14919643D01*
X9215357Y-14976786D01*
X9215357Y-15019643D01*
X9201071Y-15076786D01*
X9186786Y-15105357D01*
X9158214Y-15133929D01*
X9115357Y-15148214D01*
X9043928Y-15148214D01*
X9343928Y-15148214D02*
X9343928Y-14948214D01*
X9343928Y-15005357D02*
X9358214Y-14976786D01*
X9372500Y-14962500D01*
X9401071Y-14948214D01*
X9429643Y-14948214D01*
X9529643Y-15148214D02*
X9529643Y-14948214D01*
X9529643Y-14848214D02*
X9515357Y-14862500D01*
X9529643Y-14876786D01*
X9543928Y-14862500D01*
X9529643Y-14848214D01*
X9529643Y-14876786D01*
X9715357Y-15148214D02*
X9686786Y-15133929D01*
X9672500Y-15105357D01*
X9672500Y-14848214D01*
X9872500Y-15148214D02*
X9843928Y-15133929D01*
X9829643Y-15105357D01*
X9829643Y-14848214D01*
X10215357Y-15148214D02*
X10215357Y-14848214D01*
X10315357Y-15062500D01*
X10415357Y-14848214D01*
X10415357Y-15148214D01*
X10686786Y-15148214D02*
X10686786Y-14991071D01*
X10672500Y-14962500D01*
X10643928Y-14948214D01*
X10586786Y-14948214D01*
X10558214Y-14962500D01*
X10686786Y-15133929D02*
X10658214Y-15148214D01*
X10586786Y-15148214D01*
X10558214Y-15133929D01*
X10543928Y-15105357D01*
X10543928Y-15076786D01*
X10558214Y-15048214D01*
X10586786Y-15033929D01*
X10658214Y-15033929D01*
X10686786Y-15019643D01*
X10829643Y-14948214D02*
X10829643Y-15248214D01*
X10829643Y-14962500D02*
X10858214Y-14948214D01*
X10915357Y-14948214D01*
X10943928Y-14962500D01*
X10958214Y-14976786D01*
X10972500Y-15005357D01*
X10972500Y-15091071D01*
X10958214Y-15119643D01*
X10943928Y-15133929D01*
X10915357Y-15148214D01*
X10858214Y-15148214D01*
X10829643Y-15133929D01*
X11101071Y-15119643D02*
X11115357Y-15133929D01*
X11101071Y-15148214D01*
X11086786Y-15133929D01*
X11101071Y-15119643D01*
X11101071Y-15148214D01*
X11101071Y-14962500D02*
X11115357Y-14976786D01*
X11101071Y-14991071D01*
X11086786Y-14976786D01*
X11101071Y-14962500D01*
X11101071Y-14991071D01*
X8681300Y-15604400D02*
X8757500Y-15680600D01*
X8757500Y-15604400D02*
X8681300Y-15680600D01*
X9101071Y-15478214D02*
X9129643Y-15478214D01*
X9158214Y-15492500D01*
X9172500Y-15506786D01*
X9186786Y-15535357D01*
X9201071Y-15592500D01*
X9201071Y-15663929D01*
X9186786Y-15721071D01*
X9172500Y-15749643D01*
X9158214Y-15763929D01*
X9129643Y-15778214D01*
X9101071Y-15778214D01*
X9072500Y-15763929D01*
X9058214Y-15749643D01*
X9043928Y-15721071D01*
X9029643Y-15663929D01*
X9029643Y-15592500D01*
X9043928Y-15535357D01*
X9058214Y-15506786D01*
X9072500Y-15492500D01*
X9101071Y-15478214D01*
X9329643Y-15749643D02*
X9343928Y-15763929D01*
X9329643Y-15778214D01*
X9315357Y-15763929D01*
X9329643Y-15749643D01*
X9329643Y-15778214D01*
X9443928Y-15478214D02*
X9643928Y-15478214D01*
X9515357Y-15778214D01*
X9886786Y-15478214D02*
X9829643Y-15478214D01*
X9801071Y-15492500D01*
X9786786Y-15506786D01*
X9758214Y-15549643D01*
X9743928Y-15606786D01*
X9743928Y-15721071D01*
X9758214Y-15749643D01*
X9772500Y-15763929D01*
X9801071Y-15778214D01*
X9858214Y-15778214D01*
X9886786Y-15763929D01*
X9901071Y-15749643D01*
X9915357Y-15721071D01*
X9915357Y-15649643D01*
X9901071Y-15621071D01*
X9886786Y-15606786D01*
X9858214Y-15592500D01*
X9801071Y-15592500D01*
X9772500Y-15606786D01*
X9758214Y-15621071D01*
X9743928Y-15649643D01*
X10029643Y-15506786D02*
X10043928Y-15492500D01*
X10072500Y-15478214D01*
X10143928Y-15478214D01*
X10172500Y-15492500D01*
X10186786Y-15506786D01*
X10201071Y-15535357D01*
X10201071Y-15563929D01*
X10186786Y-15606786D01*
X10015357Y-15778214D01*
X10201071Y-15778214D01*
X10329643Y-15778214D02*
X10329643Y-15578214D01*
X10329643Y-15606786D02*
X10343928Y-15592500D01*
X10372500Y-15578214D01*
X10415357Y-15578214D01*
X10443928Y-15592500D01*
X10458214Y-15621071D01*
X10458214Y-15778214D01*
X10458214Y-15621071D02*
X10472500Y-15592500D01*
X10501071Y-15578214D01*
X10543928Y-15578214D01*
X10572500Y-15592500D01*
X10586786Y-15621071D01*
X10586786Y-15778214D01*
X10729643Y-15778214D02*
X10729643Y-15578214D01*
X10729643Y-15606786D02*
X10743928Y-15592500D01*
X10772500Y-15578214D01*
X10815357Y-15578214D01*
X10843928Y-15592500D01*
X10858214Y-15621071D01*
X10858214Y-15778214D01*
X10858214Y-15621071D02*
X10872500Y-15592500D01*
X10901071Y-15578214D01*
X10943928Y-15578214D01*
X10972500Y-15592500D01*
X10986786Y-15621071D01*
X10986786Y-15778214D01*
X11572500Y-15463929D02*
X11315357Y-15849643D01*
X11958214Y-15478214D02*
X11986786Y-15478214D01*
X12015357Y-15492500D01*
X12029643Y-15506786D01*
X12043928Y-15535357D01*
X12058214Y-15592500D01*
X12058214Y-15663929D01*
X12043928Y-15721071D01*
X12029643Y-15749643D01*
X12015357Y-15763929D01*
X11986786Y-15778214D01*
X11958214Y-15778214D01*
X11929643Y-15763929D01*
X11915357Y-15749643D01*
X11901071Y-15721071D01*
X11886786Y-15663929D01*
X11886786Y-15592500D01*
X11901071Y-15535357D01*
X11915357Y-15506786D01*
X11929643Y-15492500D01*
X11958214Y-15478214D01*
X12186786Y-15749643D02*
X12201071Y-15763929D01*
X12186786Y-15778214D01*
X12172500Y-15763929D01*
X12186786Y-15749643D01*
X12186786Y-15778214D01*
X12386786Y-15478214D02*
X12415357Y-15478214D01*
X12443928Y-15492500D01*
X12458214Y-15506786D01*
X12472500Y-15535357D01*
X12486786Y-15592500D01*
X12486786Y-15663929D01*
X12472500Y-15721071D01*
X12458214Y-15749643D01*
X12443928Y-15763929D01*
X12415357Y-15778214D01*
X12386786Y-15778214D01*
X12358214Y-15763929D01*
X12343928Y-15749643D01*
X12329643Y-15721071D01*
X12315357Y-15663929D01*
X12315357Y-15592500D01*
X12329643Y-15535357D01*
X12343928Y-15506786D01*
X12358214Y-15492500D01*
X12386786Y-15478214D01*
X12586786Y-15478214D02*
X12772500Y-15478214D01*
X12672500Y-15592500D01*
X12715357Y-15592500D01*
X12743928Y-15606786D01*
X12758214Y-15621071D01*
X12772500Y-15649643D01*
X12772500Y-15721071D01*
X12758214Y-15749643D01*
X12743928Y-15763929D01*
X12715357Y-15778214D01*
X12629643Y-15778214D01*
X12601071Y-15763929D01*
X12586786Y-15749643D01*
X12958214Y-15478214D02*
X12986786Y-15478214D01*
X13015357Y-15492500D01*
X13029643Y-15506786D01*
X13043928Y-15535357D01*
X13058214Y-15592500D01*
X13058214Y-15663929D01*
X13043928Y-15721071D01*
X13029643Y-15749643D01*
X13015357Y-15763929D01*
X12986786Y-15778214D01*
X12958214Y-15778214D01*
X12929643Y-15763929D01*
X12915357Y-15749643D01*
X12901071Y-15721071D01*
X12886786Y-15663929D01*
X12886786Y-15592500D01*
X12901071Y-15535357D01*
X12915357Y-15506786D01*
X12929643Y-15492500D01*
X12958214Y-15478214D01*
X13243928Y-15478214D02*
X13272500Y-15478214D01*
X13301071Y-15492500D01*
X13315357Y-15506786D01*
X13329643Y-15535357D01*
X13343928Y-15592500D01*
X13343928Y-15663929D01*
X13329643Y-15721071D01*
X13315357Y-15749643D01*
X13301071Y-15763929D01*
X13272500Y-15778214D01*
X13243928Y-15778214D01*
X13215357Y-15763929D01*
X13201071Y-15749643D01*
X13186786Y-15721071D01*
X13172500Y-15663929D01*
X13172500Y-15592500D01*
X13186786Y-15535357D01*
X13201071Y-15506786D01*
X13215357Y-15492500D01*
X13243928Y-15478214D01*
X13458214Y-15478214D02*
X13458214Y-15535357D01*
X13572500Y-15478214D02*
X13572500Y-15535357D01*
X14015357Y-15892500D02*
X14001071Y-15878214D01*
X13972500Y-15835357D01*
X13958214Y-15806786D01*
X13943928Y-15763929D01*
X13929643Y-15692500D01*
X13929643Y-15635357D01*
X13943928Y-15563929D01*
X13958214Y-15521071D01*
X13972500Y-15492500D01*
X14001071Y-15449643D01*
X14015357Y-15435357D01*
X14286786Y-15778214D02*
X14115357Y-15778214D01*
X14201071Y-15778214D02*
X14201071Y-15478214D01*
X14172500Y-15521071D01*
X14143928Y-15549643D01*
X14115357Y-15563929D01*
X14429643Y-15778214D02*
X14486786Y-15778214D01*
X14515357Y-15763929D01*
X14529643Y-15749643D01*
X14558214Y-15706786D01*
X14572500Y-15649643D01*
X14572500Y-15535357D01*
X14558214Y-15506786D01*
X14543928Y-15492500D01*
X14515357Y-15478214D01*
X14458214Y-15478214D01*
X14429643Y-15492500D01*
X14415357Y-15506786D01*
X14401071Y-15535357D01*
X14401071Y-15606786D01*
X14415357Y-15635357D01*
X14429643Y-15649643D01*
X14458214Y-15663929D01*
X14515357Y-15663929D01*
X14543928Y-15649643D01*
X14558214Y-15635357D01*
X14572500Y-15606786D01*
X14929643Y-15778214D02*
X14929643Y-15478214D01*
X15058214Y-15778214D02*
X15058214Y-15621071D01*
X15043928Y-15592500D01*
X15015357Y-15578214D01*
X14972500Y-15578214D01*
X14943928Y-15592500D01*
X14929643Y-15606786D01*
X15243928Y-15778214D02*
X15215357Y-15763929D01*
X15201071Y-15749643D01*
X15186786Y-15721071D01*
X15186786Y-15635357D01*
X15201071Y-15606786D01*
X15215357Y-15592500D01*
X15243928Y-15578214D01*
X15286786Y-15578214D01*
X15315357Y-15592500D01*
X15329643Y-15606786D01*
X15343928Y-15635357D01*
X15343928Y-15721071D01*
X15329643Y-15749643D01*
X15315357Y-15763929D01*
X15286786Y-15778214D01*
X15243928Y-15778214D01*
X15515357Y-15778214D02*
X15486786Y-15763929D01*
X15472500Y-15735357D01*
X15472500Y-15478214D01*
X15743928Y-15763929D02*
X15715357Y-15778214D01*
X15658214Y-15778214D01*
X15629643Y-15763929D01*
X15615357Y-15735357D01*
X15615357Y-15621071D01*
X15629643Y-15592500D01*
X15658214Y-15578214D01*
X15715357Y-15578214D01*
X15743928Y-15592500D01*
X15758214Y-15621071D01*
X15758214Y-15649643D01*
X15615357Y-15678214D01*
X15872500Y-15763929D02*
X15901071Y-15778214D01*
X15958214Y-15778214D01*
X15986786Y-15763929D01*
X16001071Y-15735357D01*
X16001071Y-15721071D01*
X15986786Y-15692500D01*
X15958214Y-15678214D01*
X15915357Y-15678214D01*
X15886786Y-15663929D01*
X15872500Y-15635357D01*
X15872500Y-15621071D01*
X15886786Y-15592500D01*
X15915357Y-15578214D01*
X15958214Y-15578214D01*
X15986786Y-15592500D01*
X16101071Y-15892500D02*
X16115357Y-15878214D01*
X16143928Y-15835357D01*
X16158214Y-15806786D01*
X16172500Y-15763929D01*
X16186786Y-15692500D01*
X16186786Y-15635357D01*
X16172500Y-15563929D01*
X16158214Y-15521071D01*
X16143928Y-15492500D01*
X16115357Y-15449643D01*
X16101071Y-15435357D01*
X8757500Y-16038500D02*
G75*
G03*
X8757500Y-16038500I-40000J0D01*
G01*
X9101071Y-15874214D02*
X9129643Y-15874214D01*
X9158214Y-15888500D01*
X9172500Y-15902786D01*
X9186786Y-15931357D01*
X9201071Y-15988500D01*
X9201071Y-16059929D01*
X9186786Y-16117071D01*
X9172500Y-16145643D01*
X9158214Y-16159929D01*
X9129643Y-16174214D01*
X9101071Y-16174214D01*
X9072500Y-16159929D01*
X9058214Y-16145643D01*
X9043928Y-16117071D01*
X9029643Y-16059929D01*
X9029643Y-15988500D01*
X9043928Y-15931357D01*
X9058214Y-15902786D01*
X9072500Y-15888500D01*
X9101071Y-15874214D01*
X9329643Y-16145643D02*
X9343928Y-16159929D01*
X9329643Y-16174214D01*
X9315357Y-16159929D01*
X9329643Y-16145643D01*
X9329643Y-16174214D01*
X9515357Y-16002786D02*
X9486786Y-15988500D01*
X9472500Y-15974214D01*
X9458214Y-15945643D01*
X9458214Y-15931357D01*
X9472500Y-15902786D01*
X9486786Y-15888500D01*
X9515357Y-15874214D01*
X9572500Y-15874214D01*
X9601071Y-15888500D01*
X9615357Y-15902786D01*
X9629643Y-15931357D01*
X9629643Y-15945643D01*
X9615357Y-15974214D01*
X9601071Y-15988500D01*
X9572500Y-16002786D01*
X9515357Y-16002786D01*
X9486786Y-16017071D01*
X9472500Y-16031357D01*
X9458214Y-16059929D01*
X9458214Y-16117071D01*
X9472500Y-16145643D01*
X9486786Y-16159929D01*
X9515357Y-16174214D01*
X9572500Y-16174214D01*
X9601071Y-16159929D01*
X9615357Y-16145643D01*
X9629643Y-16117071D01*
X9629643Y-16059929D01*
X9615357Y-16031357D01*
X9601071Y-16017071D01*
X9572500Y-16002786D01*
X9815357Y-15874214D02*
X9843928Y-15874214D01*
X9872500Y-15888500D01*
X9886786Y-15902786D01*
X9901071Y-15931357D01*
X9915357Y-15988500D01*
X9915357Y-16059929D01*
X9901071Y-16117071D01*
X9886786Y-16145643D01*
X9872500Y-16159929D01*
X9843928Y-16174214D01*
X9815357Y-16174214D01*
X9786786Y-16159929D01*
X9772500Y-16145643D01*
X9758214Y-16117071D01*
X9743928Y-16059929D01*
X9743928Y-15988500D01*
X9758214Y-15931357D01*
X9772500Y-15902786D01*
X9786786Y-15888500D01*
X9815357Y-15874214D01*
X10101071Y-15874214D02*
X10129643Y-15874214D01*
X10158214Y-15888500D01*
X10172500Y-15902786D01*
X10186786Y-15931357D01*
X10201071Y-15988500D01*
X10201071Y-16059929D01*
X10186786Y-16117071D01*
X10172500Y-16145643D01*
X10158214Y-16159929D01*
X10129643Y-16174214D01*
X10101071Y-16174214D01*
X10072500Y-16159929D01*
X10058214Y-16145643D01*
X10043928Y-16117071D01*
X10029643Y-16059929D01*
X10029643Y-15988500D01*
X10043928Y-15931357D01*
X10058214Y-15902786D01*
X10072500Y-15888500D01*
X10101071Y-15874214D01*
X10329643Y-16174214D02*
X10329643Y-15974214D01*
X10329643Y-16002786D02*
X10343928Y-15988500D01*
X10372500Y-15974214D01*
X10415357Y-15974214D01*
X10443928Y-15988500D01*
X10458214Y-16017071D01*
X10458214Y-16174214D01*
X10458214Y-16017071D02*
X10472500Y-15988500D01*
X10501071Y-15974214D01*
X10543928Y-15974214D01*
X10572500Y-15988500D01*
X10586786Y-16017071D01*
X10586786Y-16174214D01*
X10729643Y-16174214D02*
X10729643Y-15974214D01*
X10729643Y-16002786D02*
X10743928Y-15988500D01*
X10772500Y-15974214D01*
X10815357Y-15974214D01*
X10843928Y-15988500D01*
X10858214Y-16017071D01*
X10858214Y-16174214D01*
X10858214Y-16017071D02*
X10872500Y-15988500D01*
X10901071Y-15974214D01*
X10943928Y-15974214D01*
X10972500Y-15988500D01*
X10986786Y-16017071D01*
X10986786Y-16174214D01*
X11572500Y-15859929D02*
X11315357Y-16245643D01*
X11958214Y-15874214D02*
X11986786Y-15874214D01*
X12015357Y-15888500D01*
X12029643Y-15902786D01*
X12043928Y-15931357D01*
X12058214Y-15988500D01*
X12058214Y-16059929D01*
X12043928Y-16117071D01*
X12029643Y-16145643D01*
X12015357Y-16159929D01*
X11986786Y-16174214D01*
X11958214Y-16174214D01*
X11929643Y-16159929D01*
X11915357Y-16145643D01*
X11901071Y-16117071D01*
X11886786Y-16059929D01*
X11886786Y-15988500D01*
X11901071Y-15931357D01*
X11915357Y-15902786D01*
X11929643Y-15888500D01*
X11958214Y-15874214D01*
X12186786Y-16145643D02*
X12201071Y-16159929D01*
X12186786Y-16174214D01*
X12172500Y-16159929D01*
X12186786Y-16145643D01*
X12186786Y-16174214D01*
X12386786Y-15874214D02*
X12415357Y-15874214D01*
X12443928Y-15888500D01*
X12458214Y-15902786D01*
X12472500Y-15931357D01*
X12486786Y-15988500D01*
X12486786Y-16059929D01*
X12472500Y-16117071D01*
X12458214Y-16145643D01*
X12443928Y-16159929D01*
X12415357Y-16174214D01*
X12386786Y-16174214D01*
X12358214Y-16159929D01*
X12343928Y-16145643D01*
X12329643Y-16117071D01*
X12315357Y-16059929D01*
X12315357Y-15988500D01*
X12329643Y-15931357D01*
X12343928Y-15902786D01*
X12358214Y-15888500D01*
X12386786Y-15874214D01*
X12586786Y-15874214D02*
X12772500Y-15874214D01*
X12672500Y-15988500D01*
X12715357Y-15988500D01*
X12743928Y-16002786D01*
X12758214Y-16017071D01*
X12772500Y-16045643D01*
X12772500Y-16117071D01*
X12758214Y-16145643D01*
X12743928Y-16159929D01*
X12715357Y-16174214D01*
X12629643Y-16174214D01*
X12601071Y-16159929D01*
X12586786Y-16145643D01*
X13058214Y-16174214D02*
X12886786Y-16174214D01*
X12972500Y-16174214D02*
X12972500Y-15874214D01*
X12943928Y-15917071D01*
X12915357Y-15945643D01*
X12886786Y-15959929D01*
X13329643Y-15874214D02*
X13186786Y-15874214D01*
X13172500Y-16017071D01*
X13186786Y-16002786D01*
X13215357Y-15988500D01*
X13286786Y-15988500D01*
X13315357Y-16002786D01*
X13329643Y-16017071D01*
X13343928Y-16045643D01*
X13343928Y-16117071D01*
X13329643Y-16145643D01*
X13315357Y-16159929D01*
X13286786Y-16174214D01*
X13215357Y-16174214D01*
X13186786Y-16159929D01*
X13172500Y-16145643D01*
X13458214Y-15874214D02*
X13458214Y-15931357D01*
X13572500Y-15874214D02*
X13572500Y-15931357D01*
X14015357Y-16288500D02*
X14001071Y-16274214D01*
X13972500Y-16231357D01*
X13958214Y-16202786D01*
X13943928Y-16159929D01*
X13929643Y-16088500D01*
X13929643Y-16031357D01*
X13943928Y-15959929D01*
X13958214Y-15917071D01*
X13972500Y-15888500D01*
X14001071Y-15845643D01*
X14015357Y-15831357D01*
X14286786Y-16174214D02*
X14115357Y-16174214D01*
X14201071Y-16174214D02*
X14201071Y-15874214D01*
X14172500Y-15917071D01*
X14143928Y-15945643D01*
X14115357Y-15959929D01*
X14458214Y-16002786D02*
X14429643Y-15988500D01*
X14415357Y-15974214D01*
X14401071Y-15945643D01*
X14401071Y-15931357D01*
X14415357Y-15902786D01*
X14429643Y-15888500D01*
X14458214Y-15874214D01*
X14515357Y-15874214D01*
X14543928Y-15888500D01*
X14558214Y-15902786D01*
X14572500Y-15931357D01*
X14572500Y-15945643D01*
X14558214Y-15974214D01*
X14543928Y-15988500D01*
X14515357Y-16002786D01*
X14458214Y-16002786D01*
X14429643Y-16017071D01*
X14415357Y-16031357D01*
X14401071Y-16059929D01*
X14401071Y-16117071D01*
X14415357Y-16145643D01*
X14429643Y-16159929D01*
X14458214Y-16174214D01*
X14515357Y-16174214D01*
X14543928Y-16159929D01*
X14558214Y-16145643D01*
X14572500Y-16117071D01*
X14572500Y-16059929D01*
X14558214Y-16031357D01*
X14543928Y-16017071D01*
X14515357Y-16002786D01*
X14929643Y-16174214D02*
X14929643Y-15874214D01*
X15058214Y-16174214D02*
X15058214Y-16017071D01*
X15043928Y-15988500D01*
X15015357Y-15974214D01*
X14972500Y-15974214D01*
X14943928Y-15988500D01*
X14929643Y-16002786D01*
X15243928Y-16174214D02*
X15215357Y-16159929D01*
X15201071Y-16145643D01*
X15186786Y-16117071D01*
X15186786Y-16031357D01*
X15201071Y-16002786D01*
X15215357Y-15988500D01*
X15243928Y-15974214D01*
X15286786Y-15974214D01*
X15315357Y-15988500D01*
X15329643Y-16002786D01*
X15343928Y-16031357D01*
X15343928Y-16117071D01*
X15329643Y-16145643D01*
X15315357Y-16159929D01*
X15286786Y-16174214D01*
X15243928Y-16174214D01*
X15515357Y-16174214D02*
X15486786Y-16159929D01*
X15472500Y-16131357D01*
X15472500Y-15874214D01*
X15743928Y-16159929D02*
X15715357Y-16174214D01*
X15658214Y-16174214D01*
X15629643Y-16159929D01*
X15615357Y-16131357D01*
X15615357Y-16017071D01*
X15629643Y-15988500D01*
X15658214Y-15974214D01*
X15715357Y-15974214D01*
X15743928Y-15988500D01*
X15758214Y-16017071D01*
X15758214Y-16045643D01*
X15615357Y-16074214D01*
X15872500Y-16159929D02*
X15901071Y-16174214D01*
X15958214Y-16174214D01*
X15986786Y-16159929D01*
X16001071Y-16131357D01*
X16001071Y-16117071D01*
X15986786Y-16088500D01*
X15958214Y-16074214D01*
X15915357Y-16074214D01*
X15886786Y-16059929D01*
X15872500Y-16031357D01*
X15872500Y-16017071D01*
X15886786Y-15988500D01*
X15915357Y-15974214D01*
X15958214Y-15974214D01*
X15986786Y-15988500D01*
X16101071Y-16288500D02*
X16115357Y-16274214D01*
X16143928Y-16231357D01*
X16158214Y-16202786D01*
X16172500Y-16159929D01*
X16186786Y-16088500D01*
X16186786Y-16031357D01*
X16172500Y-15959929D01*
X16158214Y-15917071D01*
X16143928Y-15888500D01*
X16115357Y-15845643D01*
X16101071Y-15831357D01*
X8712500Y-16389500D02*
X8712500Y-16479500D01*
X8667500Y-16434500D02*
X8757500Y-16434500D01*
X9101071Y-16270214D02*
X9129643Y-16270214D01*
X9158214Y-16284500D01*
X9172500Y-16298786D01*
X9186786Y-16327357D01*
X9201071Y-16384500D01*
X9201071Y-16455929D01*
X9186786Y-16513071D01*
X9172500Y-16541643D01*
X9158214Y-16555929D01*
X9129643Y-16570214D01*
X9101071Y-16570214D01*
X9072500Y-16555929D01*
X9058214Y-16541643D01*
X9043928Y-16513071D01*
X9029643Y-16455929D01*
X9029643Y-16384500D01*
X9043928Y-16327357D01*
X9058214Y-16298786D01*
X9072500Y-16284500D01*
X9101071Y-16270214D01*
X9329643Y-16541643D02*
X9343928Y-16555929D01*
X9329643Y-16570214D01*
X9315357Y-16555929D01*
X9329643Y-16541643D01*
X9329643Y-16570214D01*
X9486786Y-16570214D02*
X9543928Y-16570214D01*
X9572500Y-16555929D01*
X9586786Y-16541643D01*
X9615357Y-16498786D01*
X9629643Y-16441643D01*
X9629643Y-16327357D01*
X9615357Y-16298786D01*
X9601071Y-16284500D01*
X9572500Y-16270214D01*
X9515357Y-16270214D01*
X9486786Y-16284500D01*
X9472500Y-16298786D01*
X9458214Y-16327357D01*
X9458214Y-16398786D01*
X9472500Y-16427357D01*
X9486786Y-16441643D01*
X9515357Y-16455929D01*
X9572500Y-16455929D01*
X9601071Y-16441643D01*
X9615357Y-16427357D01*
X9629643Y-16398786D01*
X9815357Y-16270214D02*
X9843928Y-16270214D01*
X9872500Y-16284500D01*
X9886786Y-16298786D01*
X9901071Y-16327357D01*
X9915357Y-16384500D01*
X9915357Y-16455929D01*
X9901071Y-16513071D01*
X9886786Y-16541643D01*
X9872500Y-16555929D01*
X9843928Y-16570214D01*
X9815357Y-16570214D01*
X9786786Y-16555929D01*
X9772500Y-16541643D01*
X9758214Y-16513071D01*
X9743928Y-16455929D01*
X9743928Y-16384500D01*
X9758214Y-16327357D01*
X9772500Y-16298786D01*
X9786786Y-16284500D01*
X9815357Y-16270214D01*
X10101071Y-16270214D02*
X10129643Y-16270214D01*
X10158214Y-16284500D01*
X10172500Y-16298786D01*
X10186786Y-16327357D01*
X10201071Y-16384500D01*
X10201071Y-16455929D01*
X10186786Y-16513071D01*
X10172500Y-16541643D01*
X10158214Y-16555929D01*
X10129643Y-16570214D01*
X10101071Y-16570214D01*
X10072500Y-16555929D01*
X10058214Y-16541643D01*
X10043928Y-16513071D01*
X10029643Y-16455929D01*
X10029643Y-16384500D01*
X10043928Y-16327357D01*
X10058214Y-16298786D01*
X10072500Y-16284500D01*
X10101071Y-16270214D01*
X10329643Y-16570214D02*
X10329643Y-16370214D01*
X10329643Y-16398786D02*
X10343928Y-16384500D01*
X10372500Y-16370214D01*
X10415357Y-16370214D01*
X10443928Y-16384500D01*
X10458214Y-16413071D01*
X10458214Y-16570214D01*
X10458214Y-16413071D02*
X10472500Y-16384500D01*
X10501071Y-16370214D01*
X10543928Y-16370214D01*
X10572500Y-16384500D01*
X10586786Y-16413071D01*
X10586786Y-16570214D01*
X10729643Y-16570214D02*
X10729643Y-16370214D01*
X10729643Y-16398786D02*
X10743928Y-16384500D01*
X10772500Y-16370214D01*
X10815357Y-16370214D01*
X10843928Y-16384500D01*
X10858214Y-16413071D01*
X10858214Y-16570214D01*
X10858214Y-16413071D02*
X10872500Y-16384500D01*
X10901071Y-16370214D01*
X10943928Y-16370214D01*
X10972500Y-16384500D01*
X10986786Y-16413071D01*
X10986786Y-16570214D01*
X11572500Y-16255929D02*
X11315357Y-16641643D01*
X11958214Y-16270214D02*
X11986786Y-16270214D01*
X12015357Y-16284500D01*
X12029643Y-16298786D01*
X12043928Y-16327357D01*
X12058214Y-16384500D01*
X12058214Y-16455929D01*
X12043928Y-16513071D01*
X12029643Y-16541643D01*
X12015357Y-16555929D01*
X11986786Y-16570214D01*
X11958214Y-16570214D01*
X11929643Y-16555929D01*
X11915357Y-16541643D01*
X11901071Y-16513071D01*
X11886786Y-16455929D01*
X11886786Y-16384500D01*
X11901071Y-16327357D01*
X11915357Y-16298786D01*
X11929643Y-16284500D01*
X11958214Y-16270214D01*
X12186786Y-16541643D02*
X12201071Y-16555929D01*
X12186786Y-16570214D01*
X12172500Y-16555929D01*
X12186786Y-16541643D01*
X12186786Y-16570214D01*
X12386786Y-16270214D02*
X12415357Y-16270214D01*
X12443928Y-16284500D01*
X12458214Y-16298786D01*
X12472500Y-16327357D01*
X12486786Y-16384500D01*
X12486786Y-16455929D01*
X12472500Y-16513071D01*
X12458214Y-16541643D01*
X12443928Y-16555929D01*
X12415357Y-16570214D01*
X12386786Y-16570214D01*
X12358214Y-16555929D01*
X12343928Y-16541643D01*
X12329643Y-16513071D01*
X12315357Y-16455929D01*
X12315357Y-16384500D01*
X12329643Y-16327357D01*
X12343928Y-16298786D01*
X12358214Y-16284500D01*
X12386786Y-16270214D01*
X12586786Y-16270214D02*
X12772500Y-16270214D01*
X12672500Y-16384500D01*
X12715357Y-16384500D01*
X12743928Y-16398786D01*
X12758214Y-16413071D01*
X12772500Y-16441643D01*
X12772500Y-16513071D01*
X12758214Y-16541643D01*
X12743928Y-16555929D01*
X12715357Y-16570214D01*
X12629643Y-16570214D01*
X12601071Y-16555929D01*
X12586786Y-16541643D01*
X13043928Y-16270214D02*
X12901071Y-16270214D01*
X12886786Y-16413071D01*
X12901071Y-16398786D01*
X12929643Y-16384500D01*
X13001071Y-16384500D01*
X13029643Y-16398786D01*
X13043928Y-16413071D01*
X13058214Y-16441643D01*
X13058214Y-16513071D01*
X13043928Y-16541643D01*
X13029643Y-16555929D01*
X13001071Y-16570214D01*
X12929643Y-16570214D01*
X12901071Y-16555929D01*
X12886786Y-16541643D01*
X13315357Y-16370214D02*
X13315357Y-16570214D01*
X13243928Y-16255929D02*
X13172500Y-16470214D01*
X13358214Y-16470214D01*
X13458214Y-16270214D02*
X13458214Y-16327357D01*
X13572500Y-16270214D02*
X13572500Y-16327357D01*
X14015357Y-16684500D02*
X14001071Y-16670214D01*
X13972500Y-16627357D01*
X13958214Y-16598786D01*
X13943928Y-16555929D01*
X13929643Y-16484500D01*
X13929643Y-16427357D01*
X13943928Y-16355929D01*
X13958214Y-16313071D01*
X13972500Y-16284500D01*
X14001071Y-16241643D01*
X14015357Y-16227357D01*
X14101071Y-16270214D02*
X14301071Y-16270214D01*
X14172500Y-16570214D01*
X14643928Y-16570214D02*
X14643928Y-16270214D01*
X14772500Y-16570214D02*
X14772500Y-16413071D01*
X14758214Y-16384500D01*
X14729643Y-16370214D01*
X14686786Y-16370214D01*
X14658214Y-16384500D01*
X14643928Y-16398786D01*
X14958214Y-16570214D02*
X14929643Y-16555929D01*
X14915357Y-16541643D01*
X14901071Y-16513071D01*
X14901071Y-16427357D01*
X14915357Y-16398786D01*
X14929643Y-16384500D01*
X14958214Y-16370214D01*
X15001071Y-16370214D01*
X15029643Y-16384500D01*
X15043928Y-16398786D01*
X15058214Y-16427357D01*
X15058214Y-16513071D01*
X15043928Y-16541643D01*
X15029643Y-16555929D01*
X15001071Y-16570214D01*
X14958214Y-16570214D01*
X15229643Y-16570214D02*
X15201071Y-16555929D01*
X15186786Y-16527357D01*
X15186786Y-16270214D01*
X15458214Y-16555929D02*
X15429643Y-16570214D01*
X15372500Y-16570214D01*
X15343928Y-16555929D01*
X15329643Y-16527357D01*
X15329643Y-16413071D01*
X15343928Y-16384500D01*
X15372500Y-16370214D01*
X15429643Y-16370214D01*
X15458214Y-16384500D01*
X15472500Y-16413071D01*
X15472500Y-16441643D01*
X15329643Y-16470214D01*
X15586786Y-16555929D02*
X15615357Y-16570214D01*
X15672500Y-16570214D01*
X15701071Y-16555929D01*
X15715357Y-16527357D01*
X15715357Y-16513071D01*
X15701071Y-16484500D01*
X15672500Y-16470214D01*
X15629643Y-16470214D01*
X15601071Y-16455929D01*
X15586786Y-16427357D01*
X15586786Y-16413071D01*
X15601071Y-16384500D01*
X15629643Y-16370214D01*
X15672500Y-16370214D01*
X15701071Y-16384500D01*
X15815357Y-16684500D02*
X15829643Y-16670214D01*
X15858214Y-16627357D01*
X15872500Y-16598786D01*
X15886786Y-16555929D01*
X15901071Y-16484500D01*
X15901071Y-16427357D01*
X15886786Y-16355929D01*
X15872500Y-16313071D01*
X15858214Y-16284500D01*
X15829643Y-16241643D01*
X15815357Y-16227357D01*
X8742856Y-16865856D02*
X8742856Y-16795144D01*
X8672144Y-16795144D01*
X8672144Y-16865856D01*
X8742856Y-16865856D01*
X9201071Y-16966214D02*
X9029643Y-16966214D01*
X9115357Y-16966214D02*
X9115357Y-16666214D01*
X9086786Y-16709071D01*
X9058214Y-16737643D01*
X9029643Y-16751929D01*
X9329643Y-16937643D02*
X9343928Y-16951929D01*
X9329643Y-16966214D01*
X9315357Y-16951929D01*
X9329643Y-16937643D01*
X9329643Y-16966214D01*
X9529643Y-16666214D02*
X9558214Y-16666214D01*
X9586786Y-16680500D01*
X9601071Y-16694786D01*
X9615357Y-16723357D01*
X9629643Y-16780500D01*
X9629643Y-16851929D01*
X9615357Y-16909072D01*
X9601071Y-16937643D01*
X9586786Y-16951929D01*
X9558214Y-16966214D01*
X9529643Y-16966214D01*
X9501071Y-16951929D01*
X9486786Y-16937643D01*
X9472500Y-16909072D01*
X9458214Y-16851929D01*
X9458214Y-16780500D01*
X9472500Y-16723357D01*
X9486786Y-16694786D01*
X9501071Y-16680500D01*
X9529643Y-16666214D01*
X9815357Y-16666214D02*
X9843928Y-16666214D01*
X9872500Y-16680500D01*
X9886786Y-16694786D01*
X9901071Y-16723357D01*
X9915357Y-16780500D01*
X9915357Y-16851929D01*
X9901071Y-16909072D01*
X9886786Y-16937643D01*
X9872500Y-16951929D01*
X9843928Y-16966214D01*
X9815357Y-16966214D01*
X9786786Y-16951929D01*
X9772500Y-16937643D01*
X9758214Y-16909072D01*
X9743928Y-16851929D01*
X9743928Y-16780500D01*
X9758214Y-16723357D01*
X9772500Y-16694786D01*
X9786786Y-16680500D01*
X9815357Y-16666214D01*
X10101071Y-16666214D02*
X10129643Y-16666214D01*
X10158214Y-16680500D01*
X10172500Y-16694786D01*
X10186786Y-16723357D01*
X10201071Y-16780500D01*
X10201071Y-16851929D01*
X10186786Y-16909072D01*
X10172500Y-16937643D01*
X10158214Y-16951929D01*
X10129643Y-16966214D01*
X10101071Y-16966214D01*
X10072500Y-16951929D01*
X10058214Y-16937643D01*
X10043928Y-16909072D01*
X10029643Y-16851929D01*
X10029643Y-16780500D01*
X10043928Y-16723357D01*
X10058214Y-16694786D01*
X10072500Y-16680500D01*
X10101071Y-16666214D01*
X10329643Y-16966214D02*
X10329643Y-16766214D01*
X10329643Y-16794786D02*
X10343928Y-16780500D01*
X10372500Y-16766214D01*
X10415357Y-16766214D01*
X10443928Y-16780500D01*
X10458214Y-16809072D01*
X10458214Y-16966214D01*
X10458214Y-16809072D02*
X10472500Y-16780500D01*
X10501071Y-16766214D01*
X10543928Y-16766214D01*
X10572500Y-16780500D01*
X10586786Y-16809072D01*
X10586786Y-16966214D01*
X10729643Y-16966214D02*
X10729643Y-16766214D01*
X10729643Y-16794786D02*
X10743928Y-16780500D01*
X10772500Y-16766214D01*
X10815357Y-16766214D01*
X10843928Y-16780500D01*
X10858214Y-16809072D01*
X10858214Y-16966214D01*
X10858214Y-16809072D02*
X10872500Y-16780500D01*
X10901071Y-16766214D01*
X10943928Y-16766214D01*
X10972500Y-16780500D01*
X10986786Y-16809072D01*
X10986786Y-16966214D01*
X11572500Y-16651929D02*
X11315357Y-17037643D01*
X11958214Y-16666214D02*
X11986786Y-16666214D01*
X12015357Y-16680500D01*
X12029643Y-16694786D01*
X12043928Y-16723357D01*
X12058214Y-16780500D01*
X12058214Y-16851929D01*
X12043928Y-16909072D01*
X12029643Y-16937643D01*
X12015357Y-16951929D01*
X11986786Y-16966214D01*
X11958214Y-16966214D01*
X11929643Y-16951929D01*
X11915357Y-16937643D01*
X11901071Y-16909072D01*
X11886786Y-16851929D01*
X11886786Y-16780500D01*
X11901071Y-16723357D01*
X11915357Y-16694786D01*
X11929643Y-16680500D01*
X11958214Y-16666214D01*
X12186786Y-16937643D02*
X12201071Y-16951929D01*
X12186786Y-16966214D01*
X12172500Y-16951929D01*
X12186786Y-16937643D01*
X12186786Y-16966214D01*
X12386786Y-16666214D02*
X12415357Y-16666214D01*
X12443928Y-16680500D01*
X12458214Y-16694786D01*
X12472500Y-16723357D01*
X12486786Y-16780500D01*
X12486786Y-16851929D01*
X12472500Y-16909072D01*
X12458214Y-16937643D01*
X12443928Y-16951929D01*
X12415357Y-16966214D01*
X12386786Y-16966214D01*
X12358214Y-16951929D01*
X12343928Y-16937643D01*
X12329643Y-16909072D01*
X12315357Y-16851929D01*
X12315357Y-16780500D01*
X12329643Y-16723357D01*
X12343928Y-16694786D01*
X12358214Y-16680500D01*
X12386786Y-16666214D01*
X12586786Y-16666214D02*
X12772500Y-16666214D01*
X12672500Y-16780500D01*
X12715357Y-16780500D01*
X12743928Y-16794786D01*
X12758214Y-16809072D01*
X12772500Y-16837643D01*
X12772500Y-16909072D01*
X12758214Y-16937643D01*
X12743928Y-16951929D01*
X12715357Y-16966214D01*
X12629643Y-16966214D01*
X12601071Y-16951929D01*
X12586786Y-16937643D01*
X12915357Y-16966214D02*
X12972500Y-16966214D01*
X13001071Y-16951929D01*
X13015357Y-16937643D01*
X13043928Y-16894786D01*
X13058214Y-16837643D01*
X13058214Y-16723357D01*
X13043928Y-16694786D01*
X13029643Y-16680500D01*
X13001071Y-16666214D01*
X12943928Y-16666214D01*
X12915357Y-16680500D01*
X12901071Y-16694786D01*
X12886786Y-16723357D01*
X12886786Y-16794786D01*
X12901071Y-16823357D01*
X12915357Y-16837643D01*
X12943928Y-16851929D01*
X13001071Y-16851929D01*
X13029643Y-16837643D01*
X13043928Y-16823357D01*
X13058214Y-16794786D01*
X13315357Y-16766214D02*
X13315357Y-16966214D01*
X13243928Y-16651929D02*
X13172500Y-16866214D01*
X13358214Y-16866214D01*
X13458214Y-16666214D02*
X13458214Y-16723357D01*
X13572500Y-16666214D02*
X13572500Y-16723357D01*
X14015357Y-17080500D02*
X14001071Y-17066214D01*
X13972500Y-17023357D01*
X13958214Y-16994786D01*
X13943928Y-16951929D01*
X13929643Y-16880500D01*
X13929643Y-16823357D01*
X13943928Y-16751929D01*
X13958214Y-16709071D01*
X13972500Y-16680500D01*
X14001071Y-16637643D01*
X14015357Y-16623357D01*
X14272500Y-16666214D02*
X14129643Y-16666214D01*
X14115357Y-16809072D01*
X14129643Y-16794786D01*
X14158214Y-16780500D01*
X14229643Y-16780500D01*
X14258214Y-16794786D01*
X14272500Y-16809072D01*
X14286786Y-16837643D01*
X14286786Y-16909072D01*
X14272500Y-16937643D01*
X14258214Y-16951929D01*
X14229643Y-16966214D01*
X14158214Y-16966214D01*
X14129643Y-16951929D01*
X14115357Y-16937643D01*
X14643928Y-16966214D02*
X14643928Y-16666214D01*
X14772500Y-16966214D02*
X14772500Y-16809072D01*
X14758214Y-16780500D01*
X14729643Y-16766214D01*
X14686786Y-16766214D01*
X14658214Y-16780500D01*
X14643928Y-16794786D01*
X14958214Y-16966214D02*
X14929643Y-16951929D01*
X14915357Y-16937643D01*
X14901071Y-16909072D01*
X14901071Y-16823357D01*
X14915357Y-16794786D01*
X14929643Y-16780500D01*
X14958214Y-16766214D01*
X15001071Y-16766214D01*
X15029643Y-16780500D01*
X15043928Y-16794786D01*
X15058214Y-16823357D01*
X15058214Y-16909072D01*
X15043928Y-16937643D01*
X15029643Y-16951929D01*
X15001071Y-16966214D01*
X14958214Y-16966214D01*
X15229643Y-16966214D02*
X15201071Y-16951929D01*
X15186786Y-16923357D01*
X15186786Y-16666214D01*
X15458214Y-16951929D02*
X15429643Y-16966214D01*
X15372500Y-16966214D01*
X15343928Y-16951929D01*
X15329643Y-16923357D01*
X15329643Y-16809072D01*
X15343928Y-16780500D01*
X15372500Y-16766214D01*
X15429643Y-16766214D01*
X15458214Y-16780500D01*
X15472500Y-16809072D01*
X15472500Y-16837643D01*
X15329643Y-16866214D01*
X15586786Y-16951929D02*
X15615357Y-16966214D01*
X15672500Y-16966214D01*
X15701071Y-16951929D01*
X15715357Y-16923357D01*
X15715357Y-16909072D01*
X15701071Y-16880500D01*
X15672500Y-16866214D01*
X15629643Y-16866214D01*
X15601071Y-16851929D01*
X15586786Y-16823357D01*
X15586786Y-16809072D01*
X15601071Y-16780500D01*
X15629643Y-16766214D01*
X15672500Y-16766214D01*
X15701071Y-16780500D01*
X15815357Y-17080500D02*
X15829643Y-17066214D01*
X15858214Y-17023357D01*
X15872500Y-16994786D01*
X15886786Y-16951929D01*
X15901071Y-16880500D01*
X15901071Y-16823357D01*
X15886786Y-16751929D01*
X15872500Y-16709071D01*
X15858214Y-16680500D01*
X15829643Y-16637643D01*
X15815357Y-16623357D01*
X8692500Y-17291500D02*
X8757500Y-17226500D01*
X8692500Y-17161500D01*
X8627500Y-17226500D01*
X8692500Y-17291500D01*
X9201071Y-17362214D02*
X9029643Y-17362214D01*
X9115357Y-17362214D02*
X9115357Y-17062214D01*
X9086786Y-17105072D01*
X9058214Y-17133643D01*
X9029643Y-17147929D01*
X9329643Y-17333643D02*
X9343928Y-17347929D01*
X9329643Y-17362214D01*
X9315357Y-17347929D01*
X9329643Y-17333643D01*
X9329643Y-17362214D01*
X9443928Y-17062214D02*
X9629643Y-17062214D01*
X9529643Y-17176500D01*
X9572500Y-17176500D01*
X9601071Y-17190786D01*
X9615357Y-17205072D01*
X9629643Y-17233643D01*
X9629643Y-17305072D01*
X9615357Y-17333643D01*
X9601071Y-17347929D01*
X9572500Y-17362214D01*
X9486786Y-17362214D01*
X9458214Y-17347929D01*
X9443928Y-17333643D01*
X9815357Y-17062214D02*
X9843928Y-17062214D01*
X9872500Y-17076500D01*
X9886786Y-17090786D01*
X9901071Y-17119357D01*
X9915357Y-17176500D01*
X9915357Y-17247929D01*
X9901071Y-17305072D01*
X9886786Y-17333643D01*
X9872500Y-17347929D01*
X9843928Y-17362214D01*
X9815357Y-17362214D01*
X9786786Y-17347929D01*
X9772500Y-17333643D01*
X9758214Y-17305072D01*
X9743928Y-17247929D01*
X9743928Y-17176500D01*
X9758214Y-17119357D01*
X9772500Y-17090786D01*
X9786786Y-17076500D01*
X9815357Y-17062214D01*
X10101071Y-17062214D02*
X10129643Y-17062214D01*
X10158214Y-17076500D01*
X10172500Y-17090786D01*
X10186786Y-17119357D01*
X10201071Y-17176500D01*
X10201071Y-17247929D01*
X10186786Y-17305072D01*
X10172500Y-17333643D01*
X10158214Y-17347929D01*
X10129643Y-17362214D01*
X10101071Y-17362214D01*
X10072500Y-17347929D01*
X10058214Y-17333643D01*
X10043928Y-17305072D01*
X10029643Y-17247929D01*
X10029643Y-17176500D01*
X10043928Y-17119357D01*
X10058214Y-17090786D01*
X10072500Y-17076500D01*
X10101071Y-17062214D01*
X10329643Y-17362214D02*
X10329643Y-17162214D01*
X10329643Y-17190786D02*
X10343928Y-17176500D01*
X10372500Y-17162214D01*
X10415357Y-17162214D01*
X10443928Y-17176500D01*
X10458214Y-17205072D01*
X10458214Y-17362214D01*
X10458214Y-17205072D02*
X10472500Y-17176500D01*
X10501071Y-17162214D01*
X10543928Y-17162214D01*
X10572500Y-17176500D01*
X10586786Y-17205072D01*
X10586786Y-17362214D01*
X10729643Y-17362214D02*
X10729643Y-17162214D01*
X10729643Y-17190786D02*
X10743928Y-17176500D01*
X10772500Y-17162214D01*
X10815357Y-17162214D01*
X10843928Y-17176500D01*
X10858214Y-17205072D01*
X10858214Y-17362214D01*
X10858214Y-17205072D02*
X10872500Y-17176500D01*
X10901071Y-17162214D01*
X10943928Y-17162214D01*
X10972500Y-17176500D01*
X10986786Y-17205072D01*
X10986786Y-17362214D01*
X11572500Y-17047929D02*
X11315357Y-17433643D01*
X11958214Y-17062214D02*
X11986786Y-17062214D01*
X12015357Y-17076500D01*
X12029643Y-17090786D01*
X12043928Y-17119357D01*
X12058214Y-17176500D01*
X12058214Y-17247929D01*
X12043928Y-17305072D01*
X12029643Y-17333643D01*
X12015357Y-17347929D01*
X11986786Y-17362214D01*
X11958214Y-17362214D01*
X11929643Y-17347929D01*
X11915357Y-17333643D01*
X11901071Y-17305072D01*
X11886786Y-17247929D01*
X11886786Y-17176500D01*
X11901071Y-17119357D01*
X11915357Y-17090786D01*
X11929643Y-17076500D01*
X11958214Y-17062214D01*
X12186786Y-17333643D02*
X12201071Y-17347929D01*
X12186786Y-17362214D01*
X12172500Y-17347929D01*
X12186786Y-17333643D01*
X12186786Y-17362214D01*
X12386786Y-17062214D02*
X12415357Y-17062214D01*
X12443928Y-17076500D01*
X12458214Y-17090786D01*
X12472500Y-17119357D01*
X12486786Y-17176500D01*
X12486786Y-17247929D01*
X12472500Y-17305072D01*
X12458214Y-17333643D01*
X12443928Y-17347929D01*
X12415357Y-17362214D01*
X12386786Y-17362214D01*
X12358214Y-17347929D01*
X12343928Y-17333643D01*
X12329643Y-17305072D01*
X12315357Y-17247929D01*
X12315357Y-17176500D01*
X12329643Y-17119357D01*
X12343928Y-17090786D01*
X12358214Y-17076500D01*
X12386786Y-17062214D01*
X12758214Y-17062214D02*
X12615357Y-17062214D01*
X12601071Y-17205072D01*
X12615357Y-17190786D01*
X12643928Y-17176500D01*
X12715357Y-17176500D01*
X12743928Y-17190786D01*
X12758214Y-17205072D01*
X12772500Y-17233643D01*
X12772500Y-17305072D01*
X12758214Y-17333643D01*
X12743928Y-17347929D01*
X12715357Y-17362214D01*
X12643928Y-17362214D01*
X12615357Y-17347929D01*
X12601071Y-17333643D01*
X13058214Y-17362214D02*
X12886786Y-17362214D01*
X12972500Y-17362214D02*
X12972500Y-17062214D01*
X12943928Y-17105072D01*
X12915357Y-17133643D01*
X12886786Y-17147929D01*
X13172500Y-17090786D02*
X13186786Y-17076500D01*
X13215357Y-17062214D01*
X13286786Y-17062214D01*
X13315357Y-17076500D01*
X13329643Y-17090786D01*
X13343928Y-17119357D01*
X13343928Y-17147929D01*
X13329643Y-17190786D01*
X13158214Y-17362214D01*
X13343928Y-17362214D01*
X13458214Y-17062214D02*
X13458214Y-17119357D01*
X13572500Y-17062214D02*
X13572500Y-17119357D01*
X14015357Y-17476500D02*
X14001071Y-17462214D01*
X13972500Y-17419357D01*
X13958214Y-17390786D01*
X13943928Y-17347929D01*
X13929643Y-17276500D01*
X13929643Y-17219357D01*
X13943928Y-17147929D01*
X13958214Y-17105072D01*
X13972500Y-17076500D01*
X14001071Y-17033643D01*
X14015357Y-17019357D01*
X14258214Y-17062214D02*
X14201071Y-17062214D01*
X14172500Y-17076500D01*
X14158214Y-17090786D01*
X14129643Y-17133643D01*
X14115357Y-17190786D01*
X14115357Y-17305072D01*
X14129643Y-17333643D01*
X14143928Y-17347929D01*
X14172500Y-17362214D01*
X14229643Y-17362214D01*
X14258214Y-17347929D01*
X14272500Y-17333643D01*
X14286786Y-17305072D01*
X14286786Y-17233643D01*
X14272500Y-17205072D01*
X14258214Y-17190786D01*
X14229643Y-17176500D01*
X14172500Y-17176500D01*
X14143928Y-17190786D01*
X14129643Y-17205072D01*
X14115357Y-17233643D01*
X14643928Y-17362214D02*
X14643928Y-17062214D01*
X14772500Y-17362214D02*
X14772500Y-17205072D01*
X14758214Y-17176500D01*
X14729643Y-17162214D01*
X14686786Y-17162214D01*
X14658214Y-17176500D01*
X14643928Y-17190786D01*
X14958214Y-17362214D02*
X14929643Y-17347929D01*
X14915357Y-17333643D01*
X14901071Y-17305072D01*
X14901071Y-17219357D01*
X14915357Y-17190786D01*
X14929643Y-17176500D01*
X14958214Y-17162214D01*
X15001071Y-17162214D01*
X15029643Y-17176500D01*
X15043928Y-17190786D01*
X15058214Y-17219357D01*
X15058214Y-17305072D01*
X15043928Y-17333643D01*
X15029643Y-17347929D01*
X15001071Y-17362214D01*
X14958214Y-17362214D01*
X15229643Y-17362214D02*
X15201071Y-17347929D01*
X15186786Y-17319357D01*
X15186786Y-17062214D01*
X15458214Y-17347929D02*
X15429643Y-17362214D01*
X15372500Y-17362214D01*
X15343928Y-17347929D01*
X15329643Y-17319357D01*
X15329643Y-17205072D01*
X15343928Y-17176500D01*
X15372500Y-17162214D01*
X15429643Y-17162214D01*
X15458214Y-17176500D01*
X15472500Y-17205072D01*
X15472500Y-17233643D01*
X15329643Y-17262214D01*
X15586786Y-17347929D02*
X15615357Y-17362214D01*
X15672500Y-17362214D01*
X15701071Y-17347929D01*
X15715357Y-17319357D01*
X15715357Y-17305072D01*
X15701071Y-17276500D01*
X15672500Y-17262214D01*
X15629643Y-17262214D01*
X15601071Y-17247929D01*
X15586786Y-17219357D01*
X15586786Y-17205072D01*
X15601071Y-17176500D01*
X15629643Y-17162214D01*
X15672500Y-17162214D01*
X15701071Y-17176500D01*
X15815357Y-17476500D02*
X15829643Y-17462214D01*
X15858214Y-17419357D01*
X15872500Y-17390786D01*
X15886786Y-17347929D01*
X15901071Y-17276500D01*
X15901071Y-17219357D01*
X15886786Y-17147929D01*
X15872500Y-17105072D01*
X15858214Y-17076500D01*
X15829643Y-17033643D01*
X15815357Y-17019357D01*
X8457500Y-17472500D02*
X8757500Y-17772500D01*
X8757500Y-17472500D02*
X8457500Y-17772500D01*
X8757500Y-17622500D02*
G75*
G03*
X8757500Y-17622500I-150000J0D01*
G01*
X9015357Y-17458214D02*
X9201071Y-17458214D01*
X9101071Y-17572500D01*
X9143928Y-17572500D01*
X9172500Y-17586786D01*
X9186786Y-17601072D01*
X9201071Y-17629643D01*
X9201071Y-17701072D01*
X9186786Y-17729643D01*
X9172500Y-17743929D01*
X9143928Y-17758214D01*
X9058214Y-17758214D01*
X9029643Y-17743929D01*
X9015357Y-17729643D01*
X9329643Y-17729643D02*
X9343928Y-17743929D01*
X9329643Y-17758214D01*
X9315357Y-17743929D01*
X9329643Y-17729643D01*
X9329643Y-17758214D01*
X9529643Y-17458214D02*
X9558214Y-17458214D01*
X9586786Y-17472500D01*
X9601071Y-17486786D01*
X9615357Y-17515357D01*
X9629643Y-17572500D01*
X9629643Y-17643929D01*
X9615357Y-17701072D01*
X9601071Y-17729643D01*
X9586786Y-17743929D01*
X9558214Y-17758214D01*
X9529643Y-17758214D01*
X9501071Y-17743929D01*
X9486786Y-17729643D01*
X9472500Y-17701072D01*
X9458214Y-17643929D01*
X9458214Y-17572500D01*
X9472500Y-17515357D01*
X9486786Y-17486786D01*
X9501071Y-17472500D01*
X9529643Y-17458214D01*
X9815357Y-17458214D02*
X9843928Y-17458214D01*
X9872500Y-17472500D01*
X9886786Y-17486786D01*
X9901071Y-17515357D01*
X9915357Y-17572500D01*
X9915357Y-17643929D01*
X9901071Y-17701072D01*
X9886786Y-17729643D01*
X9872500Y-17743929D01*
X9843928Y-17758214D01*
X9815357Y-17758214D01*
X9786786Y-17743929D01*
X9772500Y-17729643D01*
X9758214Y-17701072D01*
X9743928Y-17643929D01*
X9743928Y-17572500D01*
X9758214Y-17515357D01*
X9772500Y-17486786D01*
X9786786Y-17472500D01*
X9815357Y-17458214D01*
X10101071Y-17458214D02*
X10129643Y-17458214D01*
X10158214Y-17472500D01*
X10172500Y-17486786D01*
X10186786Y-17515357D01*
X10201071Y-17572500D01*
X10201071Y-17643929D01*
X10186786Y-17701072D01*
X10172500Y-17729643D01*
X10158214Y-17743929D01*
X10129643Y-17758214D01*
X10101071Y-17758214D01*
X10072500Y-17743929D01*
X10058214Y-17729643D01*
X10043928Y-17701072D01*
X10029643Y-17643929D01*
X10029643Y-17572500D01*
X10043928Y-17515357D01*
X10058214Y-17486786D01*
X10072500Y-17472500D01*
X10101071Y-17458214D01*
X10329643Y-17758214D02*
X10329643Y-17558214D01*
X10329643Y-17586786D02*
X10343928Y-17572500D01*
X10372500Y-17558214D01*
X10415357Y-17558214D01*
X10443928Y-17572500D01*
X10458214Y-17601072D01*
X10458214Y-17758214D01*
X10458214Y-17601072D02*
X10472500Y-17572500D01*
X10501071Y-17558214D01*
X10543928Y-17558214D01*
X10572500Y-17572500D01*
X10586786Y-17601072D01*
X10586786Y-17758214D01*
X10729643Y-17758214D02*
X10729643Y-17558214D01*
X10729643Y-17586786D02*
X10743928Y-17572500D01*
X10772500Y-17558214D01*
X10815357Y-17558214D01*
X10843928Y-17572500D01*
X10858214Y-17601072D01*
X10858214Y-17758214D01*
X10858214Y-17601072D02*
X10872500Y-17572500D01*
X10901071Y-17558214D01*
X10943928Y-17558214D01*
X10972500Y-17572500D01*
X10986786Y-17601072D01*
X10986786Y-17758214D01*
X11572500Y-17443929D02*
X11315357Y-17829643D01*
X11958214Y-17458214D02*
X11986786Y-17458214D01*
X12015357Y-17472500D01*
X12029643Y-17486786D01*
X12043928Y-17515357D01*
X12058214Y-17572500D01*
X12058214Y-17643929D01*
X12043928Y-17701072D01*
X12029643Y-17729643D01*
X12015357Y-17743929D01*
X11986786Y-17758214D01*
X11958214Y-17758214D01*
X11929643Y-17743929D01*
X11915357Y-17729643D01*
X11901071Y-17701072D01*
X11886786Y-17643929D01*
X11886786Y-17572500D01*
X11901071Y-17515357D01*
X11915357Y-17486786D01*
X11929643Y-17472500D01*
X11958214Y-17458214D01*
X12186786Y-17729643D02*
X12201071Y-17743929D01*
X12186786Y-17758214D01*
X12172500Y-17743929D01*
X12186786Y-17729643D01*
X12186786Y-17758214D01*
X12486786Y-17758214D02*
X12315357Y-17758214D01*
X12401071Y-17758214D02*
X12401071Y-17458214D01*
X12372500Y-17501072D01*
X12343928Y-17529643D01*
X12315357Y-17543929D01*
X12772500Y-17758214D02*
X12601071Y-17758214D01*
X12686786Y-17758214D02*
X12686786Y-17458214D01*
X12658214Y-17501072D01*
X12629643Y-17529643D01*
X12601071Y-17543929D01*
X12943928Y-17586786D02*
X12915357Y-17572500D01*
X12901071Y-17558214D01*
X12886786Y-17529643D01*
X12886786Y-17515357D01*
X12901071Y-17486786D01*
X12915357Y-17472500D01*
X12943928Y-17458214D01*
X13001071Y-17458214D01*
X13029643Y-17472500D01*
X13043928Y-17486786D01*
X13058214Y-17515357D01*
X13058214Y-17529643D01*
X13043928Y-17558214D01*
X13029643Y-17572500D01*
X13001071Y-17586786D01*
X12943928Y-17586786D01*
X12915357Y-17601072D01*
X12901071Y-17615357D01*
X12886786Y-17643929D01*
X12886786Y-17701072D01*
X12901071Y-17729643D01*
X12915357Y-17743929D01*
X12943928Y-17758214D01*
X13001071Y-17758214D01*
X13029643Y-17743929D01*
X13043928Y-17729643D01*
X13058214Y-17701072D01*
X13058214Y-17643929D01*
X13043928Y-17615357D01*
X13029643Y-17601072D01*
X13001071Y-17586786D01*
X13343928Y-17758214D02*
X13172500Y-17758214D01*
X13258214Y-17758214D02*
X13258214Y-17458214D01*
X13229643Y-17501072D01*
X13201071Y-17529643D01*
X13172500Y-17543929D01*
X13458214Y-17458214D02*
X13458214Y-17515357D01*
X13572500Y-17458214D02*
X13572500Y-17515357D01*
X14015357Y-17872500D02*
X14001071Y-17858214D01*
X13972500Y-17815357D01*
X13958214Y-17786786D01*
X13943928Y-17743929D01*
X13929643Y-17672500D01*
X13929643Y-17615357D01*
X13943928Y-17543929D01*
X13958214Y-17501072D01*
X13972500Y-17472500D01*
X14001071Y-17429643D01*
X14015357Y-17415357D01*
X14115357Y-17486786D02*
X14129643Y-17472500D01*
X14158214Y-17458214D01*
X14229643Y-17458214D01*
X14258214Y-17472500D01*
X14272500Y-17486786D01*
X14286786Y-17515357D01*
X14286786Y-17543929D01*
X14272500Y-17586786D01*
X14101071Y-17758214D01*
X14286786Y-17758214D01*
X14643928Y-17758214D02*
X14643928Y-17458214D01*
X14772500Y-17758214D02*
X14772500Y-17601072D01*
X14758214Y-17572500D01*
X14729643Y-17558214D01*
X14686786Y-17558214D01*
X14658214Y-17572500D01*
X14643928Y-17586786D01*
X14958214Y-17758214D02*
X14929643Y-17743929D01*
X14915357Y-17729643D01*
X14901071Y-17701072D01*
X14901071Y-17615357D01*
X14915357Y-17586786D01*
X14929643Y-17572500D01*
X14958214Y-17558214D01*
X15001071Y-17558214D01*
X15029643Y-17572500D01*
X15043928Y-17586786D01*
X15058214Y-17615357D01*
X15058214Y-17701072D01*
X15043928Y-17729643D01*
X15029643Y-17743929D01*
X15001071Y-17758214D01*
X14958214Y-17758214D01*
X15229643Y-17758214D02*
X15201071Y-17743929D01*
X15186786Y-17715357D01*
X15186786Y-17458214D01*
X15458214Y-17743929D02*
X15429643Y-17758214D01*
X15372500Y-17758214D01*
X15343928Y-17743929D01*
X15329643Y-17715357D01*
X15329643Y-17601072D01*
X15343928Y-17572500D01*
X15372500Y-17558214D01*
X15429643Y-17558214D01*
X15458214Y-17572500D01*
X15472500Y-17601072D01*
X15472500Y-17629643D01*
X15329643Y-17658214D01*
X15586786Y-17743929D02*
X15615357Y-17758214D01*
X15672500Y-17758214D01*
X15701071Y-17743929D01*
X15715357Y-17715357D01*
X15715357Y-17701072D01*
X15701071Y-17672500D01*
X15672500Y-17658214D01*
X15629643Y-17658214D01*
X15601071Y-17643929D01*
X15586786Y-17615357D01*
X15586786Y-17601072D01*
X15601071Y-17572500D01*
X15629643Y-17558214D01*
X15672500Y-17558214D01*
X15701071Y-17572500D01*
X15815357Y-17872500D02*
X15829643Y-17858214D01*
X15858214Y-17815357D01*
X15872500Y-17786786D01*
X15886786Y-17743929D01*
X15901071Y-17672500D01*
X15901071Y-17615357D01*
X15886786Y-17543929D01*
X15872500Y-17501072D01*
X15858214Y-17472500D01*
X15829643Y-17429643D01*
X15815357Y-17415357D01*
X8457500Y-17902500D02*
X8757500Y-18202500D01*
X8757500Y-17902500D02*
X8457500Y-18202500D01*
X8607500Y-17902500D02*
X8607500Y-18202500D01*
X8457500Y-18052500D02*
X8757500Y-18052500D01*
X9015357Y-17888214D02*
X9201071Y-17888214D01*
X9101071Y-18002500D01*
X9143928Y-18002500D01*
X9172500Y-18016786D01*
X9186786Y-18031071D01*
X9201071Y-18059643D01*
X9201071Y-18131071D01*
X9186786Y-18159643D01*
X9172500Y-18173929D01*
X9143928Y-18188214D01*
X9058214Y-18188214D01*
X9029643Y-18173929D01*
X9015357Y-18159643D01*
X9329643Y-18159643D02*
X9343928Y-18173929D01*
X9329643Y-18188214D01*
X9315357Y-18173929D01*
X9329643Y-18159643D01*
X9329643Y-18188214D01*
X9529643Y-17888214D02*
X9558214Y-17888214D01*
X9586786Y-17902500D01*
X9601071Y-17916786D01*
X9615357Y-17945357D01*
X9629643Y-18002500D01*
X9629643Y-18073929D01*
X9615357Y-18131071D01*
X9601071Y-18159643D01*
X9586786Y-18173929D01*
X9558214Y-18188214D01*
X9529643Y-18188214D01*
X9501071Y-18173929D01*
X9486786Y-18159643D01*
X9472500Y-18131071D01*
X9458214Y-18073929D01*
X9458214Y-18002500D01*
X9472500Y-17945357D01*
X9486786Y-17916786D01*
X9501071Y-17902500D01*
X9529643Y-17888214D01*
X9815357Y-17888214D02*
X9843928Y-17888214D01*
X9872500Y-17902500D01*
X9886786Y-17916786D01*
X9901071Y-17945357D01*
X9915357Y-18002500D01*
X9915357Y-18073929D01*
X9901071Y-18131071D01*
X9886786Y-18159643D01*
X9872500Y-18173929D01*
X9843928Y-18188214D01*
X9815357Y-18188214D01*
X9786786Y-18173929D01*
X9772500Y-18159643D01*
X9758214Y-18131071D01*
X9743928Y-18073929D01*
X9743928Y-18002500D01*
X9758214Y-17945357D01*
X9772500Y-17916786D01*
X9786786Y-17902500D01*
X9815357Y-17888214D01*
X10101071Y-17888214D02*
X10129643Y-17888214D01*
X10158214Y-17902500D01*
X10172500Y-17916786D01*
X10186786Y-17945357D01*
X10201071Y-18002500D01*
X10201071Y-18073929D01*
X10186786Y-18131071D01*
X10172500Y-18159643D01*
X10158214Y-18173929D01*
X10129643Y-18188214D01*
X10101071Y-18188214D01*
X10072500Y-18173929D01*
X10058214Y-18159643D01*
X10043928Y-18131071D01*
X10029643Y-18073929D01*
X10029643Y-18002500D01*
X10043928Y-17945357D01*
X10058214Y-17916786D01*
X10072500Y-17902500D01*
X10101071Y-17888214D01*
X10329643Y-18188214D02*
X10329643Y-17988214D01*
X10329643Y-18016786D02*
X10343928Y-18002500D01*
X10372500Y-17988214D01*
X10415357Y-17988214D01*
X10443928Y-18002500D01*
X10458214Y-18031071D01*
X10458214Y-18188214D01*
X10458214Y-18031071D02*
X10472500Y-18002500D01*
X10501071Y-17988214D01*
X10543928Y-17988214D01*
X10572500Y-18002500D01*
X10586786Y-18031071D01*
X10586786Y-18188214D01*
X10729643Y-18188214D02*
X10729643Y-17988214D01*
X10729643Y-18016786D02*
X10743928Y-18002500D01*
X10772500Y-17988214D01*
X10815357Y-17988214D01*
X10843928Y-18002500D01*
X10858214Y-18031071D01*
X10858214Y-18188214D01*
X10858214Y-18031071D02*
X10872500Y-18002500D01*
X10901071Y-17988214D01*
X10943928Y-17988214D01*
X10972500Y-18002500D01*
X10986786Y-18031071D01*
X10986786Y-18188214D01*
X11572500Y-17873929D02*
X11315357Y-18259643D01*
X11958214Y-17888214D02*
X11986786Y-17888214D01*
X12015357Y-17902500D01*
X12029643Y-17916786D01*
X12043928Y-17945357D01*
X12058214Y-18002500D01*
X12058214Y-18073929D01*
X12043928Y-18131071D01*
X12029643Y-18159643D01*
X12015357Y-18173929D01*
X11986786Y-18188214D01*
X11958214Y-18188214D01*
X11929643Y-18173929D01*
X11915357Y-18159643D01*
X11901071Y-18131071D01*
X11886786Y-18073929D01*
X11886786Y-18002500D01*
X11901071Y-17945357D01*
X11915357Y-17916786D01*
X11929643Y-17902500D01*
X11958214Y-17888214D01*
X12186786Y-18159643D02*
X12201071Y-18173929D01*
X12186786Y-18188214D01*
X12172500Y-18173929D01*
X12186786Y-18159643D01*
X12186786Y-18188214D01*
X12486786Y-18188214D02*
X12315357Y-18188214D01*
X12401071Y-18188214D02*
X12401071Y-17888214D01*
X12372500Y-17931071D01*
X12343928Y-17959643D01*
X12315357Y-17973929D01*
X12772500Y-18188214D02*
X12601071Y-18188214D01*
X12686786Y-18188214D02*
X12686786Y-17888214D01*
X12658214Y-17931071D01*
X12629643Y-17959643D01*
X12601071Y-17973929D01*
X12943928Y-18016786D02*
X12915357Y-18002500D01*
X12901071Y-17988214D01*
X12886786Y-17959643D01*
X12886786Y-17945357D01*
X12901071Y-17916786D01*
X12915357Y-17902500D01*
X12943928Y-17888214D01*
X13001071Y-17888214D01*
X13029643Y-17902500D01*
X13043928Y-17916786D01*
X13058214Y-17945357D01*
X13058214Y-17959643D01*
X13043928Y-17988214D01*
X13029643Y-18002500D01*
X13001071Y-18016786D01*
X12943928Y-18016786D01*
X12915357Y-18031071D01*
X12901071Y-18045357D01*
X12886786Y-18073929D01*
X12886786Y-18131071D01*
X12901071Y-18159643D01*
X12915357Y-18173929D01*
X12943928Y-18188214D01*
X13001071Y-18188214D01*
X13029643Y-18173929D01*
X13043928Y-18159643D01*
X13058214Y-18131071D01*
X13058214Y-18073929D01*
X13043928Y-18045357D01*
X13029643Y-18031071D01*
X13001071Y-18016786D01*
X13343928Y-18188214D02*
X13172500Y-18188214D01*
X13258214Y-18188214D02*
X13258214Y-17888214D01*
X13229643Y-17931071D01*
X13201071Y-17959643D01*
X13172500Y-17973929D01*
X13458214Y-17888214D02*
X13458214Y-17945357D01*
X13572500Y-17888214D02*
X13572500Y-17945357D01*
X14015357Y-18302500D02*
X14001071Y-18288214D01*
X13972500Y-18245357D01*
X13958214Y-18216786D01*
X13943928Y-18173929D01*
X13929643Y-18102500D01*
X13929643Y-18045357D01*
X13943928Y-17973929D01*
X13958214Y-17931071D01*
X13972500Y-17902500D01*
X14001071Y-17859643D01*
X14015357Y-17845357D01*
X14115357Y-17916786D02*
X14129643Y-17902500D01*
X14158214Y-17888214D01*
X14229643Y-17888214D01*
X14258214Y-17902500D01*
X14272500Y-17916786D01*
X14286786Y-17945357D01*
X14286786Y-17973929D01*
X14272500Y-18016786D01*
X14101071Y-18188214D01*
X14286786Y-18188214D01*
X14643928Y-18188214D02*
X14643928Y-17888214D01*
X14772500Y-18188214D02*
X14772500Y-18031071D01*
X14758214Y-18002500D01*
X14729643Y-17988214D01*
X14686786Y-17988214D01*
X14658214Y-18002500D01*
X14643928Y-18016786D01*
X14958214Y-18188214D02*
X14929643Y-18173929D01*
X14915357Y-18159643D01*
X14901071Y-18131071D01*
X14901071Y-18045357D01*
X14915357Y-18016786D01*
X14929643Y-18002500D01*
X14958214Y-17988214D01*
X15001071Y-17988214D01*
X15029643Y-18002500D01*
X15043928Y-18016786D01*
X15058214Y-18045357D01*
X15058214Y-18131071D01*
X15043928Y-18159643D01*
X15029643Y-18173929D01*
X15001071Y-18188214D01*
X14958214Y-18188214D01*
X15229643Y-18188214D02*
X15201071Y-18173929D01*
X15186786Y-18145357D01*
X15186786Y-17888214D01*
X15458214Y-18173929D02*
X15429643Y-18188214D01*
X15372500Y-18188214D01*
X15343928Y-18173929D01*
X15329643Y-18145357D01*
X15329643Y-18031071D01*
X15343928Y-18002500D01*
X15372500Y-17988214D01*
X15429643Y-17988214D01*
X15458214Y-18002500D01*
X15472500Y-18031071D01*
X15472500Y-18059643D01*
X15329643Y-18088214D01*
X15586786Y-18173929D02*
X15615357Y-18188214D01*
X15672500Y-18188214D01*
X15701071Y-18173929D01*
X15715357Y-18145357D01*
X15715357Y-18131071D01*
X15701071Y-18102500D01*
X15672500Y-18088214D01*
X15629643Y-18088214D01*
X15601071Y-18073929D01*
X15586786Y-18045357D01*
X15586786Y-18031071D01*
X15601071Y-18002500D01*
X15629643Y-17988214D01*
X15672500Y-17988214D01*
X15701071Y-18002500D01*
X15815357Y-18302500D02*
X15829643Y-18288214D01*
X15858214Y-18245357D01*
X15872500Y-18216786D01*
X15886786Y-18173929D01*
X15901071Y-18102500D01*
X15901071Y-18045357D01*
X15886786Y-17973929D01*
X15872500Y-17931071D01*
X15858214Y-17902500D01*
X15829643Y-17859643D01*
X15815357Y-17845357D01*
M02*
