G04 #@! TF.GenerationSoftware,KiCad,Pcbnew,(5.1.10)-1*
G04 #@! TF.CreationDate,2021-06-01T12:55:43+02:00*
G04 #@! TF.ProjectId,overvolt,6f766572-766f-46c7-942e-6b696361645f,rev?*
G04 #@! TF.SameCoordinates,Original*
G04 #@! TF.FileFunction,Soldermask,Top*
G04 #@! TF.FilePolarity,Negative*
%FSLAX46Y46*%
G04 Gerber Fmt 4.6, Leading zero omitted, Abs format (unit mm)*
G04 Created by KiCad (PCBNEW (5.1.10)-1) date 2021-06-01 12:55:43*
%MOMM*%
%LPD*%
G01*
G04 APERTURE LIST*
%ADD10C,1.902000*%
%ADD11O,1.702000X1.702000*%
%ADD12O,1.902000X1.902000*%
%ADD13O,1.802000X1.802000*%
%ADD14C,0.100000*%
%ADD15C,1.702000*%
%ADD16C,1.722000*%
%ADD17C,2.602000*%
%ADD18C,3.102000*%
%ADD19C,2.802000*%
G04 APERTURE END LIST*
G36*
G01*
X122351000Y-132500000D02*
X122351000Y-134300000D01*
G75*
G02*
X122300000Y-134351000I-51000J0D01*
G01*
X120500000Y-134351000D01*
G75*
G02*
X120449000Y-134300000I0J51000D01*
G01*
X120449000Y-132500000D01*
G75*
G02*
X120500000Y-132449000I51000J0D01*
G01*
X122300000Y-132449000D01*
G75*
G02*
X122351000Y-132500000I0J-51000D01*
G01*
G37*
D10*
X118860000Y-133400000D03*
G36*
G01*
X98949000Y-126600000D02*
X98949000Y-125000000D01*
G75*
G02*
X99000000Y-124949000I51000J0D01*
G01*
X100600000Y-124949000D01*
G75*
G02*
X100651000Y-125000000I0J-51000D01*
G01*
X100651000Y-126600000D01*
G75*
G02*
X100600000Y-126651000I-51000J0D01*
G01*
X99000000Y-126651000D01*
G75*
G02*
X98949000Y-126600000I0J51000D01*
G01*
G37*
D11*
X107420000Y-133420000D03*
X99800000Y-128340000D03*
X107420000Y-130880000D03*
X99800000Y-130880000D03*
X107420000Y-128340000D03*
X99800000Y-133420000D03*
X107420000Y-125800000D03*
G36*
G01*
X127900000Y-127351000D02*
X126100000Y-127351000D01*
G75*
G02*
X126049000Y-127300000I0J51000D01*
G01*
X126049000Y-125500000D01*
G75*
G02*
X126100000Y-125449000I51000J0D01*
G01*
X127900000Y-125449000D01*
G75*
G02*
X127951000Y-125500000I0J-51000D01*
G01*
X127951000Y-127300000D01*
G75*
G02*
X127900000Y-127351000I-51000J0D01*
G01*
G37*
D12*
X127000000Y-123860000D03*
X127000000Y-121320000D03*
G36*
G01*
X122501000Y-126550000D02*
X122501000Y-128250000D01*
G75*
G02*
X122450000Y-128301000I-51000J0D01*
G01*
X120750000Y-128301000D01*
G75*
G02*
X120699000Y-128250000I0J51000D01*
G01*
X120699000Y-126550000D01*
G75*
G02*
X120750000Y-126499000I51000J0D01*
G01*
X122450000Y-126499000D01*
G75*
G02*
X122501000Y-126550000I0J-51000D01*
G01*
G37*
D13*
X121600000Y-124860000D03*
D14*
G36*
X115056112Y-120399602D02*
G01*
X115074534Y-120399602D01*
X115079533Y-120399848D01*
X115128364Y-120404658D01*
X115133314Y-120405392D01*
X115181439Y-120414964D01*
X115186295Y-120416180D01*
X115233250Y-120430424D01*
X115237961Y-120432110D01*
X115283294Y-120450887D01*
X115287820Y-120453027D01*
X115331093Y-120476158D01*
X115335384Y-120478731D01*
X115376183Y-120505991D01*
X115380204Y-120508973D01*
X115418133Y-120540101D01*
X115421841Y-120543462D01*
X115456538Y-120578159D01*
X115459899Y-120581867D01*
X115491027Y-120619796D01*
X115494009Y-120623817D01*
X115521269Y-120664616D01*
X115523842Y-120668907D01*
X115546973Y-120712180D01*
X115549113Y-120716706D01*
X115567890Y-120762039D01*
X115569576Y-120766750D01*
X115583820Y-120813705D01*
X115585036Y-120818561D01*
X115594608Y-120866686D01*
X115595342Y-120871636D01*
X115600152Y-120920467D01*
X115600398Y-120925466D01*
X115600398Y-120943888D01*
X115601000Y-120950000D01*
X115601000Y-121450000D01*
X115600398Y-121456112D01*
X115600398Y-121474534D01*
X115600152Y-121479533D01*
X115595342Y-121528364D01*
X115594608Y-121533314D01*
X115585036Y-121581439D01*
X115583820Y-121586295D01*
X115569576Y-121633250D01*
X115567890Y-121637961D01*
X115549113Y-121683294D01*
X115546973Y-121687820D01*
X115523842Y-121731093D01*
X115521269Y-121735384D01*
X115494009Y-121776183D01*
X115491027Y-121780204D01*
X115459899Y-121818133D01*
X115456538Y-121821841D01*
X115421841Y-121856538D01*
X115418133Y-121859899D01*
X115380204Y-121891027D01*
X115376183Y-121894009D01*
X115335384Y-121921269D01*
X115331093Y-121923842D01*
X115287820Y-121946973D01*
X115283294Y-121949113D01*
X115237961Y-121967890D01*
X115233250Y-121969576D01*
X115186295Y-121983820D01*
X115181439Y-121985036D01*
X115133314Y-121994608D01*
X115128364Y-121995342D01*
X115079533Y-122000152D01*
X115074534Y-122000398D01*
X115056112Y-122000398D01*
X115050000Y-122001000D01*
X114550000Y-122001000D01*
X114540050Y-122000020D01*
X114530483Y-121997118D01*
X114521666Y-121992405D01*
X114513938Y-121986062D01*
X114507595Y-121978334D01*
X114502882Y-121969517D01*
X114499980Y-121959950D01*
X114499000Y-121950000D01*
X114499000Y-120450000D01*
X114499980Y-120440050D01*
X114502882Y-120430483D01*
X114507595Y-120421666D01*
X114513938Y-120413938D01*
X114521666Y-120407595D01*
X114530483Y-120402882D01*
X114540050Y-120399980D01*
X114550000Y-120399000D01*
X115050000Y-120399000D01*
X115056112Y-120399602D01*
G37*
G36*
X114259950Y-120399980D02*
G01*
X114269517Y-120402882D01*
X114278334Y-120407595D01*
X114286062Y-120413938D01*
X114292405Y-120421666D01*
X114297118Y-120430483D01*
X114300020Y-120440050D01*
X114301000Y-120450000D01*
X114301000Y-121950000D01*
X114300020Y-121959950D01*
X114297118Y-121969517D01*
X114292405Y-121978334D01*
X114286062Y-121986062D01*
X114278334Y-121992405D01*
X114269517Y-121997118D01*
X114259950Y-122000020D01*
X114250000Y-122001000D01*
X113750000Y-122001000D01*
X113743888Y-122000398D01*
X113725466Y-122000398D01*
X113720467Y-122000152D01*
X113671636Y-121995342D01*
X113666686Y-121994608D01*
X113618561Y-121985036D01*
X113613705Y-121983820D01*
X113566750Y-121969576D01*
X113562039Y-121967890D01*
X113516706Y-121949113D01*
X113512180Y-121946973D01*
X113468907Y-121923842D01*
X113464616Y-121921269D01*
X113423817Y-121894009D01*
X113419796Y-121891027D01*
X113381867Y-121859899D01*
X113378159Y-121856538D01*
X113343462Y-121821841D01*
X113340101Y-121818133D01*
X113308973Y-121780204D01*
X113305991Y-121776183D01*
X113278731Y-121735384D01*
X113276158Y-121731093D01*
X113253027Y-121687820D01*
X113250887Y-121683294D01*
X113232110Y-121637961D01*
X113230424Y-121633250D01*
X113216180Y-121586295D01*
X113214964Y-121581439D01*
X113205392Y-121533314D01*
X113204658Y-121528364D01*
X113199848Y-121479533D01*
X113199602Y-121474534D01*
X113199602Y-121456112D01*
X113199000Y-121450000D01*
X113199000Y-120950000D01*
X113199602Y-120943888D01*
X113199602Y-120925466D01*
X113199848Y-120920467D01*
X113204658Y-120871636D01*
X113205392Y-120866686D01*
X113214964Y-120818561D01*
X113216180Y-120813705D01*
X113230424Y-120766750D01*
X113232110Y-120762039D01*
X113250887Y-120716706D01*
X113253027Y-120712180D01*
X113276158Y-120668907D01*
X113278731Y-120664616D01*
X113305991Y-120623817D01*
X113308973Y-120619796D01*
X113340101Y-120581867D01*
X113343462Y-120578159D01*
X113378159Y-120543462D01*
X113381867Y-120540101D01*
X113419796Y-120508973D01*
X113423817Y-120505991D01*
X113464616Y-120478731D01*
X113468907Y-120476158D01*
X113512180Y-120453027D01*
X113516706Y-120450887D01*
X113562039Y-120432110D01*
X113566750Y-120430424D01*
X113613705Y-120416180D01*
X113618561Y-120414964D01*
X113666686Y-120405392D01*
X113671636Y-120404658D01*
X113720467Y-120399848D01*
X113725466Y-120399602D01*
X113743888Y-120399602D01*
X113750000Y-120399000D01*
X114250000Y-120399000D01*
X114259950Y-120399980D01*
G37*
G36*
G01*
X100051000Y-120400000D02*
X100051000Y-122000000D01*
G75*
G02*
X100000000Y-122051000I-51000J0D01*
G01*
X98400000Y-122051000D01*
G75*
G02*
X98349000Y-122000000I0J51000D01*
G01*
X98349000Y-120400000D01*
G75*
G02*
X98400000Y-120349000I51000J0D01*
G01*
X100000000Y-120349000D01*
G75*
G02*
X100051000Y-120400000I0J-51000D01*
G01*
G37*
D15*
X96700000Y-121200000D03*
D16*
X110600000Y-128400000D03*
X115600000Y-130900000D03*
X110600000Y-133400000D03*
D15*
X121800000Y-144600000D03*
D11*
X121800000Y-136980000D03*
D15*
X118200000Y-124800000D03*
D11*
X110580000Y-124800000D03*
D15*
X125400000Y-144600000D03*
D11*
X125400000Y-136980000D03*
G36*
G01*
X91350000Y-125899000D02*
X93850000Y-125899000D01*
G75*
G02*
X93901000Y-125950000I0J-51000D01*
G01*
X93901000Y-128450000D01*
G75*
G02*
X93850000Y-128501000I-51000J0D01*
G01*
X91350000Y-128501000D01*
G75*
G02*
X91299000Y-128450000I0J51000D01*
G01*
X91299000Y-125950000D01*
G75*
G02*
X91350000Y-125899000I51000J0D01*
G01*
G37*
D17*
X92600000Y-132200000D03*
G36*
G01*
X137250000Y-133501000D02*
X134750000Y-133501000D01*
G75*
G02*
X134699000Y-133450000I0J51000D01*
G01*
X134699000Y-130950000D01*
G75*
G02*
X134750000Y-130899000I51000J0D01*
G01*
X137250000Y-130899000D01*
G75*
G02*
X137301000Y-130950000I0J-51000D01*
G01*
X137301000Y-133450000D01*
G75*
G02*
X137250000Y-133501000I-51000J0D01*
G01*
G37*
X136000000Y-127200000D03*
D18*
X95400000Y-141600000D03*
X117900000Y-141600000D03*
D19*
X106650000Y-141600000D03*
G36*
G01*
X123649000Y-134300000D02*
X123649000Y-132500000D01*
G75*
G02*
X123700000Y-132449000I51000J0D01*
G01*
X125500000Y-132449000D01*
G75*
G02*
X125551000Y-132500000I0J-51000D01*
G01*
X125551000Y-134300000D01*
G75*
G02*
X125500000Y-134351000I-51000J0D01*
G01*
X123700000Y-134351000D01*
G75*
G02*
X123649000Y-134300000I0J51000D01*
G01*
G37*
D10*
X127140000Y-133400000D03*
G36*
G01*
X103349000Y-122000000D02*
X103349000Y-120400000D01*
G75*
G02*
X103400000Y-120349000I51000J0D01*
G01*
X105000000Y-120349000D01*
G75*
G02*
X105051000Y-120400000I0J-51000D01*
G01*
X105051000Y-122000000D01*
G75*
G02*
X105000000Y-122051000I-51000J0D01*
G01*
X103400000Y-122051000D01*
G75*
G02*
X103349000Y-122000000I0J51000D01*
G01*
G37*
D15*
X106700000Y-121200000D03*
D14*
G36*
X114295405Y-120423117D02*
G01*
X114296334Y-120424249D01*
X114296451Y-120424407D01*
X114304929Y-120437096D01*
X114321976Y-120454143D01*
X114342024Y-120467538D01*
X114364298Y-120476764D01*
X114387948Y-120481468D01*
X114412054Y-120481468D01*
X114435704Y-120476763D01*
X114457978Y-120467537D01*
X114478025Y-120454142D01*
X114495072Y-120437095D01*
X114503550Y-120424407D01*
X114503667Y-120424249D01*
X114504593Y-120423121D01*
X114506465Y-120422417D01*
X114508011Y-120423686D01*
X114507903Y-120425333D01*
X114504739Y-120431252D01*
X114501950Y-120440445D01*
X114501000Y-120450094D01*
X114501000Y-121949906D01*
X114501950Y-121959555D01*
X114504739Y-121968748D01*
X114507905Y-121974671D01*
X114507839Y-121976670D01*
X114506076Y-121977613D01*
X114504595Y-121976883D01*
X114503666Y-121975751D01*
X114503549Y-121975593D01*
X114495071Y-121962904D01*
X114478024Y-121945857D01*
X114457976Y-121932462D01*
X114435702Y-121923236D01*
X114412052Y-121918532D01*
X114387946Y-121918532D01*
X114364296Y-121923237D01*
X114342022Y-121932463D01*
X114321975Y-121945858D01*
X114304928Y-121962905D01*
X114296450Y-121975593D01*
X114296333Y-121975751D01*
X114295407Y-121976879D01*
X114293535Y-121977583D01*
X114291989Y-121976314D01*
X114292097Y-121974667D01*
X114295261Y-121968748D01*
X114298050Y-121959555D01*
X114299000Y-121949906D01*
X114299000Y-120450094D01*
X114298050Y-120440445D01*
X114295261Y-120431252D01*
X114292095Y-120425329D01*
X114292161Y-120423330D01*
X114293924Y-120422387D01*
X114295405Y-120423117D01*
G37*
M02*
