M48
; DRILL file {KiCad (5.1.10)-1} date 06/01/21 12:55:46
; FORMAT={-:-/ absolute / inch / decimal}
; #@! TF.CreationDate,2021-06-01T12:55:46+02:00
; #@! TF.GenerationSoftware,Kicad,Pcbnew,(5.1.10)-1
; #@! TF.FileFunction,Plated,1,2,PTH
FMAT,2
INCH
T1C0.0300
T2C0.0315
T3C0.0354
T4C0.0394
T5C0.0512
T6C0.1181
T7C0.1181
%
G90
G05
T1
X3.6457Y-4.7717
X3.8819Y-5.4252
X3.8819Y-5.5748
X4.0079Y-4.8268
X4.0709Y-5.1024
X4.2835Y-4.8346
X4.3937Y-5.4331
X4.3937Y-5.5827
X4.4646Y-4.9685
X4.6772Y-5.4567
X4.6772Y-5.7087
X4.8976Y-4.9213
X4.9213Y-4.7874
X5.0Y-4.6772
X5.0157Y-5.3701
X5.0394Y-5.7008
X5.0945Y-4.9843
X5.2441Y-4.8031
X5.2677Y-5.4016
T2
X3.8071Y-4.7717
X3.9055Y-4.7717
X3.9291Y-4.9528
X3.9291Y-5.0528
X3.9291Y-5.1528
X3.9291Y-5.2528
X4.1024Y-4.7717
X4.2008Y-4.7717
X4.2291Y-4.9528
X4.2291Y-5.0528
X4.2291Y-5.1528
X4.2291Y-5.2528
X4.3535Y-4.9134
X4.6535Y-4.9134
X4.7953Y-5.3929
X4.7953Y-5.6929
X4.937Y-5.3929
X4.937Y-5.6929
T3
X4.3543Y-5.0551
X4.3543Y-5.252
X4.5512Y-5.1535
X4.6795Y-5.252
X4.7795Y-5.252
X4.9055Y-5.252
X5.0055Y-5.252
T4
X4.7874Y-4.9157
X4.7874Y-5.0157
X5.0Y-4.7764
X5.0Y-4.8764
X5.0Y-4.9764
T5
X3.6457Y-5.0079
X3.6457Y-5.2047
X3.7559Y-5.5748
X4.6417Y-5.5748
X5.3543Y-5.0079
X5.3543Y-5.2047
T6
X3.5512Y-5.685
X5.4567Y-5.685
T7
X3.5512Y-4.6614
X5.4567Y-4.6614
T0
M30
