G04 #@! TF.GenerationSoftware,KiCad,Pcbnew,(5.1.10)-1*
G04 #@! TF.CreationDate,2021-06-01T12:55:43+02:00*
G04 #@! TF.ProjectId,overvolt,6f766572-766f-46c7-942e-6b696361645f,rev?*
G04 #@! TF.SameCoordinates,Original*
G04 #@! TF.FileFunction,Legend,Bot*
G04 #@! TF.FilePolarity,Positive*
%FSLAX46Y46*%
G04 Gerber Fmt 4.6, Leading zero omitted, Abs format (unit mm)*
G04 Created by KiCad (PCBNEW (5.1.10)-1) date 2021-06-01 12:55:43*
%MOMM*%
%LPD*%
G01*
G04 APERTURE LIST*
%ADD10C,0.150000*%
G04 APERTURE END LIST*
D10*
X124114285Y-121252380D02*
X124114285Y-120252380D01*
X123685714Y-121252380D02*
X123685714Y-120728571D01*
X123733333Y-120633333D01*
X123828571Y-120585714D01*
X123971428Y-120585714D01*
X124066666Y-120633333D01*
X124114285Y-120680952D01*
X123352380Y-120585714D02*
X122971428Y-120585714D01*
X123209523Y-120252380D02*
X123209523Y-121109523D01*
X123161904Y-121204761D01*
X123066666Y-121252380D01*
X122971428Y-121252380D01*
X122780952Y-120585714D02*
X122400000Y-120585714D01*
X122638095Y-120252380D02*
X122638095Y-121109523D01*
X122590476Y-121204761D01*
X122495238Y-121252380D01*
X122400000Y-121252380D01*
X122066666Y-120585714D02*
X122066666Y-121585714D01*
X122066666Y-120633333D02*
X121971428Y-120585714D01*
X121780952Y-120585714D01*
X121685714Y-120633333D01*
X121638095Y-120680952D01*
X121590476Y-120776190D01*
X121590476Y-121061904D01*
X121638095Y-121157142D01*
X121685714Y-121204761D01*
X121780952Y-121252380D01*
X121971428Y-121252380D01*
X122066666Y-121204761D01*
X121161904Y-121157142D02*
X121114285Y-121204761D01*
X121161904Y-121252380D01*
X121209523Y-121204761D01*
X121161904Y-121157142D01*
X121161904Y-121252380D01*
X121161904Y-120633333D02*
X121114285Y-120680952D01*
X121161904Y-120728571D01*
X121209523Y-120680952D01*
X121161904Y-120633333D01*
X121161904Y-120728571D01*
X119971428Y-120204761D02*
X120828571Y-121490476D01*
X118923809Y-120204761D02*
X119780952Y-121490476D01*
X118590476Y-120585714D02*
X118590476Y-121585714D01*
X118590476Y-120633333D02*
X118495238Y-120585714D01*
X118304761Y-120585714D01*
X118209523Y-120633333D01*
X118161904Y-120680952D01*
X118114285Y-120776190D01*
X118114285Y-121061904D01*
X118161904Y-121157142D01*
X118209523Y-121204761D01*
X118304761Y-121252380D01*
X118495238Y-121252380D01*
X118590476Y-121204761D01*
X117685714Y-121252380D02*
X117685714Y-120585714D01*
X117685714Y-120252380D02*
X117733333Y-120300000D01*
X117685714Y-120347619D01*
X117638095Y-120300000D01*
X117685714Y-120252380D01*
X117685714Y-120347619D01*
X117066666Y-121252380D02*
X117161904Y-121204761D01*
X117209523Y-121109523D01*
X117209523Y-120252380D01*
X116733333Y-121204761D02*
X116638095Y-121252380D01*
X116447619Y-121252380D01*
X116352380Y-121204761D01*
X116304761Y-121109523D01*
X116304761Y-121061904D01*
X116352380Y-120966666D01*
X116447619Y-120919047D01*
X116590476Y-120919047D01*
X116685714Y-120871428D01*
X116733333Y-120776190D01*
X116733333Y-120728571D01*
X116685714Y-120633333D01*
X116590476Y-120585714D01*
X116447619Y-120585714D01*
X116352380Y-120633333D01*
X115876190Y-121252380D02*
X115876190Y-120252380D01*
X115876190Y-120633333D02*
X115780952Y-120585714D01*
X115590476Y-120585714D01*
X115495238Y-120633333D01*
X115447619Y-120680952D01*
X115400000Y-120776190D01*
X115400000Y-121061904D01*
X115447619Y-121157142D01*
X115495238Y-121204761D01*
X115590476Y-121252380D01*
X115780952Y-121252380D01*
X115876190Y-121204761D01*
X114828571Y-121252380D02*
X114923809Y-121204761D01*
X114971428Y-121157142D01*
X115019047Y-121061904D01*
X115019047Y-120776190D01*
X114971428Y-120680952D01*
X114923809Y-120633333D01*
X114828571Y-120585714D01*
X114685714Y-120585714D01*
X114590476Y-120633333D01*
X114542857Y-120680952D01*
X114495238Y-120776190D01*
X114495238Y-121061904D01*
X114542857Y-121157142D01*
X114590476Y-121204761D01*
X114685714Y-121252380D01*
X114828571Y-121252380D01*
X114209523Y-120585714D02*
X113828571Y-120585714D01*
X114066666Y-120252380D02*
X114066666Y-121109523D01*
X114019047Y-121204761D01*
X113923809Y-121252380D01*
X113828571Y-121252380D01*
X113495238Y-121157142D02*
X113447619Y-121204761D01*
X113495238Y-121252380D01*
X113542857Y-121204761D01*
X113495238Y-121157142D01*
X113495238Y-121252380D01*
X112590476Y-121252380D02*
X112590476Y-120252380D01*
X112590476Y-121204761D02*
X112685714Y-121252380D01*
X112876190Y-121252380D01*
X112971428Y-121204761D01*
X113019047Y-121157142D01*
X113066666Y-121061904D01*
X113066666Y-120776190D01*
X113019047Y-120680952D01*
X112971428Y-120633333D01*
X112876190Y-120585714D01*
X112685714Y-120585714D01*
X112590476Y-120633333D01*
X111733333Y-121204761D02*
X111828571Y-121252380D01*
X112019047Y-121252380D01*
X112114285Y-121204761D01*
X112161904Y-121109523D01*
X112161904Y-120728571D01*
X112114285Y-120633333D01*
X112019047Y-120585714D01*
X111828571Y-120585714D01*
X111733333Y-120633333D01*
X111685714Y-120728571D01*
X111685714Y-120823809D01*
X112161904Y-120919047D01*
X110542857Y-120204761D02*
X111400000Y-121490476D01*
X125227382Y-118978776D02*
X125067457Y-117699376D01*
X124762838Y-117699376D01*
X124587682Y-117760300D01*
X124481065Y-117882147D01*
X124435372Y-118003995D01*
X124404911Y-118247690D01*
X124427757Y-118430461D01*
X124519143Y-118674157D01*
X124595297Y-118796004D01*
X124732376Y-118917852D01*
X124922763Y-118978776D01*
X125227382Y-118978776D01*
X123452976Y-118917852D02*
X123582439Y-118978776D01*
X123826134Y-118978776D01*
X123940366Y-118917852D01*
X123986059Y-118796004D01*
X123925136Y-118308614D01*
X123848981Y-118186766D01*
X123719518Y-118125842D01*
X123475822Y-118125842D01*
X123361590Y-118186766D01*
X123315897Y-118308614D01*
X123331128Y-118430461D01*
X123955597Y-118552309D01*
X122904662Y-118917852D02*
X122790430Y-118978776D01*
X122546734Y-118978776D01*
X122417271Y-118917852D01*
X122341116Y-118796004D01*
X122333501Y-118735080D01*
X122379194Y-118613233D01*
X122493426Y-118552309D01*
X122676197Y-118552309D01*
X122790430Y-118491385D01*
X122836122Y-118369538D01*
X122828507Y-118308614D01*
X122752352Y-118186766D01*
X122622889Y-118125842D01*
X122440118Y-118125842D01*
X122325886Y-118186766D01*
X121815649Y-118978776D02*
X121709032Y-118125842D01*
X121655724Y-117699376D02*
X121724263Y-117760300D01*
X121670955Y-117821223D01*
X121602415Y-117760300D01*
X121655724Y-117699376D01*
X121670955Y-117821223D01*
X120551480Y-118125842D02*
X120680943Y-119161547D01*
X120757097Y-119283395D01*
X120825637Y-119344319D01*
X120955100Y-119405242D01*
X121137871Y-119405242D01*
X121252103Y-119344319D01*
X120650481Y-118917852D02*
X120779944Y-118978776D01*
X121023639Y-118978776D01*
X121137871Y-118917852D01*
X121191180Y-118856928D01*
X121236872Y-118735080D01*
X121191180Y-118369538D01*
X121115025Y-118247690D01*
X121046486Y-118186766D01*
X120917022Y-118125842D01*
X120673327Y-118125842D01*
X120559095Y-118186766D01*
X119942241Y-118125842D02*
X120048858Y-118978776D01*
X119957472Y-118247690D02*
X119888933Y-118186766D01*
X119759470Y-118125842D01*
X119576699Y-118125842D01*
X119462466Y-118186766D01*
X119416774Y-118308614D01*
X119500544Y-118978776D01*
X118396300Y-118917852D02*
X118525763Y-118978776D01*
X118769458Y-118978776D01*
X118883690Y-118917852D01*
X118929383Y-118796004D01*
X118868459Y-118308614D01*
X118792305Y-118186766D01*
X118662841Y-118125842D01*
X118419146Y-118125842D01*
X118304914Y-118186766D01*
X118259221Y-118308614D01*
X118274452Y-118430461D01*
X118898921Y-118552309D01*
X117246363Y-118978776D02*
X117086438Y-117699376D01*
X117238747Y-118917852D02*
X117368211Y-118978776D01*
X117611906Y-118978776D01*
X117726138Y-118917852D01*
X117779446Y-118856928D01*
X117825139Y-118735080D01*
X117779446Y-118369538D01*
X117703291Y-118247690D01*
X117634752Y-118186766D01*
X117505289Y-118125842D01*
X117261594Y-118125842D01*
X117147362Y-118186766D01*
X115738499Y-118125842D02*
X115251108Y-118125842D01*
X115662344Y-118978776D02*
X115525265Y-117882147D01*
X115449111Y-117760300D01*
X115319647Y-117699376D01*
X115197800Y-117699376D01*
X114748487Y-118978776D02*
X114862719Y-118917852D01*
X114916027Y-118856928D01*
X114961720Y-118735080D01*
X114916027Y-118369538D01*
X114839872Y-118247690D01*
X114771333Y-118186766D01*
X114641870Y-118125842D01*
X114459099Y-118125842D01*
X114344866Y-118186766D01*
X114291558Y-118247690D01*
X114245865Y-118369538D01*
X114291558Y-118735080D01*
X114367713Y-118856928D01*
X114436252Y-118917852D01*
X114565715Y-118978776D01*
X114748487Y-118978776D01*
X113773706Y-118978776D02*
X113667089Y-118125842D01*
X113697551Y-118369538D02*
X113621396Y-118247690D01*
X113552857Y-118186766D01*
X113423394Y-118125842D01*
X113301546Y-118125842D01*
X112006915Y-118978776D02*
X111846990Y-117699376D01*
X111359600Y-117699376D01*
X111245368Y-117760300D01*
X111192059Y-117821223D01*
X111146366Y-117943071D01*
X111169213Y-118125842D01*
X111245368Y-118247690D01*
X111313907Y-118308614D01*
X111443370Y-118369538D01*
X111930761Y-118369538D01*
X110727515Y-118978776D02*
X110620899Y-118125842D01*
X110567590Y-117699376D02*
X110636130Y-117760300D01*
X110582821Y-117821223D01*
X110514282Y-117760300D01*
X110567590Y-117699376D01*
X110582821Y-117821223D01*
X109935506Y-118978776D02*
X110049738Y-118917852D01*
X110095431Y-118796004D01*
X109958352Y-117699376D01*
X109501424Y-118917852D02*
X109387191Y-118978776D01*
X109143496Y-118978776D01*
X109014033Y-118917852D01*
X108937878Y-118796004D01*
X108930263Y-118735080D01*
X108975956Y-118613233D01*
X109090188Y-118552309D01*
X109272959Y-118552309D01*
X109387191Y-118491385D01*
X109432884Y-118369538D01*
X109425269Y-118308614D01*
X109349114Y-118186766D01*
X109219651Y-118125842D01*
X109036880Y-118125842D01*
X108922647Y-118186766D01*
X138676190Y-139583333D02*
X138723809Y-139535714D01*
X138819047Y-139392857D01*
X138866666Y-139297619D01*
X138914285Y-139154761D01*
X138961904Y-138916666D01*
X138961904Y-138726190D01*
X138914285Y-138488095D01*
X138866666Y-138345238D01*
X138819047Y-138250000D01*
X138723809Y-138107142D01*
X138676190Y-138059523D01*
X137866666Y-139154761D02*
X137961904Y-139202380D01*
X138152380Y-139202380D01*
X138247619Y-139154761D01*
X138295238Y-139107142D01*
X138342857Y-139011904D01*
X138342857Y-138726190D01*
X138295238Y-138630952D01*
X138247619Y-138583333D01*
X138152380Y-138535714D01*
X137961904Y-138535714D01*
X137866666Y-138583333D01*
X137533333Y-139583333D02*
X137485714Y-139535714D01*
X137390476Y-139392857D01*
X137342857Y-139297619D01*
X137295238Y-139154761D01*
X137247619Y-138916666D01*
X137247619Y-138726190D01*
X137295238Y-138488095D01*
X137342857Y-138345238D01*
X137390476Y-138250000D01*
X137485714Y-138107142D01*
X137533333Y-138059523D01*
X136057142Y-138297619D02*
X136009523Y-138250000D01*
X135914285Y-138202380D01*
X135676190Y-138202380D01*
X135580952Y-138250000D01*
X135533333Y-138297619D01*
X135485714Y-138392857D01*
X135485714Y-138488095D01*
X135533333Y-138630952D01*
X136104761Y-139202380D01*
X135485714Y-139202380D01*
X134866666Y-138202380D02*
X134771428Y-138202380D01*
X134676190Y-138250000D01*
X134628571Y-138297619D01*
X134580952Y-138392857D01*
X134533333Y-138583333D01*
X134533333Y-138821428D01*
X134580952Y-139011904D01*
X134628571Y-139107142D01*
X134676190Y-139154761D01*
X134771428Y-139202380D01*
X134866666Y-139202380D01*
X134961904Y-139154761D01*
X135009523Y-139107142D01*
X135057142Y-139011904D01*
X135104761Y-138821428D01*
X135104761Y-138583333D01*
X135057142Y-138392857D01*
X135009523Y-138297619D01*
X134961904Y-138250000D01*
X134866666Y-138202380D01*
X134152380Y-138297619D02*
X134104761Y-138250000D01*
X134009523Y-138202380D01*
X133771428Y-138202380D01*
X133676190Y-138250000D01*
X133628571Y-138297619D01*
X133580952Y-138392857D01*
X133580952Y-138488095D01*
X133628571Y-138630952D01*
X134200000Y-139202380D01*
X133580952Y-139202380D01*
X132628571Y-139202380D02*
X133200000Y-139202380D01*
X132914285Y-139202380D02*
X132914285Y-138202380D01*
X133009523Y-138345238D01*
X133104761Y-138440476D01*
X133200000Y-138488095D01*
X131438095Y-139202380D02*
X131438095Y-138202380D01*
X131057142Y-138202380D01*
X130961904Y-138250000D01*
X130914285Y-138297619D01*
X130866666Y-138392857D01*
X130866666Y-138535714D01*
X130914285Y-138630952D01*
X130961904Y-138678571D01*
X131057142Y-138726190D01*
X131438095Y-138726190D01*
X130009523Y-139202380D02*
X130009523Y-138678571D01*
X130057142Y-138583333D01*
X130152380Y-138535714D01*
X130342857Y-138535714D01*
X130438095Y-138583333D01*
X130009523Y-139154761D02*
X130104761Y-139202380D01*
X130342857Y-139202380D01*
X130438095Y-139154761D01*
X130485714Y-139059523D01*
X130485714Y-138964285D01*
X130438095Y-138869047D01*
X130342857Y-138821428D01*
X130104761Y-138821428D01*
X130009523Y-138773809D01*
X129580952Y-139154761D02*
X129485714Y-139202380D01*
X129295238Y-139202380D01*
X129200000Y-139154761D01*
X129152380Y-139059523D01*
X129152380Y-139011904D01*
X129200000Y-138916666D01*
X129295238Y-138869047D01*
X129438095Y-138869047D01*
X129533333Y-138821428D01*
X129580952Y-138726190D01*
X129580952Y-138678571D01*
X129533333Y-138583333D01*
X129438095Y-138535714D01*
X129295238Y-138535714D01*
X129200000Y-138583333D01*
X128295238Y-139154761D02*
X128390476Y-139202380D01*
X128580952Y-139202380D01*
X128676190Y-139154761D01*
X128723809Y-139107142D01*
X128771428Y-139011904D01*
X128771428Y-138726190D01*
X128723809Y-138630952D01*
X128676190Y-138583333D01*
X128580952Y-138535714D01*
X128390476Y-138535714D01*
X128295238Y-138583333D01*
X127438095Y-139202380D02*
X127438095Y-138678571D01*
X127485714Y-138583333D01*
X127580952Y-138535714D01*
X127771428Y-138535714D01*
X127866666Y-138583333D01*
X127438095Y-139154761D02*
X127533333Y-139202380D01*
X127771428Y-139202380D01*
X127866666Y-139154761D01*
X127914285Y-139059523D01*
X127914285Y-138964285D01*
X127866666Y-138869047D01*
X127771428Y-138821428D01*
X127533333Y-138821428D01*
X127438095Y-138773809D01*
X126819047Y-139202380D02*
X126914285Y-139154761D01*
X126961904Y-139059523D01*
X126961904Y-138202380D01*
X125676190Y-139202380D02*
X125676190Y-138202380D01*
X125295238Y-138202380D01*
X125200000Y-138250000D01*
X125152380Y-138297619D01*
X125104761Y-138392857D01*
X125104761Y-138535714D01*
X125152380Y-138630952D01*
X125200000Y-138678571D01*
X125295238Y-138726190D01*
X125676190Y-138726190D01*
X124676190Y-139202380D02*
X124676190Y-138535714D01*
X124676190Y-138202380D02*
X124723809Y-138250000D01*
X124676190Y-138297619D01*
X124628571Y-138250000D01*
X124676190Y-138202380D01*
X124676190Y-138297619D01*
X123819047Y-139154761D02*
X123914285Y-139202380D01*
X124104761Y-139202380D01*
X124200000Y-139154761D01*
X124247619Y-139059523D01*
X124247619Y-138678571D01*
X124200000Y-138583333D01*
X124104761Y-138535714D01*
X123914285Y-138535714D01*
X123819047Y-138583333D01*
X123771428Y-138678571D01*
X123771428Y-138773809D01*
X124247619Y-138869047D01*
X123342857Y-138535714D02*
X123342857Y-139535714D01*
X123342857Y-138583333D02*
X123247619Y-138535714D01*
X123057142Y-138535714D01*
X122961904Y-138583333D01*
X122914285Y-138630952D01*
X122866666Y-138726190D01*
X122866666Y-139011904D01*
X122914285Y-139107142D01*
X122961904Y-139154761D01*
X123057142Y-139202380D01*
X123247619Y-139202380D01*
X123342857Y-139154761D01*
X122057142Y-139154761D02*
X122152380Y-139202380D01*
X122342857Y-139202380D01*
X122438095Y-139154761D01*
X122485714Y-139059523D01*
X122485714Y-138678571D01*
X122438095Y-138583333D01*
X122342857Y-138535714D01*
X122152380Y-138535714D01*
X122057142Y-138583333D01*
X122009523Y-138678571D01*
X122009523Y-138773809D01*
X122485714Y-138869047D01*
X121580952Y-139202380D02*
X121580952Y-138535714D01*
X121580952Y-138726190D02*
X121533333Y-138630952D01*
X121485714Y-138583333D01*
X121390476Y-138535714D01*
X121295238Y-138535714D01*
X139819047Y-139852380D02*
X139628571Y-139852380D01*
X139533333Y-139900000D01*
X139438095Y-139995238D01*
X139390476Y-140185714D01*
X139390476Y-140519047D01*
X139438095Y-140709523D01*
X139533333Y-140804761D01*
X139628571Y-140852380D01*
X139819047Y-140852380D01*
X139914285Y-140804761D01*
X140009523Y-140709523D01*
X140057142Y-140519047D01*
X140057142Y-140185714D01*
X140009523Y-139995238D01*
X139914285Y-139900000D01*
X139819047Y-139852380D01*
X139057142Y-140185714D02*
X138819047Y-140852380D01*
X138580952Y-140185714D01*
X137819047Y-140804761D02*
X137914285Y-140852380D01*
X138104761Y-140852380D01*
X138200000Y-140804761D01*
X138247619Y-140709523D01*
X138247619Y-140328571D01*
X138200000Y-140233333D01*
X138104761Y-140185714D01*
X137914285Y-140185714D01*
X137819047Y-140233333D01*
X137771428Y-140328571D01*
X137771428Y-140423809D01*
X138247619Y-140519047D01*
X137342857Y-140852380D02*
X137342857Y-140185714D01*
X137342857Y-140376190D02*
X137295238Y-140280952D01*
X137247619Y-140233333D01*
X137152380Y-140185714D01*
X137057142Y-140185714D01*
X136819047Y-140185714D02*
X136580952Y-140852380D01*
X136342857Y-140185714D01*
X135819047Y-140852380D02*
X135914285Y-140804761D01*
X135961904Y-140757142D01*
X136009523Y-140661904D01*
X136009523Y-140376190D01*
X135961904Y-140280952D01*
X135914285Y-140233333D01*
X135819047Y-140185714D01*
X135676190Y-140185714D01*
X135580952Y-140233333D01*
X135533333Y-140280952D01*
X135485714Y-140376190D01*
X135485714Y-140661904D01*
X135533333Y-140757142D01*
X135580952Y-140804761D01*
X135676190Y-140852380D01*
X135819047Y-140852380D01*
X134914285Y-140852380D02*
X135009523Y-140804761D01*
X135057142Y-140709523D01*
X135057142Y-139852380D01*
X134676190Y-140185714D02*
X134295238Y-140185714D01*
X134533333Y-139852380D02*
X134533333Y-140709523D01*
X134485714Y-140804761D01*
X134390476Y-140852380D01*
X134295238Y-140852380D01*
X133533333Y-140852380D02*
X133533333Y-140328571D01*
X133580952Y-140233333D01*
X133676190Y-140185714D01*
X133866666Y-140185714D01*
X133961904Y-140233333D01*
X133533333Y-140804761D02*
X133628571Y-140852380D01*
X133866666Y-140852380D01*
X133961904Y-140804761D01*
X134009523Y-140709523D01*
X134009523Y-140614285D01*
X133961904Y-140519047D01*
X133866666Y-140471428D01*
X133628571Y-140471428D01*
X133533333Y-140423809D01*
X132628571Y-140185714D02*
X132628571Y-140995238D01*
X132676190Y-141090476D01*
X132723809Y-141138095D01*
X132819047Y-141185714D01*
X132961904Y-141185714D01*
X133057142Y-141138095D01*
X132628571Y-140804761D02*
X132723809Y-140852380D01*
X132914285Y-140852380D01*
X133009523Y-140804761D01*
X133057142Y-140757142D01*
X133104761Y-140661904D01*
X133104761Y-140376190D01*
X133057142Y-140280952D01*
X133009523Y-140233333D01*
X132914285Y-140185714D01*
X132723809Y-140185714D01*
X132628571Y-140233333D01*
X131771428Y-140804761D02*
X131866666Y-140852380D01*
X132057142Y-140852380D01*
X132152380Y-140804761D01*
X132200000Y-140709523D01*
X132200000Y-140328571D01*
X132152380Y-140233333D01*
X132057142Y-140185714D01*
X131866666Y-140185714D01*
X131771428Y-140233333D01*
X131723809Y-140328571D01*
X131723809Y-140423809D01*
X132200000Y-140519047D01*
X130533333Y-140471428D02*
X129771428Y-140471428D01*
X130152380Y-140852380D02*
X130152380Y-140090476D01*
X128342857Y-139852380D02*
X128152380Y-139852380D01*
X128057142Y-139900000D01*
X127961904Y-139995238D01*
X127914285Y-140185714D01*
X127914285Y-140519047D01*
X127961904Y-140709523D01*
X128057142Y-140804761D01*
X128152380Y-140852380D01*
X128342857Y-140852380D01*
X128438095Y-140804761D01*
X128533333Y-140709523D01*
X128580952Y-140519047D01*
X128580952Y-140185714D01*
X128533333Y-139995238D01*
X128438095Y-139900000D01*
X128342857Y-139852380D01*
X127580952Y-140185714D02*
X127342857Y-140852380D01*
X127104761Y-140185714D01*
X126342857Y-140804761D02*
X126438095Y-140852380D01*
X126628571Y-140852380D01*
X126723809Y-140804761D01*
X126771428Y-140709523D01*
X126771428Y-140328571D01*
X126723809Y-140233333D01*
X126628571Y-140185714D01*
X126438095Y-140185714D01*
X126342857Y-140233333D01*
X126295238Y-140328571D01*
X126295238Y-140423809D01*
X126771428Y-140519047D01*
X125866666Y-140852380D02*
X125866666Y-140185714D01*
X125866666Y-140376190D02*
X125819047Y-140280952D01*
X125771428Y-140233333D01*
X125676190Y-140185714D01*
X125580952Y-140185714D01*
X124819047Y-140804761D02*
X124914285Y-140852380D01*
X125104761Y-140852380D01*
X125200000Y-140804761D01*
X125247619Y-140757142D01*
X125295238Y-140661904D01*
X125295238Y-140376190D01*
X125247619Y-140280952D01*
X125200000Y-140233333D01*
X125104761Y-140185714D01*
X124914285Y-140185714D01*
X124819047Y-140233333D01*
X123961904Y-140185714D02*
X123961904Y-140852380D01*
X124390476Y-140185714D02*
X124390476Y-140709523D01*
X124342857Y-140804761D01*
X124247619Y-140852380D01*
X124104761Y-140852380D01*
X124009523Y-140804761D01*
X123961904Y-140757142D01*
X123485714Y-140852380D02*
X123485714Y-140185714D01*
X123485714Y-140376190D02*
X123438095Y-140280952D01*
X123390476Y-140233333D01*
X123295238Y-140185714D01*
X123200000Y-140185714D01*
X122866666Y-140852380D02*
X122866666Y-140185714D01*
X122866666Y-140376190D02*
X122819047Y-140280952D01*
X122771428Y-140233333D01*
X122676190Y-140185714D01*
X122580952Y-140185714D01*
X121866666Y-140804761D02*
X121961904Y-140852380D01*
X122152380Y-140852380D01*
X122247619Y-140804761D01*
X122295238Y-140709523D01*
X122295238Y-140328571D01*
X122247619Y-140233333D01*
X122152380Y-140185714D01*
X121961904Y-140185714D01*
X121866666Y-140233333D01*
X121819047Y-140328571D01*
X121819047Y-140423809D01*
X122295238Y-140519047D01*
X121390476Y-140185714D02*
X121390476Y-140852380D01*
X121390476Y-140280952D02*
X121342857Y-140233333D01*
X121247619Y-140185714D01*
X121104761Y-140185714D01*
X121009523Y-140233333D01*
X120961904Y-140328571D01*
X120961904Y-140852380D01*
X120628571Y-140185714D02*
X120247619Y-140185714D01*
X120485714Y-139852380D02*
X120485714Y-140709523D01*
X120438095Y-140804761D01*
X120342857Y-140852380D01*
X120247619Y-140852380D01*
X139985714Y-142502380D02*
X139985714Y-141502380D01*
X139604761Y-141502380D01*
X139509523Y-141550000D01*
X139461904Y-141597619D01*
X139414285Y-141692857D01*
X139414285Y-141835714D01*
X139461904Y-141930952D01*
X139509523Y-141978571D01*
X139604761Y-142026190D01*
X139985714Y-142026190D01*
X138985714Y-142502380D02*
X138985714Y-141835714D01*
X138985714Y-142026190D02*
X138938095Y-141930952D01*
X138890476Y-141883333D01*
X138795238Y-141835714D01*
X138700000Y-141835714D01*
X138223809Y-142502380D02*
X138319047Y-142454761D01*
X138366666Y-142407142D01*
X138414285Y-142311904D01*
X138414285Y-142026190D01*
X138366666Y-141930952D01*
X138319047Y-141883333D01*
X138223809Y-141835714D01*
X138080952Y-141835714D01*
X137985714Y-141883333D01*
X137938095Y-141930952D01*
X137890476Y-142026190D01*
X137890476Y-142311904D01*
X137938095Y-142407142D01*
X137985714Y-142454761D01*
X138080952Y-142502380D01*
X138223809Y-142502380D01*
X137604761Y-141835714D02*
X137223809Y-141835714D01*
X137461904Y-141502380D02*
X137461904Y-142359523D01*
X137414285Y-142454761D01*
X137319047Y-142502380D01*
X137223809Y-142502380D01*
X136509523Y-142454761D02*
X136604761Y-142502380D01*
X136795238Y-142502380D01*
X136890476Y-142454761D01*
X136938095Y-142359523D01*
X136938095Y-141978571D01*
X136890476Y-141883333D01*
X136795238Y-141835714D01*
X136604761Y-141835714D01*
X136509523Y-141883333D01*
X136461904Y-141978571D01*
X136461904Y-142073809D01*
X136938095Y-142169047D01*
X135604761Y-142454761D02*
X135700000Y-142502380D01*
X135890476Y-142502380D01*
X135985714Y-142454761D01*
X136033333Y-142407142D01*
X136080952Y-142311904D01*
X136080952Y-142026190D01*
X136033333Y-141930952D01*
X135985714Y-141883333D01*
X135890476Y-141835714D01*
X135700000Y-141835714D01*
X135604761Y-141883333D01*
X135319047Y-141835714D02*
X134938095Y-141835714D01*
X135176190Y-141502380D02*
X135176190Y-142359523D01*
X135128571Y-142454761D01*
X135033333Y-142502380D01*
X134938095Y-142502380D01*
X134604761Y-142502380D02*
X134604761Y-141835714D01*
X134604761Y-141502380D02*
X134652380Y-141550000D01*
X134604761Y-141597619D01*
X134557142Y-141550000D01*
X134604761Y-141502380D01*
X134604761Y-141597619D01*
X133985714Y-142502380D02*
X134080952Y-142454761D01*
X134128571Y-142407142D01*
X134176190Y-142311904D01*
X134176190Y-142026190D01*
X134128571Y-141930952D01*
X134080952Y-141883333D01*
X133985714Y-141835714D01*
X133842857Y-141835714D01*
X133747619Y-141883333D01*
X133700000Y-141930952D01*
X133652380Y-142026190D01*
X133652380Y-142311904D01*
X133700000Y-142407142D01*
X133747619Y-142454761D01*
X133842857Y-142502380D01*
X133985714Y-142502380D01*
X133223809Y-141835714D02*
X133223809Y-142502380D01*
X133223809Y-141930952D02*
X133176190Y-141883333D01*
X133080952Y-141835714D01*
X132938095Y-141835714D01*
X132842857Y-141883333D01*
X132795238Y-141978571D01*
X132795238Y-142502380D01*
X130985714Y-142407142D02*
X131033333Y-142454761D01*
X131176190Y-142502380D01*
X131271428Y-142502380D01*
X131414285Y-142454761D01*
X131509523Y-142359523D01*
X131557142Y-142264285D01*
X131604761Y-142073809D01*
X131604761Y-141930952D01*
X131557142Y-141740476D01*
X131509523Y-141645238D01*
X131414285Y-141550000D01*
X131271428Y-141502380D01*
X131176190Y-141502380D01*
X131033333Y-141550000D01*
X130985714Y-141597619D01*
X130557142Y-142502380D02*
X130557142Y-141835714D01*
X130557142Y-141502380D02*
X130604761Y-141550000D01*
X130557142Y-141597619D01*
X130509523Y-141550000D01*
X130557142Y-141502380D01*
X130557142Y-141597619D01*
X130080952Y-142502380D02*
X130080952Y-141835714D01*
X130080952Y-142026190D02*
X130033333Y-141930952D01*
X129985714Y-141883333D01*
X129890476Y-141835714D01*
X129795238Y-141835714D01*
X129033333Y-142454761D02*
X129128571Y-142502380D01*
X129319047Y-142502380D01*
X129414285Y-142454761D01*
X129461904Y-142407142D01*
X129509523Y-142311904D01*
X129509523Y-142026190D01*
X129461904Y-141930952D01*
X129414285Y-141883333D01*
X129319047Y-141835714D01*
X129128571Y-141835714D01*
X129033333Y-141883333D01*
X128176190Y-141835714D02*
X128176190Y-142502380D01*
X128604761Y-141835714D02*
X128604761Y-142359523D01*
X128557142Y-142454761D01*
X128461904Y-142502380D01*
X128319047Y-142502380D01*
X128223809Y-142454761D01*
X128176190Y-142407142D01*
X127700000Y-142502380D02*
X127700000Y-141835714D01*
X127700000Y-141502380D02*
X127747619Y-141550000D01*
X127700000Y-141597619D01*
X127652380Y-141550000D01*
X127700000Y-141502380D01*
X127700000Y-141597619D01*
X127366666Y-141835714D02*
X126985714Y-141835714D01*
X127223809Y-141502380D02*
X127223809Y-142359523D01*
X127176190Y-142454761D01*
X127080952Y-142502380D01*
X126985714Y-142502380D01*
X125890476Y-142502380D02*
X125890476Y-141502380D01*
X125557142Y-142216666D01*
X125223809Y-141502380D01*
X125223809Y-142502380D01*
X124176190Y-142407142D02*
X124223809Y-142454761D01*
X124366666Y-142502380D01*
X124461904Y-142502380D01*
X124604761Y-142454761D01*
X124700000Y-142359523D01*
X124747619Y-142264285D01*
X124795238Y-142073809D01*
X124795238Y-141930952D01*
X124747619Y-141740476D01*
X124700000Y-141645238D01*
X124604761Y-141550000D01*
X124461904Y-141502380D01*
X124366666Y-141502380D01*
X124223809Y-141550000D01*
X124176190Y-141597619D01*
X123842857Y-141502380D02*
X123223809Y-141502380D01*
X123557142Y-141883333D01*
X123414285Y-141883333D01*
X123319047Y-141930952D01*
X123271428Y-141978571D01*
X123223809Y-142073809D01*
X123223809Y-142311904D01*
X123271428Y-142407142D01*
X123319047Y-142454761D01*
X123414285Y-142502380D01*
X123700000Y-142502380D01*
X123795238Y-142454761D01*
X123842857Y-142407142D01*
X122366666Y-141835714D02*
X122366666Y-142502380D01*
X122604761Y-141454761D02*
X122842857Y-142169047D01*
X122223809Y-142169047D01*
X121890476Y-141597619D02*
X121842857Y-141550000D01*
X121747619Y-141502380D01*
X121509523Y-141502380D01*
X121414285Y-141550000D01*
X121366666Y-141597619D01*
X121319047Y-141692857D01*
X121319047Y-141788095D01*
X121366666Y-141930952D01*
X121938095Y-142502380D01*
X121319047Y-142502380D01*
X120985714Y-141502380D02*
X120366666Y-141502380D01*
X120700000Y-141883333D01*
X120557142Y-141883333D01*
X120461904Y-141930952D01*
X120414285Y-141978571D01*
X120366666Y-142073809D01*
X120366666Y-142311904D01*
X120414285Y-142407142D01*
X120461904Y-142454761D01*
X120557142Y-142502380D01*
X120842857Y-142502380D01*
X120938095Y-142454761D01*
X120985714Y-142407142D01*
M02*
