G04 #@! TF.GenerationSoftware,KiCad,Pcbnew,(5.1.10)-1*
G04 #@! TF.CreationDate,2021-06-01T12:55:43+02:00*
G04 #@! TF.ProjectId,overvolt,6f766572-766f-46c7-942e-6b696361645f,rev?*
G04 #@! TF.SameCoordinates,Original*
G04 #@! TF.FileFunction,Legend,Top*
G04 #@! TF.FilePolarity,Positive*
%FSLAX46Y46*%
G04 Gerber Fmt 4.6, Leading zero omitted, Abs format (unit mm)*
G04 Created by KiCad (PCBNEW (5.1.10)-1) date 2021-06-01 12:55:43*
%MOMM*%
%LPD*%
G01*
G04 APERTURE LIST*
%ADD10C,0.200800*%
%ADD11C,0.150000*%
%ADD12C,0.120000*%
%ADD13C,0.124600*%
G04 APERTURE END LIST*
D10*
X91912609Y-135891385D02*
X92887390Y-135891385D01*
X92400000Y-136378776D02*
X92400000Y-135403995D01*
X129631166Y-139237183D02*
X129845833Y-139237183D01*
X129953166Y-139290850D01*
X130060500Y-139398183D01*
X130114166Y-139612850D01*
X130114166Y-139988516D01*
X130060500Y-140203183D01*
X129953166Y-140310516D01*
X129845833Y-140364183D01*
X129631166Y-140364183D01*
X129523833Y-140310516D01*
X129416500Y-140203183D01*
X129362833Y-139988516D01*
X129362833Y-139612850D01*
X129416500Y-139398183D01*
X129523833Y-139290850D01*
X129631166Y-139237183D01*
X130436166Y-139237183D02*
X130811833Y-140364183D01*
X131187500Y-139237183D01*
X131777833Y-139237183D02*
X131992500Y-139237183D01*
X132099833Y-139290850D01*
X132207166Y-139398183D01*
X132260833Y-139612850D01*
X132260833Y-139988516D01*
X132207166Y-140203183D01*
X132099833Y-140310516D01*
X131992500Y-140364183D01*
X131777833Y-140364183D01*
X131670500Y-140310516D01*
X131563166Y-140203183D01*
X131509500Y-139988516D01*
X131509500Y-139612850D01*
X131563166Y-139398183D01*
X131670500Y-139290850D01*
X131777833Y-139237183D01*
X133387833Y-140256850D02*
X133334166Y-140310516D01*
X133173166Y-140364183D01*
X133065833Y-140364183D01*
X132904833Y-140310516D01*
X132797500Y-140203183D01*
X132743833Y-140095850D01*
X132690166Y-139881183D01*
X132690166Y-139720183D01*
X132743833Y-139505516D01*
X132797500Y-139398183D01*
X132904833Y-139290850D01*
X133065833Y-139237183D01*
X133173166Y-139237183D01*
X133334166Y-139290850D01*
X133387833Y-139344516D01*
X133870833Y-139934850D02*
X134729500Y-139934850D01*
X135266166Y-140364183D02*
X135266166Y-139237183D01*
X135695500Y-139237183D01*
X135802833Y-139290850D01*
X135856500Y-139344516D01*
X135910166Y-139451850D01*
X135910166Y-139612850D01*
X135856500Y-139720183D01*
X135802833Y-139773850D01*
X135695500Y-139827516D01*
X135266166Y-139827516D01*
X137037166Y-140256850D02*
X136983500Y-140310516D01*
X136822500Y-140364183D01*
X136715166Y-140364183D01*
X136554166Y-140310516D01*
X136446833Y-140203183D01*
X136393166Y-140095850D01*
X136339500Y-139881183D01*
X136339500Y-139720183D01*
X136393166Y-139505516D01*
X136446833Y-139398183D01*
X136554166Y-139290850D01*
X136715166Y-139237183D01*
X136822500Y-139237183D01*
X136983500Y-139290850D01*
X137037166Y-139344516D01*
X130114166Y-142255483D02*
X130114166Y-141128483D01*
X130489833Y-141933483D01*
X130865500Y-141128483D01*
X130865500Y-142255483D01*
X132046166Y-142148150D02*
X131992500Y-142201816D01*
X131831500Y-142255483D01*
X131724166Y-142255483D01*
X131563166Y-142201816D01*
X131455833Y-142094483D01*
X131402166Y-141987150D01*
X131348500Y-141772483D01*
X131348500Y-141611483D01*
X131402166Y-141396816D01*
X131455833Y-141289483D01*
X131563166Y-141182150D01*
X131724166Y-141128483D01*
X131831500Y-141128483D01*
X131992500Y-141182150D01*
X132046166Y-141235816D01*
X132421833Y-141128483D02*
X133119500Y-141128483D01*
X132743833Y-141557816D01*
X132904833Y-141557816D01*
X133012166Y-141611483D01*
X133065833Y-141665150D01*
X133119500Y-141772483D01*
X133119500Y-142040816D01*
X133065833Y-142148150D01*
X133012166Y-142201816D01*
X132904833Y-142255483D01*
X132582833Y-142255483D01*
X132475500Y-142201816D01*
X132421833Y-142148150D01*
X134085500Y-141504150D02*
X134085500Y-142255483D01*
X133817166Y-141074816D02*
X133548833Y-141879816D01*
X134246500Y-141879816D01*
X134622166Y-141235816D02*
X134675833Y-141182150D01*
X134783166Y-141128483D01*
X135051500Y-141128483D01*
X135158833Y-141182150D01*
X135212500Y-141235816D01*
X135266166Y-141343150D01*
X135266166Y-141450483D01*
X135212500Y-141611483D01*
X134568500Y-142255483D01*
X135266166Y-142255483D01*
X135641833Y-141128483D02*
X136339500Y-141128483D01*
X135963833Y-141557816D01*
X136124833Y-141557816D01*
X136232166Y-141611483D01*
X136285833Y-141665150D01*
X136339500Y-141772483D01*
X136339500Y-142040816D01*
X136285833Y-142148150D01*
X136232166Y-142201816D01*
X136124833Y-142255483D01*
X135802833Y-142255483D01*
X135695500Y-142201816D01*
X135641833Y-142148150D01*
X92112609Y-123490714D02*
X93087390Y-123490714D01*
X129312609Y-132291385D02*
X130287390Y-132291385D01*
X129800000Y-132778776D02*
X129800000Y-131803995D01*
X129312609Y-127091385D02*
X130287390Y-127091385D01*
D11*
X125204761Y-129852380D02*
X125395238Y-129852380D01*
X125490476Y-129900000D01*
X125585714Y-129995238D01*
X125633333Y-130185714D01*
X125633333Y-130519047D01*
X125585714Y-130709523D01*
X125490476Y-130804761D01*
X125395238Y-130852380D01*
X125204761Y-130852380D01*
X125109523Y-130804761D01*
X125014285Y-130709523D01*
X124966666Y-130519047D01*
X124966666Y-130185714D01*
X125014285Y-129995238D01*
X125109523Y-129900000D01*
X125204761Y-129852380D01*
X126061904Y-130852380D02*
X126061904Y-129852380D01*
X126633333Y-130852380D02*
X126204761Y-130280952D01*
X126633333Y-129852380D02*
X126061904Y-130423809D01*
X118985714Y-130328571D02*
X119319047Y-130328571D01*
X119461904Y-130852380D02*
X118985714Y-130852380D01*
X118985714Y-129852380D01*
X119461904Y-129852380D01*
X120461904Y-130852380D02*
X120128571Y-130376190D01*
X119890476Y-130852380D02*
X119890476Y-129852380D01*
X120271428Y-129852380D01*
X120366666Y-129900000D01*
X120414285Y-129947619D01*
X120461904Y-130042857D01*
X120461904Y-130185714D01*
X120414285Y-130280952D01*
X120366666Y-130328571D01*
X120271428Y-130376190D01*
X119890476Y-130376190D01*
X121461904Y-130852380D02*
X121128571Y-130376190D01*
X120890476Y-130852380D02*
X120890476Y-129852380D01*
X121271428Y-129852380D01*
X121366666Y-129900000D01*
X121414285Y-129947619D01*
X121461904Y-130042857D01*
X121461904Y-130185714D01*
X121414285Y-130280952D01*
X121366666Y-130328571D01*
X121271428Y-130376190D01*
X120890476Y-130376190D01*
X133976190Y-135252380D02*
X134166666Y-135252380D01*
X134261904Y-135300000D01*
X134357142Y-135395238D01*
X134404761Y-135585714D01*
X134404761Y-135919047D01*
X134357142Y-136109523D01*
X134261904Y-136204761D01*
X134166666Y-136252380D01*
X133976190Y-136252380D01*
X133880952Y-136204761D01*
X133785714Y-136109523D01*
X133738095Y-135919047D01*
X133738095Y-135585714D01*
X133785714Y-135395238D01*
X133880952Y-135300000D01*
X133976190Y-135252380D01*
X135261904Y-135585714D02*
X135261904Y-136252380D01*
X134833333Y-135585714D02*
X134833333Y-136109523D01*
X134880952Y-136204761D01*
X134976190Y-136252380D01*
X135119047Y-136252380D01*
X135214285Y-136204761D01*
X135261904Y-136157142D01*
X135595238Y-135585714D02*
X135976190Y-135585714D01*
X135738095Y-135252380D02*
X135738095Y-136109523D01*
X135785714Y-136204761D01*
X135880952Y-136252380D01*
X135976190Y-136252380D01*
X136309523Y-135585714D02*
X136309523Y-136585714D01*
X136309523Y-135633333D02*
X136404761Y-135585714D01*
X136595238Y-135585714D01*
X136690476Y-135633333D01*
X136738095Y-135680952D01*
X136785714Y-135776190D01*
X136785714Y-136061904D01*
X136738095Y-136157142D01*
X136690476Y-136204761D01*
X136595238Y-136252380D01*
X136404761Y-136252380D01*
X136309523Y-136204761D01*
X137642857Y-135585714D02*
X137642857Y-136252380D01*
X137214285Y-135585714D02*
X137214285Y-136109523D01*
X137261904Y-136204761D01*
X137357142Y-136252380D01*
X137500000Y-136252380D01*
X137595238Y-136204761D01*
X137642857Y-136157142D01*
X137976190Y-135585714D02*
X138357142Y-135585714D01*
X138119047Y-135252380D02*
X138119047Y-136109523D01*
X138166666Y-136204761D01*
X138261904Y-136252380D01*
X138357142Y-136252380D01*
X88935595Y-138427380D02*
X88935595Y-137427380D01*
X89411785Y-137760714D02*
X89411785Y-138427380D01*
X89411785Y-137855952D02*
X89459404Y-137808333D01*
X89554642Y-137760714D01*
X89697500Y-137760714D01*
X89792738Y-137808333D01*
X89840357Y-137903571D01*
X89840357Y-138427380D01*
X90316547Y-137760714D02*
X90316547Y-138760714D01*
X90316547Y-137808333D02*
X90411785Y-137760714D01*
X90602261Y-137760714D01*
X90697500Y-137808333D01*
X90745119Y-137855952D01*
X90792738Y-137951190D01*
X90792738Y-138236904D01*
X90745119Y-138332142D01*
X90697500Y-138379761D01*
X90602261Y-138427380D01*
X90411785Y-138427380D01*
X90316547Y-138379761D01*
X91649880Y-137760714D02*
X91649880Y-138427380D01*
X91221309Y-137760714D02*
X91221309Y-138284523D01*
X91268928Y-138379761D01*
X91364166Y-138427380D01*
X91507023Y-138427380D01*
X91602261Y-138379761D01*
X91649880Y-138332142D01*
X91983214Y-137760714D02*
X92364166Y-137760714D01*
X92126071Y-137427380D02*
X92126071Y-138284523D01*
X92173690Y-138379761D01*
X92268928Y-138427380D01*
X92364166Y-138427380D01*
X89411785Y-139077380D02*
X88935595Y-139077380D01*
X88887976Y-139553571D01*
X88935595Y-139505952D01*
X89030833Y-139458333D01*
X89268928Y-139458333D01*
X89364166Y-139505952D01*
X89411785Y-139553571D01*
X89459404Y-139648809D01*
X89459404Y-139886904D01*
X89411785Y-139982142D01*
X89364166Y-140029761D01*
X89268928Y-140077380D01*
X89030833Y-140077380D01*
X88935595Y-140029761D01*
X88887976Y-139982142D01*
X89887976Y-139696428D02*
X90649880Y-139696428D01*
X91030833Y-139077380D02*
X91649880Y-139077380D01*
X91316547Y-139458333D01*
X91459404Y-139458333D01*
X91554642Y-139505952D01*
X91602261Y-139553571D01*
X91649880Y-139648809D01*
X91649880Y-139886904D01*
X91602261Y-139982142D01*
X91554642Y-140029761D01*
X91459404Y-140077380D01*
X91173690Y-140077380D01*
X91078452Y-140029761D01*
X91030833Y-139982142D01*
X92554642Y-139077380D02*
X92078452Y-139077380D01*
X92030833Y-139553571D01*
X92078452Y-139505952D01*
X92173690Y-139458333D01*
X92411785Y-139458333D01*
X92507023Y-139505952D01*
X92554642Y-139553571D01*
X92602261Y-139648809D01*
X92602261Y-139886904D01*
X92554642Y-139982142D01*
X92507023Y-140029761D01*
X92411785Y-140077380D01*
X92173690Y-140077380D01*
X92078452Y-140029761D01*
X92030833Y-139982142D01*
X92887976Y-139077380D02*
X93221309Y-140077380D01*
X93554642Y-139077380D01*
X112638095Y-118785714D02*
X111876190Y-119071428D01*
X112638095Y-119357142D01*
X114400000Y-119452380D02*
X113828571Y-119452380D01*
X114114285Y-119452380D02*
X114114285Y-118452380D01*
X114019047Y-118595238D01*
X113923809Y-118690476D01*
X113828571Y-118738095D01*
X115352380Y-119452380D02*
X114780952Y-119452380D01*
X115066666Y-119452380D02*
X115066666Y-118452380D01*
X114971428Y-118595238D01*
X114876190Y-118690476D01*
X114780952Y-118738095D01*
X116400000Y-118452380D02*
X116733333Y-119452380D01*
X117066666Y-118452380D01*
D12*
X121690000Y-134636000D02*
X121690000Y-134480000D01*
X121690000Y-132320000D02*
X121690000Y-132164000D01*
X118457665Y-134478608D02*
G75*
G03*
X121690000Y-134635516I1672335J1078608D01*
G01*
X118457665Y-132321392D02*
G75*
G02*
X121690000Y-132164484I1672335J-1078608D01*
G01*
X119088870Y-134479837D02*
G75*
G03*
X121170961Y-134480000I1041130J1079837D01*
G01*
X119088870Y-132320163D02*
G75*
G02*
X121170961Y-132320000I1041130J-1079837D01*
G01*
X102610000Y-124470000D02*
X100960000Y-124470000D01*
X100960000Y-124470000D02*
X100960000Y-134750000D01*
X100960000Y-134750000D02*
X106260000Y-134750000D01*
X106260000Y-134750000D02*
X106260000Y-124470000D01*
X106260000Y-124470000D02*
X104610000Y-124470000D01*
X104610000Y-124470000D02*
G75*
G02*
X102610000Y-124470000I-1000000J0D01*
G01*
X124380000Y-128980000D02*
X124380000Y-118740000D01*
X129021000Y-128980000D02*
X129021000Y-118740000D01*
X124380000Y-128980000D02*
X129021000Y-128980000D01*
X124380000Y-118740000D02*
X129021000Y-118740000D01*
X125890000Y-128980000D02*
X125890000Y-118740000D01*
X124380000Y-125710000D02*
X125890000Y-125710000D01*
X124380000Y-122009000D02*
X125890000Y-122009000D01*
X122930000Y-123530000D02*
X120270000Y-123530000D01*
X122930000Y-126130000D02*
X122930000Y-123530000D01*
X120270000Y-126130000D02*
X120270000Y-123530000D01*
X122930000Y-126130000D02*
X120270000Y-126130000D01*
X122930000Y-127400000D02*
X122930000Y-128730000D01*
X122930000Y-128730000D02*
X121600000Y-128730000D01*
X113700000Y-120200000D02*
X115100000Y-120200000D01*
X115800000Y-120900000D02*
X115800000Y-121500000D01*
X115100000Y-122200000D02*
X113700000Y-122200000D01*
X113000000Y-121500000D02*
X113000000Y-120900000D01*
X113000000Y-120900000D02*
G75*
G02*
X113700000Y-120200000I700000J0D01*
G01*
X113700000Y-122200000D02*
G75*
G02*
X113000000Y-121500000I0J700000D01*
G01*
X115800000Y-121500000D02*
G75*
G02*
X115100000Y-122200000I-700000J0D01*
G01*
X115100000Y-120200000D02*
G75*
G02*
X115800000Y-120900000I0J-700000D01*
G01*
X97950000Y-123750000D02*
X97950000Y-118650000D01*
X97910000Y-123750000D02*
X97910000Y-118650000D01*
X97870000Y-123749000D02*
X97870000Y-118651000D01*
X97830000Y-123748000D02*
X97830000Y-118652000D01*
X97790000Y-123746000D02*
X97790000Y-118654000D01*
X97750000Y-123743000D02*
X97750000Y-118657000D01*
X97710000Y-123739000D02*
X97710000Y-118661000D01*
X97670000Y-123735000D02*
X97670000Y-122180000D01*
X97670000Y-120220000D02*
X97670000Y-118665000D01*
X97630000Y-123731000D02*
X97630000Y-122180000D01*
X97630000Y-120220000D02*
X97630000Y-118669000D01*
X97590000Y-123725000D02*
X97590000Y-122180000D01*
X97590000Y-120220000D02*
X97590000Y-118675000D01*
X97550000Y-123719000D02*
X97550000Y-122180000D01*
X97550000Y-120220000D02*
X97550000Y-118681000D01*
X97510000Y-123713000D02*
X97510000Y-122180000D01*
X97510000Y-120220000D02*
X97510000Y-118687000D01*
X97470000Y-123706000D02*
X97470000Y-122180000D01*
X97470000Y-120220000D02*
X97470000Y-118694000D01*
X97430000Y-123698000D02*
X97430000Y-122180000D01*
X97430000Y-120220000D02*
X97430000Y-118702000D01*
X97390000Y-123689000D02*
X97390000Y-122180000D01*
X97390000Y-120220000D02*
X97390000Y-118711000D01*
X97350000Y-123680000D02*
X97350000Y-122180000D01*
X97350000Y-120220000D02*
X97350000Y-118720000D01*
X97310000Y-123670000D02*
X97310000Y-122180000D01*
X97310000Y-120220000D02*
X97310000Y-118730000D01*
X97270000Y-123660000D02*
X97270000Y-122180000D01*
X97270000Y-120220000D02*
X97270000Y-118740000D01*
X97229000Y-123648000D02*
X97229000Y-122180000D01*
X97229000Y-120220000D02*
X97229000Y-118752000D01*
X97189000Y-123636000D02*
X97189000Y-122180000D01*
X97189000Y-120220000D02*
X97189000Y-118764000D01*
X97149000Y-123624000D02*
X97149000Y-122180000D01*
X97149000Y-120220000D02*
X97149000Y-118776000D01*
X97109000Y-123610000D02*
X97109000Y-122180000D01*
X97109000Y-120220000D02*
X97109000Y-118790000D01*
X97069000Y-123596000D02*
X97069000Y-122180000D01*
X97069000Y-120220000D02*
X97069000Y-118804000D01*
X97029000Y-123582000D02*
X97029000Y-122180000D01*
X97029000Y-120220000D02*
X97029000Y-118818000D01*
X96989000Y-123566000D02*
X96989000Y-122180000D01*
X96989000Y-120220000D02*
X96989000Y-118834000D01*
X96949000Y-123550000D02*
X96949000Y-122180000D01*
X96949000Y-120220000D02*
X96949000Y-118850000D01*
X96909000Y-123533000D02*
X96909000Y-122180000D01*
X96909000Y-120220000D02*
X96909000Y-118867000D01*
X96869000Y-123515000D02*
X96869000Y-122180000D01*
X96869000Y-120220000D02*
X96869000Y-118885000D01*
X96829000Y-123496000D02*
X96829000Y-122180000D01*
X96829000Y-120220000D02*
X96829000Y-118904000D01*
X96789000Y-123476000D02*
X96789000Y-122180000D01*
X96789000Y-120220000D02*
X96789000Y-118924000D01*
X96749000Y-123456000D02*
X96749000Y-122180000D01*
X96749000Y-120220000D02*
X96749000Y-118944000D01*
X96709000Y-123434000D02*
X96709000Y-122180000D01*
X96709000Y-120220000D02*
X96709000Y-118966000D01*
X96669000Y-123412000D02*
X96669000Y-122180000D01*
X96669000Y-120220000D02*
X96669000Y-118988000D01*
X96629000Y-123389000D02*
X96629000Y-122180000D01*
X96629000Y-120220000D02*
X96629000Y-119011000D01*
X96589000Y-123365000D02*
X96589000Y-122180000D01*
X96589000Y-120220000D02*
X96589000Y-119035000D01*
X96549000Y-123340000D02*
X96549000Y-122180000D01*
X96549000Y-120220000D02*
X96549000Y-119060000D01*
X96509000Y-123313000D02*
X96509000Y-122180000D01*
X96509000Y-120220000D02*
X96509000Y-119087000D01*
X96469000Y-123286000D02*
X96469000Y-122180000D01*
X96469000Y-120220000D02*
X96469000Y-119114000D01*
X96429000Y-123258000D02*
X96429000Y-122180000D01*
X96429000Y-120220000D02*
X96429000Y-119142000D01*
X96389000Y-123228000D02*
X96389000Y-122180000D01*
X96389000Y-120220000D02*
X96389000Y-119172000D01*
X96349000Y-123197000D02*
X96349000Y-122180000D01*
X96349000Y-120220000D02*
X96349000Y-119203000D01*
X96309000Y-123165000D02*
X96309000Y-122180000D01*
X96309000Y-120220000D02*
X96309000Y-119235000D01*
X96269000Y-123132000D02*
X96269000Y-122180000D01*
X96269000Y-120220000D02*
X96269000Y-119268000D01*
X96229000Y-123097000D02*
X96229000Y-122180000D01*
X96229000Y-120220000D02*
X96229000Y-119303000D01*
X96189000Y-123061000D02*
X96189000Y-122180000D01*
X96189000Y-120220000D02*
X96189000Y-119339000D01*
X96149000Y-123023000D02*
X96149000Y-122180000D01*
X96149000Y-120220000D02*
X96149000Y-119377000D01*
X96109000Y-122983000D02*
X96109000Y-122180000D01*
X96109000Y-120220000D02*
X96109000Y-119417000D01*
X96069000Y-122942000D02*
X96069000Y-122180000D01*
X96069000Y-120220000D02*
X96069000Y-119458000D01*
X96029000Y-122899000D02*
X96029000Y-122180000D01*
X96029000Y-120220000D02*
X96029000Y-119501000D01*
X95989000Y-122854000D02*
X95989000Y-122180000D01*
X95989000Y-120220000D02*
X95989000Y-119546000D01*
X95949000Y-122806000D02*
X95949000Y-122180000D01*
X95949000Y-120220000D02*
X95949000Y-119594000D01*
X95909000Y-122756000D02*
X95909000Y-122180000D01*
X95909000Y-120220000D02*
X95909000Y-119644000D01*
X95869000Y-122704000D02*
X95869000Y-122180000D01*
X95869000Y-120220000D02*
X95869000Y-119696000D01*
X95829000Y-122648000D02*
X95829000Y-122180000D01*
X95829000Y-120220000D02*
X95829000Y-119752000D01*
X95789000Y-122590000D02*
X95789000Y-122180000D01*
X95789000Y-120220000D02*
X95789000Y-119810000D01*
X95749000Y-122527000D02*
X95749000Y-122180000D01*
X95749000Y-120220000D02*
X95749000Y-119873000D01*
X95709000Y-122461000D02*
X95709000Y-119939000D01*
X95669000Y-122389000D02*
X95669000Y-120011000D01*
X95629000Y-122312000D02*
X95629000Y-120088000D01*
X95589000Y-122228000D02*
X95589000Y-120172000D01*
X95549000Y-122134000D02*
X95549000Y-120266000D01*
X95509000Y-122029000D02*
X95509000Y-120371000D01*
X95469000Y-121907000D02*
X95469000Y-120493000D01*
X95429000Y-121759000D02*
X95429000Y-120641000D01*
X95389000Y-121554000D02*
X95389000Y-120846000D01*
X101400000Y-121200000D02*
X100200000Y-121200000D01*
X100800000Y-121850000D02*
X100800000Y-120550000D01*
X95644278Y-122379723D02*
G75*
G03*
X100255580Y-122380000I2305722J1179723D01*
G01*
X95644278Y-120020277D02*
G75*
G02*
X100255580Y-120020000I2305722J-1179723D01*
G01*
X95644278Y-120020277D02*
G75*
G03*
X95644420Y-122380000I2305722J-1179723D01*
G01*
X114000000Y-130900000D02*
G75*
G03*
X114000000Y-130900000I-900000J0D01*
G01*
X111473000Y-127690000D02*
X116310000Y-127690000D01*
X111473000Y-134110000D02*
X116310000Y-134110000D01*
X109890000Y-129158000D02*
X109890000Y-132643000D01*
X116310000Y-127690000D02*
X116310000Y-130143000D01*
X116310000Y-131658000D02*
X116310000Y-134110000D01*
X120820000Y-144000000D02*
X120490000Y-144000000D01*
X120490000Y-144000000D02*
X120490000Y-137580000D01*
X120490000Y-137580000D02*
X120820000Y-137580000D01*
X122780000Y-144000000D02*
X123110000Y-144000000D01*
X123110000Y-144000000D02*
X123110000Y-137580000D01*
X123110000Y-137580000D02*
X122780000Y-137580000D01*
X117600000Y-125780000D02*
X117600000Y-126110000D01*
X117600000Y-126110000D02*
X111180000Y-126110000D01*
X111180000Y-126110000D02*
X111180000Y-125780000D01*
X117600000Y-123820000D02*
X117600000Y-123490000D01*
X117600000Y-123490000D02*
X111180000Y-123490000D01*
X111180000Y-123490000D02*
X111180000Y-123820000D01*
X124420000Y-144000000D02*
X124090000Y-144000000D01*
X124090000Y-144000000D02*
X124090000Y-137580000D01*
X124090000Y-137580000D02*
X124420000Y-137580000D01*
X126380000Y-144000000D02*
X126710000Y-144000000D01*
X126710000Y-144000000D02*
X126710000Y-137580000D01*
X126710000Y-137580000D02*
X126380000Y-137580000D01*
D11*
X88500000Y-129700000D02*
X88000000Y-129700000D01*
X90000000Y-124700000D02*
X90000000Y-134700000D01*
X94900000Y-124700000D02*
X94900000Y-134700000D01*
X88500000Y-124700000D02*
X88500000Y-134700000D01*
X88000000Y-124700000D02*
X88000000Y-134700000D01*
X88000000Y-134700000D02*
X97800000Y-134700000D01*
X97800000Y-134700000D02*
X97800000Y-124700000D01*
X97800000Y-124700000D02*
X88000000Y-124700000D01*
X94500000Y-132200000D02*
G75*
G03*
X94500000Y-132200000I-2000000J0D01*
G01*
X94500000Y-127200000D02*
G75*
G03*
X94500000Y-127200000I-2000000J0D01*
G01*
X140100000Y-129700000D02*
X140600000Y-129700000D01*
X138600000Y-134700000D02*
X138600000Y-124700000D01*
X133700000Y-134700000D02*
X133700000Y-124700000D01*
X140100000Y-134700000D02*
X140100000Y-124700000D01*
X140600000Y-134700000D02*
X140600000Y-124700000D01*
X140600000Y-124700000D02*
X130800000Y-124700000D01*
X130800000Y-124700000D02*
X130800000Y-134700000D01*
X130800000Y-134700000D02*
X140600000Y-134700000D01*
X138100000Y-127200000D02*
G75*
G03*
X138100000Y-127200000I-2000000J0D01*
G01*
X138100000Y-132200000D02*
G75*
G03*
X138100000Y-132200000I-2000000J0D01*
G01*
D12*
X117900000Y-146400000D02*
X117900000Y-143600000D01*
X117900000Y-139600000D02*
X117900000Y-136800000D01*
X95400000Y-139600000D02*
X95400000Y-136800000D01*
X95400000Y-136800000D02*
X117900000Y-136800000D01*
X95400000Y-146400000D02*
X117900000Y-146400000D01*
X95400000Y-146400000D02*
X95400000Y-143600000D01*
X124310000Y-132164000D02*
X124310000Y-132320000D01*
X124310000Y-134480000D02*
X124310000Y-134636000D01*
X127542335Y-132321392D02*
G75*
G03*
X124310000Y-132164484I-1672335J-1078608D01*
G01*
X127542335Y-134478608D02*
G75*
G02*
X124310000Y-134635516I-1672335J1078608D01*
G01*
X126911130Y-132320163D02*
G75*
G03*
X124829039Y-132320000I-1041130J-1079837D01*
G01*
X126911130Y-134479837D02*
G75*
G02*
X124829039Y-134480000I-1041130J1079837D01*
G01*
X105450000Y-118650000D02*
X105450000Y-123750000D01*
X105490000Y-118650000D02*
X105490000Y-123750000D01*
X105530000Y-118651000D02*
X105530000Y-123749000D01*
X105570000Y-118652000D02*
X105570000Y-123748000D01*
X105610000Y-118654000D02*
X105610000Y-123746000D01*
X105650000Y-118657000D02*
X105650000Y-123743000D01*
X105690000Y-118661000D02*
X105690000Y-123739000D01*
X105730000Y-118665000D02*
X105730000Y-120220000D01*
X105730000Y-122180000D02*
X105730000Y-123735000D01*
X105770000Y-118669000D02*
X105770000Y-120220000D01*
X105770000Y-122180000D02*
X105770000Y-123731000D01*
X105810000Y-118675000D02*
X105810000Y-120220000D01*
X105810000Y-122180000D02*
X105810000Y-123725000D01*
X105850000Y-118681000D02*
X105850000Y-120220000D01*
X105850000Y-122180000D02*
X105850000Y-123719000D01*
X105890000Y-118687000D02*
X105890000Y-120220000D01*
X105890000Y-122180000D02*
X105890000Y-123713000D01*
X105930000Y-118694000D02*
X105930000Y-120220000D01*
X105930000Y-122180000D02*
X105930000Y-123706000D01*
X105970000Y-118702000D02*
X105970000Y-120220000D01*
X105970000Y-122180000D02*
X105970000Y-123698000D01*
X106010000Y-118711000D02*
X106010000Y-120220000D01*
X106010000Y-122180000D02*
X106010000Y-123689000D01*
X106050000Y-118720000D02*
X106050000Y-120220000D01*
X106050000Y-122180000D02*
X106050000Y-123680000D01*
X106090000Y-118730000D02*
X106090000Y-120220000D01*
X106090000Y-122180000D02*
X106090000Y-123670000D01*
X106130000Y-118740000D02*
X106130000Y-120220000D01*
X106130000Y-122180000D02*
X106130000Y-123660000D01*
X106171000Y-118752000D02*
X106171000Y-120220000D01*
X106171000Y-122180000D02*
X106171000Y-123648000D01*
X106211000Y-118764000D02*
X106211000Y-120220000D01*
X106211000Y-122180000D02*
X106211000Y-123636000D01*
X106251000Y-118776000D02*
X106251000Y-120220000D01*
X106251000Y-122180000D02*
X106251000Y-123624000D01*
X106291000Y-118790000D02*
X106291000Y-120220000D01*
X106291000Y-122180000D02*
X106291000Y-123610000D01*
X106331000Y-118804000D02*
X106331000Y-120220000D01*
X106331000Y-122180000D02*
X106331000Y-123596000D01*
X106371000Y-118818000D02*
X106371000Y-120220000D01*
X106371000Y-122180000D02*
X106371000Y-123582000D01*
X106411000Y-118834000D02*
X106411000Y-120220000D01*
X106411000Y-122180000D02*
X106411000Y-123566000D01*
X106451000Y-118850000D02*
X106451000Y-120220000D01*
X106451000Y-122180000D02*
X106451000Y-123550000D01*
X106491000Y-118867000D02*
X106491000Y-120220000D01*
X106491000Y-122180000D02*
X106491000Y-123533000D01*
X106531000Y-118885000D02*
X106531000Y-120220000D01*
X106531000Y-122180000D02*
X106531000Y-123515000D01*
X106571000Y-118904000D02*
X106571000Y-120220000D01*
X106571000Y-122180000D02*
X106571000Y-123496000D01*
X106611000Y-118924000D02*
X106611000Y-120220000D01*
X106611000Y-122180000D02*
X106611000Y-123476000D01*
X106651000Y-118944000D02*
X106651000Y-120220000D01*
X106651000Y-122180000D02*
X106651000Y-123456000D01*
X106691000Y-118966000D02*
X106691000Y-120220000D01*
X106691000Y-122180000D02*
X106691000Y-123434000D01*
X106731000Y-118988000D02*
X106731000Y-120220000D01*
X106731000Y-122180000D02*
X106731000Y-123412000D01*
X106771000Y-119011000D02*
X106771000Y-120220000D01*
X106771000Y-122180000D02*
X106771000Y-123389000D01*
X106811000Y-119035000D02*
X106811000Y-120220000D01*
X106811000Y-122180000D02*
X106811000Y-123365000D01*
X106851000Y-119060000D02*
X106851000Y-120220000D01*
X106851000Y-122180000D02*
X106851000Y-123340000D01*
X106891000Y-119087000D02*
X106891000Y-120220000D01*
X106891000Y-122180000D02*
X106891000Y-123313000D01*
X106931000Y-119114000D02*
X106931000Y-120220000D01*
X106931000Y-122180000D02*
X106931000Y-123286000D01*
X106971000Y-119142000D02*
X106971000Y-120220000D01*
X106971000Y-122180000D02*
X106971000Y-123258000D01*
X107011000Y-119172000D02*
X107011000Y-120220000D01*
X107011000Y-122180000D02*
X107011000Y-123228000D01*
X107051000Y-119203000D02*
X107051000Y-120220000D01*
X107051000Y-122180000D02*
X107051000Y-123197000D01*
X107091000Y-119235000D02*
X107091000Y-120220000D01*
X107091000Y-122180000D02*
X107091000Y-123165000D01*
X107131000Y-119268000D02*
X107131000Y-120220000D01*
X107131000Y-122180000D02*
X107131000Y-123132000D01*
X107171000Y-119303000D02*
X107171000Y-120220000D01*
X107171000Y-122180000D02*
X107171000Y-123097000D01*
X107211000Y-119339000D02*
X107211000Y-120220000D01*
X107211000Y-122180000D02*
X107211000Y-123061000D01*
X107251000Y-119377000D02*
X107251000Y-120220000D01*
X107251000Y-122180000D02*
X107251000Y-123023000D01*
X107291000Y-119417000D02*
X107291000Y-120220000D01*
X107291000Y-122180000D02*
X107291000Y-122983000D01*
X107331000Y-119458000D02*
X107331000Y-120220000D01*
X107331000Y-122180000D02*
X107331000Y-122942000D01*
X107371000Y-119501000D02*
X107371000Y-120220000D01*
X107371000Y-122180000D02*
X107371000Y-122899000D01*
X107411000Y-119546000D02*
X107411000Y-120220000D01*
X107411000Y-122180000D02*
X107411000Y-122854000D01*
X107451000Y-119594000D02*
X107451000Y-120220000D01*
X107451000Y-122180000D02*
X107451000Y-122806000D01*
X107491000Y-119644000D02*
X107491000Y-120220000D01*
X107491000Y-122180000D02*
X107491000Y-122756000D01*
X107531000Y-119696000D02*
X107531000Y-120220000D01*
X107531000Y-122180000D02*
X107531000Y-122704000D01*
X107571000Y-119752000D02*
X107571000Y-120220000D01*
X107571000Y-122180000D02*
X107571000Y-122648000D01*
X107611000Y-119810000D02*
X107611000Y-120220000D01*
X107611000Y-122180000D02*
X107611000Y-122590000D01*
X107651000Y-119873000D02*
X107651000Y-120220000D01*
X107651000Y-122180000D02*
X107651000Y-122527000D01*
X107691000Y-119939000D02*
X107691000Y-122461000D01*
X107731000Y-120011000D02*
X107731000Y-122389000D01*
X107771000Y-120088000D02*
X107771000Y-122312000D01*
X107811000Y-120172000D02*
X107811000Y-122228000D01*
X107851000Y-120266000D02*
X107851000Y-122134000D01*
X107891000Y-120371000D02*
X107891000Y-122029000D01*
X107931000Y-120493000D02*
X107931000Y-121907000D01*
X107971000Y-120641000D02*
X107971000Y-121759000D01*
X108011000Y-120846000D02*
X108011000Y-121554000D01*
X102000000Y-121200000D02*
X103200000Y-121200000D01*
X102600000Y-120550000D02*
X102600000Y-121850000D01*
X107755722Y-120020277D02*
G75*
G03*
X103144420Y-120020000I-2305722J-1179723D01*
G01*
X107755722Y-122379723D02*
G75*
G02*
X103144420Y-122380000I-2305722J1179723D01*
G01*
X107755722Y-122379723D02*
G75*
G03*
X107755580Y-120020000I-2305722J1179723D01*
G01*
D11*
X102848095Y-135052380D02*
X102848095Y-135861904D01*
X102895714Y-135957142D01*
X102943333Y-136004761D01*
X103038571Y-136052380D01*
X103229047Y-136052380D01*
X103324285Y-136004761D01*
X103371904Y-135957142D01*
X103419523Y-135861904D01*
X103419523Y-135052380D01*
X104419523Y-136052380D02*
X103848095Y-136052380D01*
X104133809Y-136052380D02*
X104133809Y-135052380D01*
X104038571Y-135195238D01*
X103943333Y-135290476D01*
X103848095Y-135338095D01*
X130547619Y-119695238D02*
X130500000Y-119790476D01*
X130404761Y-119885714D01*
X130261904Y-120028571D01*
X130214285Y-120123809D01*
X130214285Y-120219047D01*
X130452380Y-120171428D02*
X130404761Y-120266666D01*
X130309523Y-120361904D01*
X130119047Y-120409523D01*
X129785714Y-120409523D01*
X129595238Y-120361904D01*
X129500000Y-120266666D01*
X129452380Y-120171428D01*
X129452380Y-119980952D01*
X129500000Y-119885714D01*
X129595238Y-119790476D01*
X129785714Y-119742857D01*
X130119047Y-119742857D01*
X130309523Y-119790476D01*
X130404761Y-119885714D01*
X130452380Y-119980952D01*
X130452380Y-120171428D01*
X130452380Y-118790476D02*
X130452380Y-119361904D01*
X130452380Y-119076190D02*
X129452380Y-119076190D01*
X129595238Y-119171428D01*
X129690476Y-119266666D01*
X129738095Y-119361904D01*
X120766666Y-121852380D02*
X120766666Y-122566666D01*
X120719047Y-122709523D01*
X120623809Y-122804761D01*
X120480952Y-122852380D01*
X120385714Y-122852380D01*
X121242857Y-122852380D02*
X121242857Y-121852380D01*
X121623809Y-121852380D01*
X121719047Y-121900000D01*
X121766666Y-121947619D01*
X121814285Y-122042857D01*
X121814285Y-122185714D01*
X121766666Y-122280952D01*
X121719047Y-122328571D01*
X121623809Y-122376190D01*
X121242857Y-122376190D01*
X122195238Y-121947619D02*
X122242857Y-121900000D01*
X122338095Y-121852380D01*
X122576190Y-121852380D01*
X122671428Y-121900000D01*
X122719047Y-121947619D01*
X122766666Y-122042857D01*
X122766666Y-122138095D01*
X122719047Y-122280952D01*
X122147619Y-122852380D01*
X122766666Y-122852380D01*
X116566666Y-120652380D02*
X116566666Y-121366666D01*
X116519047Y-121509523D01*
X116423809Y-121604761D01*
X116280952Y-121652380D01*
X116185714Y-121652380D01*
X117042857Y-121652380D02*
X117042857Y-120652380D01*
X117423809Y-120652380D01*
X117519047Y-120700000D01*
X117566666Y-120747619D01*
X117614285Y-120842857D01*
X117614285Y-120985714D01*
X117566666Y-121080952D01*
X117519047Y-121128571D01*
X117423809Y-121176190D01*
X117042857Y-121176190D01*
X118566666Y-121652380D02*
X117995238Y-121652380D01*
X118280952Y-121652380D02*
X118280952Y-120652380D01*
X118185714Y-120795238D01*
X118090476Y-120890476D01*
X117995238Y-120938095D01*
D13*
X93949747Y-123825042D02*
X93949747Y-123413271D01*
X94771947Y-123619157D02*
X93949747Y-123619157D01*
X94771947Y-123173071D02*
X94223814Y-123173071D01*
X93949747Y-123173071D02*
X93988900Y-123207385D01*
X94028052Y-123173071D01*
X93988900Y-123138757D01*
X93949747Y-123173071D01*
X94028052Y-123173071D01*
X94771947Y-122829928D02*
X94223814Y-122829928D01*
X94302119Y-122829928D02*
X94262966Y-122795614D01*
X94223814Y-122726985D01*
X94223814Y-122624042D01*
X94262966Y-122555414D01*
X94341271Y-122521100D01*
X94771947Y-122521100D01*
X94341271Y-122521100D02*
X94262966Y-122486785D01*
X94223814Y-122418157D01*
X94223814Y-122315214D01*
X94262966Y-122246585D01*
X94341271Y-122212271D01*
X94771947Y-122212271D01*
X94732795Y-121594614D02*
X94771947Y-121663242D01*
X94771947Y-121800500D01*
X94732795Y-121869128D01*
X94654490Y-121903442D01*
X94341271Y-121903442D01*
X94262966Y-121869128D01*
X94223814Y-121800500D01*
X94223814Y-121663242D01*
X94262966Y-121594614D01*
X94341271Y-121560300D01*
X94419576Y-121560300D01*
X94497880Y-121903442D01*
X94771947Y-121251471D02*
X93949747Y-121251471D01*
X93949747Y-121079900D01*
X93988900Y-120976957D01*
X94067204Y-120908328D01*
X94145509Y-120874014D01*
X94302119Y-120839700D01*
X94419576Y-120839700D01*
X94576185Y-120874014D01*
X94654490Y-120908328D01*
X94732795Y-120976957D01*
X94771947Y-121079900D01*
X94771947Y-121251471D01*
X94732795Y-120256357D02*
X94771947Y-120324985D01*
X94771947Y-120462242D01*
X94732795Y-120530871D01*
X94654490Y-120565185D01*
X94341271Y-120565185D01*
X94262966Y-120530871D01*
X94223814Y-120462242D01*
X94223814Y-120324985D01*
X94262966Y-120256357D01*
X94341271Y-120222042D01*
X94419576Y-120222042D01*
X94497880Y-120565185D01*
X94771947Y-119810271D02*
X94732795Y-119878900D01*
X94654490Y-119913214D01*
X93949747Y-119913214D01*
X94771947Y-119226928D02*
X94341271Y-119226928D01*
X94262966Y-119261242D01*
X94223814Y-119329871D01*
X94223814Y-119467128D01*
X94262966Y-119535757D01*
X94732795Y-119226928D02*
X94771947Y-119295557D01*
X94771947Y-119467128D01*
X94732795Y-119535757D01*
X94654490Y-119570071D01*
X94576185Y-119570071D01*
X94497880Y-119535757D01*
X94458728Y-119467128D01*
X94458728Y-119295557D01*
X94419576Y-119226928D01*
X94223814Y-118952414D02*
X94771947Y-118780842D01*
X94223814Y-118609271D02*
X94771947Y-118780842D01*
X94967709Y-118849471D01*
X95006861Y-118883785D01*
X95046014Y-118952414D01*
D11*
X95500000Y-116852380D02*
X95595238Y-116852380D01*
X95690476Y-116900000D01*
X95738095Y-116947619D01*
X95785714Y-117042857D01*
X95833333Y-117233333D01*
X95833333Y-117471428D01*
X95785714Y-117661904D01*
X95738095Y-117757142D01*
X95690476Y-117804761D01*
X95595238Y-117852380D01*
X95500000Y-117852380D01*
X95404761Y-117804761D01*
X95357142Y-117757142D01*
X95309523Y-117661904D01*
X95261904Y-117471428D01*
X95261904Y-117233333D01*
X95309523Y-117042857D01*
X95357142Y-116947619D01*
X95404761Y-116900000D01*
X95500000Y-116852380D01*
X96261904Y-117471428D02*
X97023809Y-117471428D01*
X98023809Y-117852380D02*
X97452380Y-117852380D01*
X97738095Y-117852380D02*
X97738095Y-116852380D01*
X97642857Y-116995238D01*
X97547619Y-117090476D01*
X97452380Y-117138095D01*
X98642857Y-116852380D02*
X98738095Y-116852380D01*
X98833333Y-116900000D01*
X98880952Y-116947619D01*
X98928571Y-117042857D01*
X98976190Y-117233333D01*
X98976190Y-117471428D01*
X98928571Y-117661904D01*
X98880952Y-117757142D01*
X98833333Y-117804761D01*
X98738095Y-117852380D01*
X98642857Y-117852380D01*
X98547619Y-117804761D01*
X98500000Y-117757142D01*
X98452380Y-117661904D01*
X98404761Y-117471428D01*
X98404761Y-117233333D01*
X98452380Y-117042857D01*
X98500000Y-116947619D01*
X98547619Y-116900000D01*
X98642857Y-116852380D01*
X99404761Y-117185714D02*
X99404761Y-117852380D01*
X99404761Y-117280952D02*
X99452380Y-117233333D01*
X99547619Y-117185714D01*
X99690476Y-117185714D01*
X99785714Y-117233333D01*
X99833333Y-117328571D01*
X99833333Y-117852380D01*
X100642857Y-117328571D02*
X100309523Y-117328571D01*
X100309523Y-117852380D02*
X100309523Y-116852380D01*
X100785714Y-116852380D01*
X113004761Y-133652380D02*
X112671428Y-133176190D01*
X112433333Y-133652380D02*
X112433333Y-132652380D01*
X112814285Y-132652380D01*
X112909523Y-132700000D01*
X112957142Y-132747619D01*
X113004761Y-132842857D01*
X113004761Y-132985714D01*
X112957142Y-133080952D01*
X112909523Y-133128571D01*
X112814285Y-133176190D01*
X112433333Y-133176190D01*
X113290476Y-132652380D02*
X113623809Y-133652380D01*
X113957142Y-132652380D01*
X114814285Y-133652380D02*
X114242857Y-133652380D01*
X114528571Y-133652380D02*
X114528571Y-132652380D01*
X114433333Y-132795238D01*
X114338095Y-132890476D01*
X114242857Y-132938095D01*
X122252380Y-140956666D02*
X121776190Y-141290000D01*
X122252380Y-141528095D02*
X121252380Y-141528095D01*
X121252380Y-141147142D01*
X121300000Y-141051904D01*
X121347619Y-141004285D01*
X121442857Y-140956666D01*
X121585714Y-140956666D01*
X121680952Y-141004285D01*
X121728571Y-141051904D01*
X121776190Y-141147142D01*
X121776190Y-141528095D01*
X121252380Y-140623333D02*
X121252380Y-140004285D01*
X121633333Y-140337619D01*
X121633333Y-140194761D01*
X121680952Y-140099523D01*
X121728571Y-140051904D01*
X121823809Y-140004285D01*
X122061904Y-140004285D01*
X122157142Y-140051904D01*
X122204761Y-140099523D01*
X122252380Y-140194761D01*
X122252380Y-140480476D01*
X122204761Y-140575714D01*
X122157142Y-140623333D01*
X114233333Y-125452380D02*
X113900000Y-124976190D01*
X113661904Y-125452380D02*
X113661904Y-124452380D01*
X114042857Y-124452380D01*
X114138095Y-124500000D01*
X114185714Y-124547619D01*
X114233333Y-124642857D01*
X114233333Y-124785714D01*
X114185714Y-124880952D01*
X114138095Y-124928571D01*
X114042857Y-124976190D01*
X113661904Y-124976190D01*
X114614285Y-124547619D02*
X114661904Y-124500000D01*
X114757142Y-124452380D01*
X114995238Y-124452380D01*
X115090476Y-124500000D01*
X115138095Y-124547619D01*
X115185714Y-124642857D01*
X115185714Y-124738095D01*
X115138095Y-124880952D01*
X114566666Y-125452380D01*
X115185714Y-125452380D01*
X126052380Y-140966666D02*
X125576190Y-141300000D01*
X126052380Y-141538095D02*
X125052380Y-141538095D01*
X125052380Y-141157142D01*
X125100000Y-141061904D01*
X125147619Y-141014285D01*
X125242857Y-140966666D01*
X125385714Y-140966666D01*
X125480952Y-141014285D01*
X125528571Y-141061904D01*
X125576190Y-141157142D01*
X125576190Y-141538095D01*
X126052380Y-140014285D02*
X126052380Y-140585714D01*
X126052380Y-140300000D02*
X125052380Y-140300000D01*
X125195238Y-140395238D01*
X125290476Y-140490476D01*
X125338095Y-140585714D01*
X95652380Y-133333333D02*
X96366666Y-133333333D01*
X96509523Y-133380952D01*
X96604761Y-133476190D01*
X96652380Y-133619047D01*
X96652380Y-133714285D01*
X95747619Y-132904761D02*
X95700000Y-132857142D01*
X95652380Y-132761904D01*
X95652380Y-132523809D01*
X95700000Y-132428571D01*
X95747619Y-132380952D01*
X95842857Y-132333333D01*
X95938095Y-132333333D01*
X96080952Y-132380952D01*
X96652380Y-132952380D01*
X96652380Y-132333333D01*
X131652380Y-133533333D02*
X132366666Y-133533333D01*
X132509523Y-133580952D01*
X132604761Y-133676190D01*
X132652380Y-133819047D01*
X132652380Y-133914285D01*
X132652380Y-132533333D02*
X132652380Y-133104761D01*
X132652380Y-132819047D02*
X131652380Y-132819047D01*
X131795238Y-132914285D01*
X131890476Y-133009523D01*
X131938095Y-133104761D01*
X96466666Y-145128571D02*
X96133333Y-145128571D01*
X96133333Y-145652380D02*
X96133333Y-144652380D01*
X96609523Y-144652380D01*
X97514285Y-145652380D02*
X96942857Y-145652380D01*
X97228571Y-145652380D02*
X97228571Y-144652380D01*
X97133333Y-144795238D01*
X97038095Y-144890476D01*
X96942857Y-144938095D01*
X108233333Y-118757142D02*
X108185714Y-118804761D01*
X108042857Y-118852380D01*
X107947619Y-118852380D01*
X107804761Y-118804761D01*
X107709523Y-118709523D01*
X107661904Y-118614285D01*
X107614285Y-118423809D01*
X107614285Y-118280952D01*
X107661904Y-118090476D01*
X107709523Y-117995238D01*
X107804761Y-117900000D01*
X107947619Y-117852380D01*
X108042857Y-117852380D01*
X108185714Y-117900000D01*
X108233333Y-117947619D01*
X109185714Y-118852380D02*
X108614285Y-118852380D01*
X108900000Y-118852380D02*
X108900000Y-117852380D01*
X108804761Y-117995238D01*
X108709523Y-118090476D01*
X108614285Y-118138095D01*
M02*
