G04 #@! TF.GenerationSoftware,KiCad,Pcbnew,(5.1.10)-1*
G04 #@! TF.CreationDate,2021-06-01T12:55:43+02:00*
G04 #@! TF.ProjectId,overvolt,6f766572-766f-46c7-942e-6b696361645f,rev?*
G04 #@! TF.SameCoordinates,Original*
G04 #@! TF.FileFunction,Copper,L2,Bot*
G04 #@! TF.FilePolarity,Positive*
%FSLAX46Y46*%
G04 Gerber Fmt 4.6, Leading zero omitted, Abs format (unit mm)*
G04 Created by KiCad (PCBNEW (5.1.10)-1) date 2021-06-01 12:55:43*
%MOMM*%
%LPD*%
G01*
G04 APERTURE LIST*
G04 #@! TA.AperFunction,ComponentPad*
%ADD10R,1.800000X1.800000*%
G04 #@! TD*
G04 #@! TA.AperFunction,ComponentPad*
%ADD11C,1.800000*%
G04 #@! TD*
G04 #@! TA.AperFunction,ComponentPad*
%ADD12R,1.600000X1.600000*%
G04 #@! TD*
G04 #@! TA.AperFunction,ComponentPad*
%ADD13O,1.600000X1.600000*%
G04 #@! TD*
G04 #@! TA.AperFunction,ComponentPad*
%ADD14O,1.800000X1.800000*%
G04 #@! TD*
G04 #@! TA.AperFunction,ComponentPad*
%ADD15R,1.700000X1.700000*%
G04 #@! TD*
G04 #@! TA.AperFunction,ComponentPad*
%ADD16O,1.700000X1.700000*%
G04 #@! TD*
G04 #@! TA.AperFunction,ComponentPad*
%ADD17C,1.600000*%
G04 #@! TD*
G04 #@! TA.AperFunction,ComponentPad*
%ADD18C,1.620000*%
G04 #@! TD*
G04 #@! TA.AperFunction,ComponentPad*
%ADD19R,2.500000X2.500000*%
G04 #@! TD*
G04 #@! TA.AperFunction,ComponentPad*
%ADD20C,2.500000*%
G04 #@! TD*
G04 #@! TA.AperFunction,ComponentPad*
%ADD21C,3.000000*%
G04 #@! TD*
G04 #@! TA.AperFunction,ViaPad*
%ADD22C,1.524000*%
G04 #@! TD*
G04 #@! TA.AperFunction,ViaPad*
%ADD23C,3.100000*%
G04 #@! TD*
G04 #@! TA.AperFunction,ViaPad*
%ADD24C,3.099999*%
G04 #@! TD*
G04 #@! TA.AperFunction,Conductor*
%ADD25C,0.508000*%
G04 #@! TD*
G04 #@! TA.AperFunction,Conductor*
%ADD26C,2.540000*%
G04 #@! TD*
G04 #@! TA.AperFunction,Conductor*
%ADD27C,0.762000*%
G04 #@! TD*
G04 #@! TA.AperFunction,Conductor*
%ADD28C,0.254000*%
G04 #@! TD*
G04 #@! TA.AperFunction,Conductor*
%ADD29C,0.100000*%
G04 #@! TD*
G04 APERTURE END LIST*
D10*
X121400000Y-133400000D03*
D11*
X118860000Y-133400000D03*
D12*
X99800000Y-125800000D03*
D13*
X107420000Y-133420000D03*
X99800000Y-128340000D03*
X107420000Y-130880000D03*
X99800000Y-130880000D03*
X107420000Y-128340000D03*
X99800000Y-133420000D03*
X107420000Y-125800000D03*
D10*
X127000000Y-126400000D03*
D14*
X127000000Y-123860000D03*
X127000000Y-121320000D03*
D15*
X121600000Y-127400000D03*
D16*
X121600000Y-124860000D03*
D12*
X99200000Y-121200000D03*
D17*
X96700000Y-121200000D03*
D18*
X110600000Y-128400000D03*
X115600000Y-130900000D03*
X110600000Y-133400000D03*
D17*
X121800000Y-144600000D03*
D13*
X121800000Y-136980000D03*
D17*
X118200000Y-124800000D03*
D13*
X110580000Y-124800000D03*
D17*
X125400000Y-144600000D03*
D13*
X125400000Y-136980000D03*
D19*
X92600000Y-127200000D03*
D20*
X92600000Y-132200000D03*
D19*
X136000000Y-132200000D03*
D20*
X136000000Y-127200000D03*
D21*
X95400000Y-141600000D03*
X117900000Y-141600000D03*
D10*
X124600000Y-133400000D03*
D11*
X127140000Y-133400000D03*
D12*
X104200000Y-121200000D03*
D17*
X106700000Y-121200000D03*
D22*
X118800000Y-145000000D03*
X118800000Y-138600000D03*
X128000000Y-144800000D03*
X127400000Y-136400000D03*
X133800000Y-137200000D03*
X133200000Y-122000000D03*
X92600000Y-121200000D03*
X101800000Y-122600000D03*
X108800000Y-122800000D03*
X103400000Y-129600000D03*
D23*
X138600000Y-118400000D03*
D24*
X138600000Y-144400000D03*
X90200000Y-144400000D03*
D23*
X90200000Y-118400000D03*
D22*
X124400000Y-125000000D03*
X125000000Y-121600000D03*
X127000000Y-118800000D03*
X113400000Y-126200000D03*
X129400000Y-126600000D03*
X98600000Y-137800000D03*
X98600000Y-141600000D03*
X111600000Y-138000000D03*
X111600000Y-141800000D03*
D25*
X118000000Y-141600000D02*
X117900000Y-141600000D01*
X117900000Y-140700000D02*
X117900000Y-141600000D01*
X110600000Y-133400000D02*
X117900000Y-140700000D01*
D26*
X136000000Y-132200000D02*
X132210000Y-132200000D01*
X120021320Y-141600000D02*
X117900000Y-141600000D01*
X122600000Y-141600000D02*
X120021320Y-141600000D01*
X125339602Y-141600000D02*
X122600000Y-141600000D01*
D27*
X122600000Y-141600000D02*
X122600000Y-142400000D01*
X101362000Y-125800000D02*
X99800000Y-125800000D01*
X104200000Y-122962000D02*
X101362000Y-125800000D01*
X104200000Y-121200000D02*
X104200000Y-122962000D01*
X105581001Y-119818999D02*
X104200000Y-121200000D01*
X107806641Y-119818999D02*
X105581001Y-119818999D01*
X111130643Y-123143001D02*
X107806641Y-119818999D01*
X125010209Y-123143001D02*
X111130643Y-123143001D01*
X125727208Y-123860000D02*
X125010209Y-123143001D01*
X127000000Y-123860000D02*
X125727208Y-123860000D01*
D26*
X126096638Y-141600000D02*
X125339602Y-141600000D01*
X132210000Y-135486638D02*
X126096638Y-141600000D01*
X132210000Y-132200000D02*
X132210000Y-135486638D01*
D25*
X121800000Y-142400000D02*
X122600000Y-141600000D01*
X121800000Y-144600000D02*
X121800000Y-142400000D01*
X125400000Y-142296638D02*
X126096638Y-141600000D01*
X125400000Y-144600000D02*
X125400000Y-142296638D01*
D26*
X132210000Y-124713362D02*
X132210000Y-132200000D01*
X131356638Y-123860000D02*
X132210000Y-124713362D01*
X127000000Y-123860000D02*
X131356638Y-123860000D01*
D27*
X107480000Y-128400000D02*
X107420000Y-128340000D01*
X110600000Y-128400000D02*
X107480000Y-128400000D01*
X110600000Y-130240000D02*
X110600000Y-128400000D01*
X107420000Y-133420000D02*
X110600000Y-130240000D01*
D25*
X125400000Y-135140000D02*
X125400000Y-136980000D01*
X127140000Y-133400000D02*
X125400000Y-135140000D01*
D27*
X121200000Y-133600000D02*
X121400000Y-133400000D01*
D25*
X121400000Y-136580000D02*
X121800000Y-136980000D01*
X121400000Y-133400000D02*
X121400000Y-136580000D01*
D26*
X95400000Y-135000000D02*
X92600000Y-132200000D01*
X95400000Y-141600000D02*
X95400000Y-135000000D01*
D25*
X120800000Y-127400000D02*
X118200000Y-124800000D01*
X121600000Y-127400000D02*
X120800000Y-127400000D01*
X108420000Y-124800000D02*
X107420000Y-125800000D01*
X110580000Y-124800000D02*
X108420000Y-124800000D01*
D27*
X99800000Y-130880000D02*
X99800000Y-133420000D01*
X99000001Y-130080001D02*
X99800000Y-130880000D01*
X98418999Y-123543001D02*
X98418999Y-129498999D01*
X99200000Y-122762000D02*
X98418999Y-123543001D01*
X98418999Y-129498999D02*
X99000001Y-130080001D01*
X99200000Y-121200000D02*
X99200000Y-122762000D01*
D28*
X140540001Y-146140000D02*
X88260000Y-146140000D01*
X88260000Y-132200000D01*
X90685783Y-132200000D01*
X90722565Y-132573445D01*
X90831495Y-132932539D01*
X91008387Y-133263482D01*
X91186790Y-133480865D01*
X93495001Y-135789077D01*
X93495000Y-140620053D01*
X93347047Y-140977244D01*
X93265000Y-141389721D01*
X93265000Y-141810279D01*
X93347047Y-142222756D01*
X93507988Y-142611302D01*
X93741637Y-142960983D01*
X94039017Y-143258363D01*
X94388698Y-143492012D01*
X94777244Y-143652953D01*
X95189721Y-143735000D01*
X95610279Y-143735000D01*
X96022756Y-143652953D01*
X96411302Y-143492012D01*
X96760983Y-143258363D01*
X97058363Y-142960983D01*
X97292012Y-142611302D01*
X97452953Y-142222756D01*
X97535000Y-141810279D01*
X97535000Y-141404495D01*
X104665000Y-141404495D01*
X104665000Y-141795505D01*
X104741282Y-142179003D01*
X104890915Y-142540250D01*
X105108149Y-142865364D01*
X105384636Y-143141851D01*
X105709750Y-143359085D01*
X106070997Y-143508718D01*
X106454495Y-143585000D01*
X106845505Y-143585000D01*
X107229003Y-143508718D01*
X107590250Y-143359085D01*
X107915364Y-143141851D01*
X108191851Y-142865364D01*
X108409085Y-142540250D01*
X108558718Y-142179003D01*
X108635000Y-141795505D01*
X108635000Y-141404495D01*
X108558718Y-141020997D01*
X108409085Y-140659750D01*
X108191851Y-140334636D01*
X107915364Y-140058149D01*
X107590250Y-139840915D01*
X107229003Y-139691282D01*
X106845505Y-139615000D01*
X106454495Y-139615000D01*
X106070997Y-139691282D01*
X105709750Y-139840915D01*
X105384636Y-140058149D01*
X105108149Y-140334636D01*
X104890915Y-140659750D01*
X104741282Y-141020997D01*
X104665000Y-141404495D01*
X97535000Y-141404495D01*
X97535000Y-141389721D01*
X97452953Y-140977244D01*
X97305000Y-140620054D01*
X97305000Y-135093580D01*
X97314217Y-135000000D01*
X97302005Y-134876011D01*
X97277436Y-134626555D01*
X97168506Y-134267461D01*
X97078850Y-134099727D01*
X96991613Y-133936517D01*
X96883264Y-133804494D01*
X96753556Y-133646444D01*
X96680860Y-133586784D01*
X93880865Y-130786790D01*
X93663482Y-130608387D01*
X93332539Y-130431495D01*
X92973445Y-130322565D01*
X92600000Y-130285783D01*
X92226555Y-130322565D01*
X91867461Y-130431495D01*
X91536518Y-130608387D01*
X91246445Y-130846445D01*
X91008387Y-131136518D01*
X90831495Y-131467461D01*
X90722565Y-131826555D01*
X90685783Y-132200000D01*
X88260000Y-132200000D01*
X88260000Y-123543001D01*
X97398084Y-123543001D01*
X97402999Y-123592903D01*
X97403000Y-129449087D01*
X97398084Y-129498999D01*
X97417701Y-129698169D01*
X97441008Y-129775000D01*
X97475798Y-129889686D01*
X97570140Y-130066189D01*
X97697104Y-130220895D01*
X97735867Y-130252707D01*
X98365000Y-130881840D01*
X98365000Y-131021335D01*
X98420147Y-131298574D01*
X98528320Y-131559727D01*
X98685363Y-131794759D01*
X98784000Y-131893396D01*
X98784001Y-132406603D01*
X98685363Y-132505241D01*
X98528320Y-132740273D01*
X98420147Y-133001426D01*
X98365000Y-133278665D01*
X98365000Y-133561335D01*
X98420147Y-133838574D01*
X98528320Y-134099727D01*
X98685363Y-134334759D01*
X98885241Y-134534637D01*
X99120273Y-134691680D01*
X99381426Y-134799853D01*
X99658665Y-134855000D01*
X99941335Y-134855000D01*
X100218574Y-134799853D01*
X100479727Y-134691680D01*
X100714759Y-134534637D01*
X100914637Y-134334759D01*
X101071680Y-134099727D01*
X101179853Y-133838574D01*
X101235000Y-133561335D01*
X101235000Y-133278665D01*
X101179853Y-133001426D01*
X101071680Y-132740273D01*
X100914637Y-132505241D01*
X100816000Y-132406604D01*
X100816000Y-131893396D01*
X100914637Y-131794759D01*
X101071680Y-131559727D01*
X101179853Y-131298574D01*
X101235000Y-131021335D01*
X101235000Y-130738665D01*
X105985000Y-130738665D01*
X105985000Y-131021335D01*
X106040147Y-131298574D01*
X106148320Y-131559727D01*
X106305363Y-131794759D01*
X106505241Y-131994637D01*
X106740273Y-132151680D01*
X107001426Y-132259853D01*
X107278665Y-132315000D01*
X107561335Y-132315000D01*
X107838574Y-132259853D01*
X108099727Y-132151680D01*
X108334759Y-131994637D01*
X108534637Y-131794759D01*
X108691680Y-131559727D01*
X108799853Y-131298574D01*
X108855000Y-131021335D01*
X108855000Y-130757680D01*
X114155000Y-130757680D01*
X114155000Y-131042320D01*
X114210530Y-131321491D01*
X114319457Y-131584464D01*
X114477595Y-131821134D01*
X114678866Y-132022405D01*
X114915536Y-132180543D01*
X115178509Y-132289470D01*
X115457680Y-132345000D01*
X115742320Y-132345000D01*
X116021491Y-132289470D01*
X116284464Y-132180543D01*
X116521134Y-132022405D01*
X116722405Y-131821134D01*
X116880543Y-131584464D01*
X116989470Y-131321491D01*
X117045000Y-131042320D01*
X117045000Y-130757680D01*
X116989470Y-130478509D01*
X116880543Y-130215536D01*
X116722405Y-129978866D01*
X116521134Y-129777595D01*
X116284464Y-129619457D01*
X116021491Y-129510530D01*
X115742320Y-129455000D01*
X115457680Y-129455000D01*
X115178509Y-129510530D01*
X114915536Y-129619457D01*
X114678866Y-129777595D01*
X114477595Y-129978866D01*
X114319457Y-130215536D01*
X114210530Y-130478509D01*
X114155000Y-130757680D01*
X108855000Y-130757680D01*
X108855000Y-130738665D01*
X108799853Y-130461426D01*
X108691680Y-130200273D01*
X108534637Y-129965241D01*
X108334759Y-129765363D01*
X108099727Y-129608320D01*
X107838574Y-129500147D01*
X107561335Y-129445000D01*
X107278665Y-129445000D01*
X107001426Y-129500147D01*
X106740273Y-129608320D01*
X106505241Y-129765363D01*
X106305363Y-129965241D01*
X106148320Y-130200273D01*
X106040147Y-130461426D01*
X105985000Y-130738665D01*
X101235000Y-130738665D01*
X101179853Y-130461426D01*
X101071680Y-130200273D01*
X100914637Y-129965241D01*
X100714759Y-129765363D01*
X100482241Y-129610000D01*
X100714759Y-129454637D01*
X100914637Y-129254759D01*
X101071680Y-129019727D01*
X101179853Y-128758574D01*
X101235000Y-128481335D01*
X101235000Y-128198665D01*
X101179853Y-127921426D01*
X101071680Y-127660273D01*
X100914637Y-127425241D01*
X100716039Y-127226643D01*
X100724482Y-127225812D01*
X100844180Y-127189502D01*
X100954494Y-127130537D01*
X101051185Y-127051185D01*
X101130537Y-126954494D01*
X101189502Y-126844180D01*
X101198050Y-126816000D01*
X101312098Y-126816000D01*
X101362000Y-126820915D01*
X101411902Y-126816000D01*
X101561171Y-126801298D01*
X101752687Y-126743202D01*
X101929190Y-126648860D01*
X102083896Y-126521896D01*
X102115712Y-126483128D01*
X104883133Y-123715708D01*
X104921896Y-123683896D01*
X105048860Y-123529190D01*
X105143202Y-123352687D01*
X105201298Y-123161171D01*
X105216000Y-123011902D01*
X105220915Y-122962001D01*
X105216000Y-122912099D01*
X105216000Y-122598050D01*
X105244180Y-122589502D01*
X105354494Y-122530537D01*
X105451185Y-122451185D01*
X105530537Y-122354494D01*
X105589502Y-122244180D01*
X105625812Y-122124482D01*
X105638072Y-122000000D01*
X105638072Y-121198769D01*
X106001842Y-120834999D01*
X107385801Y-120834999D01*
X110026738Y-123475937D01*
X109900273Y-123528320D01*
X109665241Y-123685363D01*
X109465363Y-123885241D01*
X109448151Y-123911000D01*
X108463668Y-123911000D01*
X108420000Y-123906699D01*
X108245725Y-123923864D01*
X108213340Y-123933688D01*
X108078149Y-123974697D01*
X107923709Y-124057247D01*
X107788341Y-124168341D01*
X107760505Y-124202259D01*
X107591720Y-124371044D01*
X107561335Y-124365000D01*
X107278665Y-124365000D01*
X107001426Y-124420147D01*
X106740273Y-124528320D01*
X106505241Y-124685363D01*
X106305363Y-124885241D01*
X106148320Y-125120273D01*
X106040147Y-125381426D01*
X105985000Y-125658665D01*
X105985000Y-125941335D01*
X106040147Y-126218574D01*
X106148320Y-126479727D01*
X106305363Y-126714759D01*
X106505241Y-126914637D01*
X106740273Y-127071680D01*
X107001426Y-127179853D01*
X107278665Y-127235000D01*
X107561335Y-127235000D01*
X107838574Y-127179853D01*
X108099727Y-127071680D01*
X108334759Y-126914637D01*
X108534637Y-126714759D01*
X108691680Y-126479727D01*
X108799853Y-126218574D01*
X108855000Y-125941335D01*
X108855000Y-125689000D01*
X109448151Y-125689000D01*
X109465363Y-125714759D01*
X109665241Y-125914637D01*
X109900273Y-126071680D01*
X110161426Y-126179853D01*
X110438665Y-126235000D01*
X110721335Y-126235000D01*
X110998574Y-126179853D01*
X111259727Y-126071680D01*
X111494759Y-125914637D01*
X111694637Y-125714759D01*
X111851680Y-125479727D01*
X111959853Y-125218574D01*
X112015000Y-124941335D01*
X112015000Y-124658665D01*
X111959853Y-124381426D01*
X111867722Y-124159001D01*
X116912278Y-124159001D01*
X116820147Y-124381426D01*
X116765000Y-124658665D01*
X116765000Y-124941335D01*
X116820147Y-125218574D01*
X116928320Y-125479727D01*
X117085363Y-125714759D01*
X117285241Y-125914637D01*
X117520273Y-126071680D01*
X117781426Y-126179853D01*
X118058665Y-126235000D01*
X118341335Y-126235000D01*
X118371721Y-126228956D01*
X120111928Y-127969163D01*
X120111928Y-128250000D01*
X120124188Y-128374482D01*
X120160498Y-128494180D01*
X120219463Y-128604494D01*
X120298815Y-128701185D01*
X120395506Y-128780537D01*
X120505820Y-128839502D01*
X120625518Y-128875812D01*
X120750000Y-128888072D01*
X122450000Y-128888072D01*
X122574482Y-128875812D01*
X122694180Y-128839502D01*
X122804494Y-128780537D01*
X122901185Y-128701185D01*
X122980537Y-128604494D01*
X123039502Y-128494180D01*
X123075812Y-128374482D01*
X123088072Y-128250000D01*
X123088072Y-126550000D01*
X123075812Y-126425518D01*
X123039502Y-126305820D01*
X122980537Y-126195506D01*
X122901185Y-126098815D01*
X122804494Y-126019463D01*
X122694180Y-125960498D01*
X122621620Y-125938487D01*
X122753475Y-125806632D01*
X122915990Y-125563411D01*
X123027932Y-125293158D01*
X123085000Y-125006260D01*
X123085000Y-124713740D01*
X123027932Y-124426842D01*
X122916989Y-124159001D01*
X124589369Y-124159001D01*
X124973500Y-124543133D01*
X125005312Y-124581896D01*
X125160018Y-124708860D01*
X125328102Y-124798702D01*
X125336521Y-124803202D01*
X125345562Y-124805945D01*
X125408387Y-124923482D01*
X125646444Y-125213556D01*
X125936518Y-125451613D01*
X126267461Y-125628506D01*
X126626555Y-125737436D01*
X126906418Y-125765000D01*
X130305000Y-125765000D01*
X130305001Y-132106408D01*
X130295783Y-132200000D01*
X130305000Y-132293582D01*
X130305001Y-134697560D01*
X125307563Y-139695000D01*
X118879946Y-139695000D01*
X118522756Y-139547047D01*
X118110279Y-139465000D01*
X117922236Y-139465000D01*
X112037460Y-133580225D01*
X112045000Y-133542320D01*
X112045000Y-133257680D01*
X112043237Y-133248816D01*
X117325000Y-133248816D01*
X117325000Y-133551184D01*
X117383989Y-133847743D01*
X117499701Y-134127095D01*
X117667688Y-134378505D01*
X117881495Y-134592312D01*
X118132905Y-134760299D01*
X118412257Y-134876011D01*
X118708816Y-134935000D01*
X119011184Y-134935000D01*
X119307743Y-134876011D01*
X119587095Y-134760299D01*
X119838505Y-134592312D01*
X119904944Y-134525873D01*
X119910498Y-134544180D01*
X119969463Y-134654494D01*
X120048815Y-134751185D01*
X120145506Y-134830537D01*
X120255820Y-134889502D01*
X120375518Y-134925812D01*
X120500000Y-134938072D01*
X120511000Y-134938072D01*
X120511001Y-136342085D01*
X120420147Y-136561426D01*
X120365000Y-136838665D01*
X120365000Y-137121335D01*
X120420147Y-137398574D01*
X120528320Y-137659727D01*
X120685363Y-137894759D01*
X120885241Y-138094637D01*
X121120273Y-138251680D01*
X121381426Y-138359853D01*
X121658665Y-138415000D01*
X121941335Y-138415000D01*
X122218574Y-138359853D01*
X122479727Y-138251680D01*
X122714759Y-138094637D01*
X122914637Y-137894759D01*
X123071680Y-137659727D01*
X123179853Y-137398574D01*
X123235000Y-137121335D01*
X123235000Y-136838665D01*
X123965000Y-136838665D01*
X123965000Y-137121335D01*
X124020147Y-137398574D01*
X124128320Y-137659727D01*
X124285363Y-137894759D01*
X124485241Y-138094637D01*
X124720273Y-138251680D01*
X124981426Y-138359853D01*
X125258665Y-138415000D01*
X125541335Y-138415000D01*
X125818574Y-138359853D01*
X126079727Y-138251680D01*
X126314759Y-138094637D01*
X126514637Y-137894759D01*
X126671680Y-137659727D01*
X126779853Y-137398574D01*
X126835000Y-137121335D01*
X126835000Y-136838665D01*
X126779853Y-136561426D01*
X126671680Y-136300273D01*
X126514637Y-136065241D01*
X126314759Y-135865363D01*
X126289000Y-135848151D01*
X126289000Y-135508235D01*
X126883236Y-134913999D01*
X126988816Y-134935000D01*
X127291184Y-134935000D01*
X127587743Y-134876011D01*
X127867095Y-134760299D01*
X128118505Y-134592312D01*
X128332312Y-134378505D01*
X128500299Y-134127095D01*
X128616011Y-133847743D01*
X128675000Y-133551184D01*
X128675000Y-133248816D01*
X128616011Y-132952257D01*
X128500299Y-132672905D01*
X128332312Y-132421495D01*
X128118505Y-132207688D01*
X127867095Y-132039701D01*
X127587743Y-131923989D01*
X127291184Y-131865000D01*
X126988816Y-131865000D01*
X126692257Y-131923989D01*
X126412905Y-132039701D01*
X126161495Y-132207688D01*
X125947688Y-132421495D01*
X125779701Y-132672905D01*
X125663989Y-132952257D01*
X125605000Y-133248816D01*
X125605000Y-133551184D01*
X125626001Y-133656764D01*
X124802264Y-134480501D01*
X124768341Y-134508341D01*
X124657247Y-134643710D01*
X124574697Y-134798150D01*
X124523864Y-134965727D01*
X124511000Y-135096334D01*
X124511000Y-135096340D01*
X124506700Y-135140000D01*
X124511000Y-135183660D01*
X124511000Y-135848151D01*
X124485241Y-135865363D01*
X124285363Y-136065241D01*
X124128320Y-136300273D01*
X124020147Y-136561426D01*
X123965000Y-136838665D01*
X123235000Y-136838665D01*
X123179853Y-136561426D01*
X123071680Y-136300273D01*
X122914637Y-136065241D01*
X122714759Y-135865363D01*
X122479727Y-135708320D01*
X122289000Y-135629318D01*
X122289000Y-134938072D01*
X122300000Y-134938072D01*
X122424482Y-134925812D01*
X122544180Y-134889502D01*
X122654494Y-134830537D01*
X122751185Y-134751185D01*
X122830537Y-134654494D01*
X122889502Y-134544180D01*
X122925812Y-134424482D01*
X122938072Y-134300000D01*
X122938072Y-132500000D01*
X122925812Y-132375518D01*
X122889502Y-132255820D01*
X122830537Y-132145506D01*
X122751185Y-132048815D01*
X122654494Y-131969463D01*
X122544180Y-131910498D01*
X122424482Y-131874188D01*
X122300000Y-131861928D01*
X120500000Y-131861928D01*
X120375518Y-131874188D01*
X120255820Y-131910498D01*
X120145506Y-131969463D01*
X120048815Y-132048815D01*
X119969463Y-132145506D01*
X119910498Y-132255820D01*
X119904944Y-132274127D01*
X119838505Y-132207688D01*
X119587095Y-132039701D01*
X119307743Y-131923989D01*
X119011184Y-131865000D01*
X118708816Y-131865000D01*
X118412257Y-131923989D01*
X118132905Y-132039701D01*
X117881495Y-132207688D01*
X117667688Y-132421495D01*
X117499701Y-132672905D01*
X117383989Y-132952257D01*
X117325000Y-133248816D01*
X112043237Y-133248816D01*
X111989470Y-132978509D01*
X111880543Y-132715536D01*
X111722405Y-132478866D01*
X111521134Y-132277595D01*
X111284464Y-132119457D01*
X111021491Y-132010530D01*
X110742320Y-131955000D01*
X110457680Y-131955000D01*
X110178509Y-132010530D01*
X109915536Y-132119457D01*
X109678866Y-132277595D01*
X109477595Y-132478866D01*
X109319457Y-132715536D01*
X109210530Y-132978509D01*
X109155000Y-133257680D01*
X109155000Y-133542320D01*
X109210530Y-133821491D01*
X109319457Y-134084464D01*
X109477595Y-134321134D01*
X109678866Y-134522405D01*
X109915536Y-134680543D01*
X110178509Y-134789470D01*
X110457680Y-134845000D01*
X110742320Y-134845000D01*
X110780225Y-134837460D01*
X116217662Y-140274898D01*
X116007988Y-140588698D01*
X115847047Y-140977244D01*
X115765000Y-141389721D01*
X115765000Y-141810279D01*
X115847047Y-142222756D01*
X116007988Y-142611302D01*
X116241637Y-142960983D01*
X116539017Y-143258363D01*
X116888698Y-143492012D01*
X117277244Y-143652953D01*
X117689721Y-143735000D01*
X118110279Y-143735000D01*
X118522756Y-143652953D01*
X118879946Y-143505000D01*
X120865604Y-143505000D01*
X120685363Y-143685241D01*
X120528320Y-143920273D01*
X120420147Y-144181426D01*
X120365000Y-144458665D01*
X120365000Y-144741335D01*
X120420147Y-145018574D01*
X120528320Y-145279727D01*
X120685363Y-145514759D01*
X120885241Y-145714637D01*
X121120273Y-145871680D01*
X121381426Y-145979853D01*
X121658665Y-146035000D01*
X121941335Y-146035000D01*
X122218574Y-145979853D01*
X122479727Y-145871680D01*
X122714759Y-145714637D01*
X122914637Y-145514759D01*
X123071680Y-145279727D01*
X123179853Y-145018574D01*
X123235000Y-144741335D01*
X123235000Y-144458665D01*
X123179853Y-144181426D01*
X123071680Y-143920273D01*
X122914637Y-143685241D01*
X122734396Y-143505000D01*
X124465604Y-143505000D01*
X124285363Y-143685241D01*
X124128320Y-143920273D01*
X124020147Y-144181426D01*
X123965000Y-144458665D01*
X123965000Y-144741335D01*
X124020147Y-145018574D01*
X124128320Y-145279727D01*
X124285363Y-145514759D01*
X124485241Y-145714637D01*
X124720273Y-145871680D01*
X124981426Y-145979853D01*
X125258665Y-146035000D01*
X125541335Y-146035000D01*
X125818574Y-145979853D01*
X126079727Y-145871680D01*
X126314759Y-145714637D01*
X126514637Y-145514759D01*
X126671680Y-145279727D01*
X126779853Y-145018574D01*
X126835000Y-144741335D01*
X126835000Y-144458665D01*
X126779853Y-144181426D01*
X126671680Y-143920273D01*
X126514637Y-143685241D01*
X126321469Y-143492073D01*
X126470083Y-143477436D01*
X126829177Y-143368506D01*
X127160120Y-143191613D01*
X127450194Y-142953556D01*
X127509858Y-142880855D01*
X133490866Y-136899849D01*
X133563556Y-136840194D01*
X133801613Y-136550120D01*
X133978506Y-136219177D01*
X134087436Y-135860083D01*
X134115000Y-135580220D01*
X134115000Y-135580211D01*
X134124216Y-135486639D01*
X134115000Y-135393067D01*
X134115000Y-134105000D01*
X136093582Y-134105000D01*
X136265455Y-134088072D01*
X137250000Y-134088072D01*
X137374482Y-134075812D01*
X137494180Y-134039502D01*
X137604494Y-133980537D01*
X137701185Y-133901185D01*
X137780537Y-133804494D01*
X137839502Y-133694180D01*
X137875812Y-133574482D01*
X137888072Y-133450000D01*
X137888072Y-132465456D01*
X137914217Y-132200000D01*
X137888072Y-131934544D01*
X137888072Y-130950000D01*
X137875812Y-130825518D01*
X137839502Y-130705820D01*
X137780537Y-130595506D01*
X137701185Y-130498815D01*
X137604494Y-130419463D01*
X137494180Y-130360498D01*
X137374482Y-130324188D01*
X137250000Y-130311928D01*
X136265455Y-130311928D01*
X136093582Y-130295000D01*
X134115000Y-130295000D01*
X134115000Y-124806941D01*
X134124217Y-124713361D01*
X134109498Y-124563916D01*
X134087436Y-124339917D01*
X133978506Y-123980823D01*
X133801613Y-123649880D01*
X133563556Y-123359806D01*
X133490860Y-123300146D01*
X132769858Y-122579144D01*
X132710194Y-122506444D01*
X132420120Y-122268387D01*
X132089177Y-122091494D01*
X131730083Y-121982564D01*
X131450220Y-121955000D01*
X131450218Y-121955000D01*
X131356638Y-121945783D01*
X131263058Y-121955000D01*
X128398446Y-121955000D01*
X128476011Y-121767743D01*
X128535000Y-121471184D01*
X128535000Y-121168816D01*
X128476011Y-120872257D01*
X128360299Y-120592905D01*
X128192312Y-120341495D01*
X127978505Y-120127688D01*
X127727095Y-119959701D01*
X127447743Y-119843989D01*
X127151184Y-119785000D01*
X126848816Y-119785000D01*
X126552257Y-119843989D01*
X126272905Y-119959701D01*
X126021495Y-120127688D01*
X125807688Y-120341495D01*
X125639701Y-120592905D01*
X125523989Y-120872257D01*
X125465000Y-121168816D01*
X125465000Y-121471184D01*
X125523989Y-121767743D01*
X125639701Y-122047095D01*
X125807688Y-122298505D01*
X125849216Y-122340033D01*
X125739480Y-122430091D01*
X125732105Y-122421105D01*
X125577399Y-122294141D01*
X125400896Y-122199799D01*
X125209380Y-122141703D01*
X125060111Y-122127001D01*
X125010209Y-122122086D01*
X124960307Y-122127001D01*
X111551484Y-122127001D01*
X108560353Y-119135871D01*
X108528537Y-119097103D01*
X108373831Y-118970139D01*
X108197328Y-118875797D01*
X108005812Y-118817701D01*
X107856543Y-118802999D01*
X107806641Y-118798084D01*
X107756739Y-118802999D01*
X105630894Y-118802999D01*
X105581000Y-118798085D01*
X105531106Y-118802999D01*
X105531099Y-118802999D01*
X105401178Y-118815795D01*
X105381829Y-118817701D01*
X105323733Y-118835325D01*
X105190314Y-118875797D01*
X105013811Y-118970139D01*
X104859105Y-119097103D01*
X104827293Y-119135866D01*
X104201231Y-119761928D01*
X103400000Y-119761928D01*
X103275518Y-119774188D01*
X103155820Y-119810498D01*
X103045506Y-119869463D01*
X102948815Y-119948815D01*
X102869463Y-120045506D01*
X102810498Y-120155820D01*
X102774188Y-120275518D01*
X102761928Y-120400000D01*
X102761928Y-122000000D01*
X102774188Y-122124482D01*
X102810498Y-122244180D01*
X102869463Y-122354494D01*
X102948815Y-122451185D01*
X103045506Y-122530537D01*
X103142680Y-122582479D01*
X101107601Y-124617559D01*
X101051185Y-124548815D01*
X100954494Y-124469463D01*
X100844180Y-124410498D01*
X100724482Y-124374188D01*
X100600000Y-124361928D01*
X99434999Y-124361928D01*
X99434999Y-123963841D01*
X99883133Y-123515708D01*
X99921896Y-123483896D01*
X100048860Y-123329190D01*
X100143202Y-123152687D01*
X100201298Y-122961171D01*
X100216000Y-122811902D01*
X100216000Y-122811895D01*
X100220914Y-122762001D01*
X100216000Y-122712107D01*
X100216000Y-122598050D01*
X100244180Y-122589502D01*
X100354494Y-122530537D01*
X100451185Y-122451185D01*
X100530537Y-122354494D01*
X100589502Y-122244180D01*
X100625812Y-122124482D01*
X100638072Y-122000000D01*
X100638072Y-120400000D01*
X100625812Y-120275518D01*
X100589502Y-120155820D01*
X100530537Y-120045506D01*
X100451185Y-119948815D01*
X100354494Y-119869463D01*
X100244180Y-119810498D01*
X100124482Y-119774188D01*
X100000000Y-119761928D01*
X98400000Y-119761928D01*
X98275518Y-119774188D01*
X98155820Y-119810498D01*
X98045506Y-119869463D01*
X97948815Y-119948815D01*
X97869463Y-120045506D01*
X97810498Y-120155820D01*
X97774188Y-120275518D01*
X97761928Y-120400000D01*
X97761928Y-122000000D01*
X97774188Y-122124482D01*
X97810498Y-122244180D01*
X97869463Y-122354494D01*
X97948815Y-122451185D01*
X98017558Y-122507601D01*
X97735871Y-122789289D01*
X97697103Y-122821105D01*
X97570139Y-122975811D01*
X97475797Y-123152315D01*
X97473111Y-123161171D01*
X97417701Y-123343831D01*
X97398084Y-123543001D01*
X88260000Y-123543001D01*
X88260000Y-116660000D01*
X140540000Y-116660000D01*
X140540001Y-146140000D01*
G04 #@! TA.AperFunction,Conductor*
D29*
G36*
X140540001Y-146140000D02*
G01*
X88260000Y-146140000D01*
X88260000Y-132200000D01*
X90685783Y-132200000D01*
X90722565Y-132573445D01*
X90831495Y-132932539D01*
X91008387Y-133263482D01*
X91186790Y-133480865D01*
X93495001Y-135789077D01*
X93495000Y-140620053D01*
X93347047Y-140977244D01*
X93265000Y-141389721D01*
X93265000Y-141810279D01*
X93347047Y-142222756D01*
X93507988Y-142611302D01*
X93741637Y-142960983D01*
X94039017Y-143258363D01*
X94388698Y-143492012D01*
X94777244Y-143652953D01*
X95189721Y-143735000D01*
X95610279Y-143735000D01*
X96022756Y-143652953D01*
X96411302Y-143492012D01*
X96760983Y-143258363D01*
X97058363Y-142960983D01*
X97292012Y-142611302D01*
X97452953Y-142222756D01*
X97535000Y-141810279D01*
X97535000Y-141404495D01*
X104665000Y-141404495D01*
X104665000Y-141795505D01*
X104741282Y-142179003D01*
X104890915Y-142540250D01*
X105108149Y-142865364D01*
X105384636Y-143141851D01*
X105709750Y-143359085D01*
X106070997Y-143508718D01*
X106454495Y-143585000D01*
X106845505Y-143585000D01*
X107229003Y-143508718D01*
X107590250Y-143359085D01*
X107915364Y-143141851D01*
X108191851Y-142865364D01*
X108409085Y-142540250D01*
X108558718Y-142179003D01*
X108635000Y-141795505D01*
X108635000Y-141404495D01*
X108558718Y-141020997D01*
X108409085Y-140659750D01*
X108191851Y-140334636D01*
X107915364Y-140058149D01*
X107590250Y-139840915D01*
X107229003Y-139691282D01*
X106845505Y-139615000D01*
X106454495Y-139615000D01*
X106070997Y-139691282D01*
X105709750Y-139840915D01*
X105384636Y-140058149D01*
X105108149Y-140334636D01*
X104890915Y-140659750D01*
X104741282Y-141020997D01*
X104665000Y-141404495D01*
X97535000Y-141404495D01*
X97535000Y-141389721D01*
X97452953Y-140977244D01*
X97305000Y-140620054D01*
X97305000Y-135093580D01*
X97314217Y-135000000D01*
X97302005Y-134876011D01*
X97277436Y-134626555D01*
X97168506Y-134267461D01*
X97078850Y-134099727D01*
X96991613Y-133936517D01*
X96883264Y-133804494D01*
X96753556Y-133646444D01*
X96680860Y-133586784D01*
X93880865Y-130786790D01*
X93663482Y-130608387D01*
X93332539Y-130431495D01*
X92973445Y-130322565D01*
X92600000Y-130285783D01*
X92226555Y-130322565D01*
X91867461Y-130431495D01*
X91536518Y-130608387D01*
X91246445Y-130846445D01*
X91008387Y-131136518D01*
X90831495Y-131467461D01*
X90722565Y-131826555D01*
X90685783Y-132200000D01*
X88260000Y-132200000D01*
X88260000Y-123543001D01*
X97398084Y-123543001D01*
X97402999Y-123592903D01*
X97403000Y-129449087D01*
X97398084Y-129498999D01*
X97417701Y-129698169D01*
X97441008Y-129775000D01*
X97475798Y-129889686D01*
X97570140Y-130066189D01*
X97697104Y-130220895D01*
X97735867Y-130252707D01*
X98365000Y-130881840D01*
X98365000Y-131021335D01*
X98420147Y-131298574D01*
X98528320Y-131559727D01*
X98685363Y-131794759D01*
X98784000Y-131893396D01*
X98784001Y-132406603D01*
X98685363Y-132505241D01*
X98528320Y-132740273D01*
X98420147Y-133001426D01*
X98365000Y-133278665D01*
X98365000Y-133561335D01*
X98420147Y-133838574D01*
X98528320Y-134099727D01*
X98685363Y-134334759D01*
X98885241Y-134534637D01*
X99120273Y-134691680D01*
X99381426Y-134799853D01*
X99658665Y-134855000D01*
X99941335Y-134855000D01*
X100218574Y-134799853D01*
X100479727Y-134691680D01*
X100714759Y-134534637D01*
X100914637Y-134334759D01*
X101071680Y-134099727D01*
X101179853Y-133838574D01*
X101235000Y-133561335D01*
X101235000Y-133278665D01*
X101179853Y-133001426D01*
X101071680Y-132740273D01*
X100914637Y-132505241D01*
X100816000Y-132406604D01*
X100816000Y-131893396D01*
X100914637Y-131794759D01*
X101071680Y-131559727D01*
X101179853Y-131298574D01*
X101235000Y-131021335D01*
X101235000Y-130738665D01*
X105985000Y-130738665D01*
X105985000Y-131021335D01*
X106040147Y-131298574D01*
X106148320Y-131559727D01*
X106305363Y-131794759D01*
X106505241Y-131994637D01*
X106740273Y-132151680D01*
X107001426Y-132259853D01*
X107278665Y-132315000D01*
X107561335Y-132315000D01*
X107838574Y-132259853D01*
X108099727Y-132151680D01*
X108334759Y-131994637D01*
X108534637Y-131794759D01*
X108691680Y-131559727D01*
X108799853Y-131298574D01*
X108855000Y-131021335D01*
X108855000Y-130757680D01*
X114155000Y-130757680D01*
X114155000Y-131042320D01*
X114210530Y-131321491D01*
X114319457Y-131584464D01*
X114477595Y-131821134D01*
X114678866Y-132022405D01*
X114915536Y-132180543D01*
X115178509Y-132289470D01*
X115457680Y-132345000D01*
X115742320Y-132345000D01*
X116021491Y-132289470D01*
X116284464Y-132180543D01*
X116521134Y-132022405D01*
X116722405Y-131821134D01*
X116880543Y-131584464D01*
X116989470Y-131321491D01*
X117045000Y-131042320D01*
X117045000Y-130757680D01*
X116989470Y-130478509D01*
X116880543Y-130215536D01*
X116722405Y-129978866D01*
X116521134Y-129777595D01*
X116284464Y-129619457D01*
X116021491Y-129510530D01*
X115742320Y-129455000D01*
X115457680Y-129455000D01*
X115178509Y-129510530D01*
X114915536Y-129619457D01*
X114678866Y-129777595D01*
X114477595Y-129978866D01*
X114319457Y-130215536D01*
X114210530Y-130478509D01*
X114155000Y-130757680D01*
X108855000Y-130757680D01*
X108855000Y-130738665D01*
X108799853Y-130461426D01*
X108691680Y-130200273D01*
X108534637Y-129965241D01*
X108334759Y-129765363D01*
X108099727Y-129608320D01*
X107838574Y-129500147D01*
X107561335Y-129445000D01*
X107278665Y-129445000D01*
X107001426Y-129500147D01*
X106740273Y-129608320D01*
X106505241Y-129765363D01*
X106305363Y-129965241D01*
X106148320Y-130200273D01*
X106040147Y-130461426D01*
X105985000Y-130738665D01*
X101235000Y-130738665D01*
X101179853Y-130461426D01*
X101071680Y-130200273D01*
X100914637Y-129965241D01*
X100714759Y-129765363D01*
X100482241Y-129610000D01*
X100714759Y-129454637D01*
X100914637Y-129254759D01*
X101071680Y-129019727D01*
X101179853Y-128758574D01*
X101235000Y-128481335D01*
X101235000Y-128198665D01*
X101179853Y-127921426D01*
X101071680Y-127660273D01*
X100914637Y-127425241D01*
X100716039Y-127226643D01*
X100724482Y-127225812D01*
X100844180Y-127189502D01*
X100954494Y-127130537D01*
X101051185Y-127051185D01*
X101130537Y-126954494D01*
X101189502Y-126844180D01*
X101198050Y-126816000D01*
X101312098Y-126816000D01*
X101362000Y-126820915D01*
X101411902Y-126816000D01*
X101561171Y-126801298D01*
X101752687Y-126743202D01*
X101929190Y-126648860D01*
X102083896Y-126521896D01*
X102115712Y-126483128D01*
X104883133Y-123715708D01*
X104921896Y-123683896D01*
X105048860Y-123529190D01*
X105143202Y-123352687D01*
X105201298Y-123161171D01*
X105216000Y-123011902D01*
X105220915Y-122962001D01*
X105216000Y-122912099D01*
X105216000Y-122598050D01*
X105244180Y-122589502D01*
X105354494Y-122530537D01*
X105451185Y-122451185D01*
X105530537Y-122354494D01*
X105589502Y-122244180D01*
X105625812Y-122124482D01*
X105638072Y-122000000D01*
X105638072Y-121198769D01*
X106001842Y-120834999D01*
X107385801Y-120834999D01*
X110026738Y-123475937D01*
X109900273Y-123528320D01*
X109665241Y-123685363D01*
X109465363Y-123885241D01*
X109448151Y-123911000D01*
X108463668Y-123911000D01*
X108420000Y-123906699D01*
X108245725Y-123923864D01*
X108213340Y-123933688D01*
X108078149Y-123974697D01*
X107923709Y-124057247D01*
X107788341Y-124168341D01*
X107760505Y-124202259D01*
X107591720Y-124371044D01*
X107561335Y-124365000D01*
X107278665Y-124365000D01*
X107001426Y-124420147D01*
X106740273Y-124528320D01*
X106505241Y-124685363D01*
X106305363Y-124885241D01*
X106148320Y-125120273D01*
X106040147Y-125381426D01*
X105985000Y-125658665D01*
X105985000Y-125941335D01*
X106040147Y-126218574D01*
X106148320Y-126479727D01*
X106305363Y-126714759D01*
X106505241Y-126914637D01*
X106740273Y-127071680D01*
X107001426Y-127179853D01*
X107278665Y-127235000D01*
X107561335Y-127235000D01*
X107838574Y-127179853D01*
X108099727Y-127071680D01*
X108334759Y-126914637D01*
X108534637Y-126714759D01*
X108691680Y-126479727D01*
X108799853Y-126218574D01*
X108855000Y-125941335D01*
X108855000Y-125689000D01*
X109448151Y-125689000D01*
X109465363Y-125714759D01*
X109665241Y-125914637D01*
X109900273Y-126071680D01*
X110161426Y-126179853D01*
X110438665Y-126235000D01*
X110721335Y-126235000D01*
X110998574Y-126179853D01*
X111259727Y-126071680D01*
X111494759Y-125914637D01*
X111694637Y-125714759D01*
X111851680Y-125479727D01*
X111959853Y-125218574D01*
X112015000Y-124941335D01*
X112015000Y-124658665D01*
X111959853Y-124381426D01*
X111867722Y-124159001D01*
X116912278Y-124159001D01*
X116820147Y-124381426D01*
X116765000Y-124658665D01*
X116765000Y-124941335D01*
X116820147Y-125218574D01*
X116928320Y-125479727D01*
X117085363Y-125714759D01*
X117285241Y-125914637D01*
X117520273Y-126071680D01*
X117781426Y-126179853D01*
X118058665Y-126235000D01*
X118341335Y-126235000D01*
X118371721Y-126228956D01*
X120111928Y-127969163D01*
X120111928Y-128250000D01*
X120124188Y-128374482D01*
X120160498Y-128494180D01*
X120219463Y-128604494D01*
X120298815Y-128701185D01*
X120395506Y-128780537D01*
X120505820Y-128839502D01*
X120625518Y-128875812D01*
X120750000Y-128888072D01*
X122450000Y-128888072D01*
X122574482Y-128875812D01*
X122694180Y-128839502D01*
X122804494Y-128780537D01*
X122901185Y-128701185D01*
X122980537Y-128604494D01*
X123039502Y-128494180D01*
X123075812Y-128374482D01*
X123088072Y-128250000D01*
X123088072Y-126550000D01*
X123075812Y-126425518D01*
X123039502Y-126305820D01*
X122980537Y-126195506D01*
X122901185Y-126098815D01*
X122804494Y-126019463D01*
X122694180Y-125960498D01*
X122621620Y-125938487D01*
X122753475Y-125806632D01*
X122915990Y-125563411D01*
X123027932Y-125293158D01*
X123085000Y-125006260D01*
X123085000Y-124713740D01*
X123027932Y-124426842D01*
X122916989Y-124159001D01*
X124589369Y-124159001D01*
X124973500Y-124543133D01*
X125005312Y-124581896D01*
X125160018Y-124708860D01*
X125328102Y-124798702D01*
X125336521Y-124803202D01*
X125345562Y-124805945D01*
X125408387Y-124923482D01*
X125646444Y-125213556D01*
X125936518Y-125451613D01*
X126267461Y-125628506D01*
X126626555Y-125737436D01*
X126906418Y-125765000D01*
X130305000Y-125765000D01*
X130305001Y-132106408D01*
X130295783Y-132200000D01*
X130305000Y-132293582D01*
X130305001Y-134697560D01*
X125307563Y-139695000D01*
X118879946Y-139695000D01*
X118522756Y-139547047D01*
X118110279Y-139465000D01*
X117922236Y-139465000D01*
X112037460Y-133580225D01*
X112045000Y-133542320D01*
X112045000Y-133257680D01*
X112043237Y-133248816D01*
X117325000Y-133248816D01*
X117325000Y-133551184D01*
X117383989Y-133847743D01*
X117499701Y-134127095D01*
X117667688Y-134378505D01*
X117881495Y-134592312D01*
X118132905Y-134760299D01*
X118412257Y-134876011D01*
X118708816Y-134935000D01*
X119011184Y-134935000D01*
X119307743Y-134876011D01*
X119587095Y-134760299D01*
X119838505Y-134592312D01*
X119904944Y-134525873D01*
X119910498Y-134544180D01*
X119969463Y-134654494D01*
X120048815Y-134751185D01*
X120145506Y-134830537D01*
X120255820Y-134889502D01*
X120375518Y-134925812D01*
X120500000Y-134938072D01*
X120511000Y-134938072D01*
X120511001Y-136342085D01*
X120420147Y-136561426D01*
X120365000Y-136838665D01*
X120365000Y-137121335D01*
X120420147Y-137398574D01*
X120528320Y-137659727D01*
X120685363Y-137894759D01*
X120885241Y-138094637D01*
X121120273Y-138251680D01*
X121381426Y-138359853D01*
X121658665Y-138415000D01*
X121941335Y-138415000D01*
X122218574Y-138359853D01*
X122479727Y-138251680D01*
X122714759Y-138094637D01*
X122914637Y-137894759D01*
X123071680Y-137659727D01*
X123179853Y-137398574D01*
X123235000Y-137121335D01*
X123235000Y-136838665D01*
X123965000Y-136838665D01*
X123965000Y-137121335D01*
X124020147Y-137398574D01*
X124128320Y-137659727D01*
X124285363Y-137894759D01*
X124485241Y-138094637D01*
X124720273Y-138251680D01*
X124981426Y-138359853D01*
X125258665Y-138415000D01*
X125541335Y-138415000D01*
X125818574Y-138359853D01*
X126079727Y-138251680D01*
X126314759Y-138094637D01*
X126514637Y-137894759D01*
X126671680Y-137659727D01*
X126779853Y-137398574D01*
X126835000Y-137121335D01*
X126835000Y-136838665D01*
X126779853Y-136561426D01*
X126671680Y-136300273D01*
X126514637Y-136065241D01*
X126314759Y-135865363D01*
X126289000Y-135848151D01*
X126289000Y-135508235D01*
X126883236Y-134913999D01*
X126988816Y-134935000D01*
X127291184Y-134935000D01*
X127587743Y-134876011D01*
X127867095Y-134760299D01*
X128118505Y-134592312D01*
X128332312Y-134378505D01*
X128500299Y-134127095D01*
X128616011Y-133847743D01*
X128675000Y-133551184D01*
X128675000Y-133248816D01*
X128616011Y-132952257D01*
X128500299Y-132672905D01*
X128332312Y-132421495D01*
X128118505Y-132207688D01*
X127867095Y-132039701D01*
X127587743Y-131923989D01*
X127291184Y-131865000D01*
X126988816Y-131865000D01*
X126692257Y-131923989D01*
X126412905Y-132039701D01*
X126161495Y-132207688D01*
X125947688Y-132421495D01*
X125779701Y-132672905D01*
X125663989Y-132952257D01*
X125605000Y-133248816D01*
X125605000Y-133551184D01*
X125626001Y-133656764D01*
X124802264Y-134480501D01*
X124768341Y-134508341D01*
X124657247Y-134643710D01*
X124574697Y-134798150D01*
X124523864Y-134965727D01*
X124511000Y-135096334D01*
X124511000Y-135096340D01*
X124506700Y-135140000D01*
X124511000Y-135183660D01*
X124511000Y-135848151D01*
X124485241Y-135865363D01*
X124285363Y-136065241D01*
X124128320Y-136300273D01*
X124020147Y-136561426D01*
X123965000Y-136838665D01*
X123235000Y-136838665D01*
X123179853Y-136561426D01*
X123071680Y-136300273D01*
X122914637Y-136065241D01*
X122714759Y-135865363D01*
X122479727Y-135708320D01*
X122289000Y-135629318D01*
X122289000Y-134938072D01*
X122300000Y-134938072D01*
X122424482Y-134925812D01*
X122544180Y-134889502D01*
X122654494Y-134830537D01*
X122751185Y-134751185D01*
X122830537Y-134654494D01*
X122889502Y-134544180D01*
X122925812Y-134424482D01*
X122938072Y-134300000D01*
X122938072Y-132500000D01*
X122925812Y-132375518D01*
X122889502Y-132255820D01*
X122830537Y-132145506D01*
X122751185Y-132048815D01*
X122654494Y-131969463D01*
X122544180Y-131910498D01*
X122424482Y-131874188D01*
X122300000Y-131861928D01*
X120500000Y-131861928D01*
X120375518Y-131874188D01*
X120255820Y-131910498D01*
X120145506Y-131969463D01*
X120048815Y-132048815D01*
X119969463Y-132145506D01*
X119910498Y-132255820D01*
X119904944Y-132274127D01*
X119838505Y-132207688D01*
X119587095Y-132039701D01*
X119307743Y-131923989D01*
X119011184Y-131865000D01*
X118708816Y-131865000D01*
X118412257Y-131923989D01*
X118132905Y-132039701D01*
X117881495Y-132207688D01*
X117667688Y-132421495D01*
X117499701Y-132672905D01*
X117383989Y-132952257D01*
X117325000Y-133248816D01*
X112043237Y-133248816D01*
X111989470Y-132978509D01*
X111880543Y-132715536D01*
X111722405Y-132478866D01*
X111521134Y-132277595D01*
X111284464Y-132119457D01*
X111021491Y-132010530D01*
X110742320Y-131955000D01*
X110457680Y-131955000D01*
X110178509Y-132010530D01*
X109915536Y-132119457D01*
X109678866Y-132277595D01*
X109477595Y-132478866D01*
X109319457Y-132715536D01*
X109210530Y-132978509D01*
X109155000Y-133257680D01*
X109155000Y-133542320D01*
X109210530Y-133821491D01*
X109319457Y-134084464D01*
X109477595Y-134321134D01*
X109678866Y-134522405D01*
X109915536Y-134680543D01*
X110178509Y-134789470D01*
X110457680Y-134845000D01*
X110742320Y-134845000D01*
X110780225Y-134837460D01*
X116217662Y-140274898D01*
X116007988Y-140588698D01*
X115847047Y-140977244D01*
X115765000Y-141389721D01*
X115765000Y-141810279D01*
X115847047Y-142222756D01*
X116007988Y-142611302D01*
X116241637Y-142960983D01*
X116539017Y-143258363D01*
X116888698Y-143492012D01*
X117277244Y-143652953D01*
X117689721Y-143735000D01*
X118110279Y-143735000D01*
X118522756Y-143652953D01*
X118879946Y-143505000D01*
X120865604Y-143505000D01*
X120685363Y-143685241D01*
X120528320Y-143920273D01*
X120420147Y-144181426D01*
X120365000Y-144458665D01*
X120365000Y-144741335D01*
X120420147Y-145018574D01*
X120528320Y-145279727D01*
X120685363Y-145514759D01*
X120885241Y-145714637D01*
X121120273Y-145871680D01*
X121381426Y-145979853D01*
X121658665Y-146035000D01*
X121941335Y-146035000D01*
X122218574Y-145979853D01*
X122479727Y-145871680D01*
X122714759Y-145714637D01*
X122914637Y-145514759D01*
X123071680Y-145279727D01*
X123179853Y-145018574D01*
X123235000Y-144741335D01*
X123235000Y-144458665D01*
X123179853Y-144181426D01*
X123071680Y-143920273D01*
X122914637Y-143685241D01*
X122734396Y-143505000D01*
X124465604Y-143505000D01*
X124285363Y-143685241D01*
X124128320Y-143920273D01*
X124020147Y-144181426D01*
X123965000Y-144458665D01*
X123965000Y-144741335D01*
X124020147Y-145018574D01*
X124128320Y-145279727D01*
X124285363Y-145514759D01*
X124485241Y-145714637D01*
X124720273Y-145871680D01*
X124981426Y-145979853D01*
X125258665Y-146035000D01*
X125541335Y-146035000D01*
X125818574Y-145979853D01*
X126079727Y-145871680D01*
X126314759Y-145714637D01*
X126514637Y-145514759D01*
X126671680Y-145279727D01*
X126779853Y-145018574D01*
X126835000Y-144741335D01*
X126835000Y-144458665D01*
X126779853Y-144181426D01*
X126671680Y-143920273D01*
X126514637Y-143685241D01*
X126321469Y-143492073D01*
X126470083Y-143477436D01*
X126829177Y-143368506D01*
X127160120Y-143191613D01*
X127450194Y-142953556D01*
X127509858Y-142880855D01*
X133490866Y-136899849D01*
X133563556Y-136840194D01*
X133801613Y-136550120D01*
X133978506Y-136219177D01*
X134087436Y-135860083D01*
X134115000Y-135580220D01*
X134115000Y-135580211D01*
X134124216Y-135486639D01*
X134115000Y-135393067D01*
X134115000Y-134105000D01*
X136093582Y-134105000D01*
X136265455Y-134088072D01*
X137250000Y-134088072D01*
X137374482Y-134075812D01*
X137494180Y-134039502D01*
X137604494Y-133980537D01*
X137701185Y-133901185D01*
X137780537Y-133804494D01*
X137839502Y-133694180D01*
X137875812Y-133574482D01*
X137888072Y-133450000D01*
X137888072Y-132465456D01*
X137914217Y-132200000D01*
X137888072Y-131934544D01*
X137888072Y-130950000D01*
X137875812Y-130825518D01*
X137839502Y-130705820D01*
X137780537Y-130595506D01*
X137701185Y-130498815D01*
X137604494Y-130419463D01*
X137494180Y-130360498D01*
X137374482Y-130324188D01*
X137250000Y-130311928D01*
X136265455Y-130311928D01*
X136093582Y-130295000D01*
X134115000Y-130295000D01*
X134115000Y-124806941D01*
X134124217Y-124713361D01*
X134109498Y-124563916D01*
X134087436Y-124339917D01*
X133978506Y-123980823D01*
X133801613Y-123649880D01*
X133563556Y-123359806D01*
X133490860Y-123300146D01*
X132769858Y-122579144D01*
X132710194Y-122506444D01*
X132420120Y-122268387D01*
X132089177Y-122091494D01*
X131730083Y-121982564D01*
X131450220Y-121955000D01*
X131450218Y-121955000D01*
X131356638Y-121945783D01*
X131263058Y-121955000D01*
X128398446Y-121955000D01*
X128476011Y-121767743D01*
X128535000Y-121471184D01*
X128535000Y-121168816D01*
X128476011Y-120872257D01*
X128360299Y-120592905D01*
X128192312Y-120341495D01*
X127978505Y-120127688D01*
X127727095Y-119959701D01*
X127447743Y-119843989D01*
X127151184Y-119785000D01*
X126848816Y-119785000D01*
X126552257Y-119843989D01*
X126272905Y-119959701D01*
X126021495Y-120127688D01*
X125807688Y-120341495D01*
X125639701Y-120592905D01*
X125523989Y-120872257D01*
X125465000Y-121168816D01*
X125465000Y-121471184D01*
X125523989Y-121767743D01*
X125639701Y-122047095D01*
X125807688Y-122298505D01*
X125849216Y-122340033D01*
X125739480Y-122430091D01*
X125732105Y-122421105D01*
X125577399Y-122294141D01*
X125400896Y-122199799D01*
X125209380Y-122141703D01*
X125060111Y-122127001D01*
X125010209Y-122122086D01*
X124960307Y-122127001D01*
X111551484Y-122127001D01*
X108560353Y-119135871D01*
X108528537Y-119097103D01*
X108373831Y-118970139D01*
X108197328Y-118875797D01*
X108005812Y-118817701D01*
X107856543Y-118802999D01*
X107806641Y-118798084D01*
X107756739Y-118802999D01*
X105630894Y-118802999D01*
X105581000Y-118798085D01*
X105531106Y-118802999D01*
X105531099Y-118802999D01*
X105401178Y-118815795D01*
X105381829Y-118817701D01*
X105323733Y-118835325D01*
X105190314Y-118875797D01*
X105013811Y-118970139D01*
X104859105Y-119097103D01*
X104827293Y-119135866D01*
X104201231Y-119761928D01*
X103400000Y-119761928D01*
X103275518Y-119774188D01*
X103155820Y-119810498D01*
X103045506Y-119869463D01*
X102948815Y-119948815D01*
X102869463Y-120045506D01*
X102810498Y-120155820D01*
X102774188Y-120275518D01*
X102761928Y-120400000D01*
X102761928Y-122000000D01*
X102774188Y-122124482D01*
X102810498Y-122244180D01*
X102869463Y-122354494D01*
X102948815Y-122451185D01*
X103045506Y-122530537D01*
X103142680Y-122582479D01*
X101107601Y-124617559D01*
X101051185Y-124548815D01*
X100954494Y-124469463D01*
X100844180Y-124410498D01*
X100724482Y-124374188D01*
X100600000Y-124361928D01*
X99434999Y-124361928D01*
X99434999Y-123963841D01*
X99883133Y-123515708D01*
X99921896Y-123483896D01*
X100048860Y-123329190D01*
X100143202Y-123152687D01*
X100201298Y-122961171D01*
X100216000Y-122811902D01*
X100216000Y-122811895D01*
X100220914Y-122762001D01*
X100216000Y-122712107D01*
X100216000Y-122598050D01*
X100244180Y-122589502D01*
X100354494Y-122530537D01*
X100451185Y-122451185D01*
X100530537Y-122354494D01*
X100589502Y-122244180D01*
X100625812Y-122124482D01*
X100638072Y-122000000D01*
X100638072Y-120400000D01*
X100625812Y-120275518D01*
X100589502Y-120155820D01*
X100530537Y-120045506D01*
X100451185Y-119948815D01*
X100354494Y-119869463D01*
X100244180Y-119810498D01*
X100124482Y-119774188D01*
X100000000Y-119761928D01*
X98400000Y-119761928D01*
X98275518Y-119774188D01*
X98155820Y-119810498D01*
X98045506Y-119869463D01*
X97948815Y-119948815D01*
X97869463Y-120045506D01*
X97810498Y-120155820D01*
X97774188Y-120275518D01*
X97761928Y-120400000D01*
X97761928Y-122000000D01*
X97774188Y-122124482D01*
X97810498Y-122244180D01*
X97869463Y-122354494D01*
X97948815Y-122451185D01*
X98017558Y-122507601D01*
X97735871Y-122789289D01*
X97697103Y-122821105D01*
X97570139Y-122975811D01*
X97475797Y-123152315D01*
X97473111Y-123161171D01*
X97417701Y-123343831D01*
X97398084Y-123543001D01*
X88260000Y-123543001D01*
X88260000Y-116660000D01*
X140540000Y-116660000D01*
X140540001Y-146140000D01*
G37*
G04 #@! TD.AperFunction*
M02*
