G04 #@! TF.GenerationSoftware,KiCad,Pcbnew,(5.1.10)-1*
G04 #@! TF.CreationDate,2021-06-01T12:55:43+02:00*
G04 #@! TF.ProjectId,overvolt,6f766572-766f-46c7-942e-6b696361645f,rev?*
G04 #@! TF.SameCoordinates,Original*
G04 #@! TF.FileFunction,Soldermask,Bot*
G04 #@! TF.FilePolarity,Negative*
%FSLAX46Y46*%
G04 Gerber Fmt 4.6, Leading zero omitted, Abs format (unit mm)*
G04 Created by KiCad (PCBNEW (5.1.10)-1) date 2021-06-01 12:55:43*
%MOMM*%
%LPD*%
G01*
G04 APERTURE LIST*
%ADD10C,1.902000*%
%ADD11O,1.702000X1.702000*%
%ADD12O,1.902000X1.902000*%
%ADD13O,1.802000X1.802000*%
%ADD14C,1.702000*%
%ADD15C,1.722000*%
%ADD16C,2.602000*%
%ADD17C,3.102000*%
%ADD18C,2.802000*%
G04 APERTURE END LIST*
G36*
G01*
X122351000Y-132500000D02*
X122351000Y-134300000D01*
G75*
G02*
X122300000Y-134351000I-51000J0D01*
G01*
X120500000Y-134351000D01*
G75*
G02*
X120449000Y-134300000I0J51000D01*
G01*
X120449000Y-132500000D01*
G75*
G02*
X120500000Y-132449000I51000J0D01*
G01*
X122300000Y-132449000D01*
G75*
G02*
X122351000Y-132500000I0J-51000D01*
G01*
G37*
D10*
X118860000Y-133400000D03*
G36*
G01*
X98949000Y-126600000D02*
X98949000Y-125000000D01*
G75*
G02*
X99000000Y-124949000I51000J0D01*
G01*
X100600000Y-124949000D01*
G75*
G02*
X100651000Y-125000000I0J-51000D01*
G01*
X100651000Y-126600000D01*
G75*
G02*
X100600000Y-126651000I-51000J0D01*
G01*
X99000000Y-126651000D01*
G75*
G02*
X98949000Y-126600000I0J51000D01*
G01*
G37*
D11*
X107420000Y-133420000D03*
X99800000Y-128340000D03*
X107420000Y-130880000D03*
X99800000Y-130880000D03*
X107420000Y-128340000D03*
X99800000Y-133420000D03*
X107420000Y-125800000D03*
G36*
G01*
X127900000Y-127351000D02*
X126100000Y-127351000D01*
G75*
G02*
X126049000Y-127300000I0J51000D01*
G01*
X126049000Y-125500000D01*
G75*
G02*
X126100000Y-125449000I51000J0D01*
G01*
X127900000Y-125449000D01*
G75*
G02*
X127951000Y-125500000I0J-51000D01*
G01*
X127951000Y-127300000D01*
G75*
G02*
X127900000Y-127351000I-51000J0D01*
G01*
G37*
D12*
X127000000Y-123860000D03*
X127000000Y-121320000D03*
G36*
G01*
X122501000Y-126550000D02*
X122501000Y-128250000D01*
G75*
G02*
X122450000Y-128301000I-51000J0D01*
G01*
X120750000Y-128301000D01*
G75*
G02*
X120699000Y-128250000I0J51000D01*
G01*
X120699000Y-126550000D01*
G75*
G02*
X120750000Y-126499000I51000J0D01*
G01*
X122450000Y-126499000D01*
G75*
G02*
X122501000Y-126550000I0J-51000D01*
G01*
G37*
D13*
X121600000Y-124860000D03*
G36*
G01*
X100051000Y-120400000D02*
X100051000Y-122000000D01*
G75*
G02*
X100000000Y-122051000I-51000J0D01*
G01*
X98400000Y-122051000D01*
G75*
G02*
X98349000Y-122000000I0J51000D01*
G01*
X98349000Y-120400000D01*
G75*
G02*
X98400000Y-120349000I51000J0D01*
G01*
X100000000Y-120349000D01*
G75*
G02*
X100051000Y-120400000I0J-51000D01*
G01*
G37*
D14*
X96700000Y-121200000D03*
D15*
X110600000Y-128400000D03*
X115600000Y-130900000D03*
X110600000Y-133400000D03*
D14*
X121800000Y-144600000D03*
D11*
X121800000Y-136980000D03*
D14*
X118200000Y-124800000D03*
D11*
X110580000Y-124800000D03*
D14*
X125400000Y-144600000D03*
D11*
X125400000Y-136980000D03*
G36*
G01*
X91350000Y-125899000D02*
X93850000Y-125899000D01*
G75*
G02*
X93901000Y-125950000I0J-51000D01*
G01*
X93901000Y-128450000D01*
G75*
G02*
X93850000Y-128501000I-51000J0D01*
G01*
X91350000Y-128501000D01*
G75*
G02*
X91299000Y-128450000I0J51000D01*
G01*
X91299000Y-125950000D01*
G75*
G02*
X91350000Y-125899000I51000J0D01*
G01*
G37*
D16*
X92600000Y-132200000D03*
G36*
G01*
X137250000Y-133501000D02*
X134750000Y-133501000D01*
G75*
G02*
X134699000Y-133450000I0J51000D01*
G01*
X134699000Y-130950000D01*
G75*
G02*
X134750000Y-130899000I51000J0D01*
G01*
X137250000Y-130899000D01*
G75*
G02*
X137301000Y-130950000I0J-51000D01*
G01*
X137301000Y-133450000D01*
G75*
G02*
X137250000Y-133501000I-51000J0D01*
G01*
G37*
X136000000Y-127200000D03*
D17*
X95400000Y-141600000D03*
X117900000Y-141600000D03*
D18*
X106650000Y-141600000D03*
G36*
G01*
X123649000Y-134300000D02*
X123649000Y-132500000D01*
G75*
G02*
X123700000Y-132449000I51000J0D01*
G01*
X125500000Y-132449000D01*
G75*
G02*
X125551000Y-132500000I0J-51000D01*
G01*
X125551000Y-134300000D01*
G75*
G02*
X125500000Y-134351000I-51000J0D01*
G01*
X123700000Y-134351000D01*
G75*
G02*
X123649000Y-134300000I0J51000D01*
G01*
G37*
D10*
X127140000Y-133400000D03*
G36*
G01*
X103349000Y-122000000D02*
X103349000Y-120400000D01*
G75*
G02*
X103400000Y-120349000I51000J0D01*
G01*
X105000000Y-120349000D01*
G75*
G02*
X105051000Y-120400000I0J-51000D01*
G01*
X105051000Y-122000000D01*
G75*
G02*
X105000000Y-122051000I-51000J0D01*
G01*
X103400000Y-122051000D01*
G75*
G02*
X103349000Y-122000000I0J51000D01*
G01*
G37*
D14*
X106700000Y-121200000D03*
M02*
