%FSLAX45Y45*%
G04 Gerber Fmt 4.5, Leading zero omitted, Abs format (unit mm)*
G04 Created by KiCad (PCBNEW (5.1.10)-1) date 2021-06-01 12:55:46*
%MOMM*%
%LPD*%
G01*
G04 APERTURE LIST*
%TA.AperFunction,Profile*%
%ADD10C,0.050000*%
%TD*%
%ADD11C,0.200000*%
%ADD12C,0.300000*%
G04 APERTURE END LIST*
D10*
X8760000Y-11600000D02*
X8780000Y-11600000D01*
X8760000Y-14680000D02*
X8760000Y-11600000D01*
X14120000Y-14680000D02*
X8760000Y-14680000D01*
X14120000Y-11600000D02*
X14120000Y-14680000D01*
X8780000Y-11600000D02*
X14120000Y-11600000D01*
D11*
X10530000Y-14025000D02*
X10800000Y-14295000D01*
X10800000Y-14025000D02*
X10530000Y-14295000D01*
D12*
X9043928Y-15148214D02*
X9043928Y-14848214D01*
X9115357Y-14848214D01*
X9158214Y-14862500D01*
X9186786Y-14891071D01*
X9201071Y-14919643D01*
X9215357Y-14976786D01*
X9215357Y-15019643D01*
X9201071Y-15076786D01*
X9186786Y-15105357D01*
X9158214Y-15133929D01*
X9115357Y-15148214D01*
X9043928Y-15148214D01*
X9343928Y-15148214D02*
X9343928Y-14948214D01*
X9343928Y-15005357D02*
X9358214Y-14976786D01*
X9372500Y-14962500D01*
X9401071Y-14948214D01*
X9429643Y-14948214D01*
X9529643Y-15148214D02*
X9529643Y-14948214D01*
X9529643Y-14848214D02*
X9515357Y-14862500D01*
X9529643Y-14876786D01*
X9543928Y-14862500D01*
X9529643Y-14848214D01*
X9529643Y-14876786D01*
X9715357Y-15148214D02*
X9686786Y-15133929D01*
X9672500Y-15105357D01*
X9672500Y-14848214D01*
X9872500Y-15148214D02*
X9843928Y-15133929D01*
X9829643Y-15105357D01*
X9829643Y-14848214D01*
X10215357Y-15148214D02*
X10215357Y-14848214D01*
X10315357Y-15062500D01*
X10415357Y-14848214D01*
X10415357Y-15148214D01*
X10686786Y-15148214D02*
X10686786Y-14991071D01*
X10672500Y-14962500D01*
X10643928Y-14948214D01*
X10586786Y-14948214D01*
X10558214Y-14962500D01*
X10686786Y-15133929D02*
X10658214Y-15148214D01*
X10586786Y-15148214D01*
X10558214Y-15133929D01*
X10543928Y-15105357D01*
X10543928Y-15076786D01*
X10558214Y-15048214D01*
X10586786Y-15033929D01*
X10658214Y-15033929D01*
X10686786Y-15019643D01*
X10829643Y-14948214D02*
X10829643Y-15248214D01*
X10829643Y-14962500D02*
X10858214Y-14948214D01*
X10915357Y-14948214D01*
X10943928Y-14962500D01*
X10958214Y-14976786D01*
X10972500Y-15005357D01*
X10972500Y-15091071D01*
X10958214Y-15119643D01*
X10943928Y-15133929D01*
X10915357Y-15148214D01*
X10858214Y-15148214D01*
X10829643Y-15133929D01*
X11101071Y-15119643D02*
X11115357Y-15133929D01*
X11101071Y-15148214D01*
X11086786Y-15133929D01*
X11101071Y-15119643D01*
X11101071Y-15148214D01*
X11101071Y-14962500D02*
X11115357Y-14976786D01*
X11101071Y-14991071D01*
X11086786Y-14976786D01*
X11101071Y-14962500D01*
X11101071Y-14991071D01*
X8487500Y-15507500D02*
X8757500Y-15777500D01*
X8757500Y-15507500D02*
X8487500Y-15777500D01*
X9029643Y-15506786D02*
X9043928Y-15492500D01*
X9072500Y-15478214D01*
X9143928Y-15478214D01*
X9172500Y-15492500D01*
X9186786Y-15506786D01*
X9201071Y-15535357D01*
X9201071Y-15563929D01*
X9186786Y-15606786D01*
X9015357Y-15778214D01*
X9201071Y-15778214D01*
X9329643Y-15749643D02*
X9343928Y-15763929D01*
X9329643Y-15778214D01*
X9315357Y-15763929D01*
X9329643Y-15749643D01*
X9329643Y-15778214D01*
X9443928Y-15478214D02*
X9643928Y-15478214D01*
X9515357Y-15778214D01*
X9815357Y-15478214D02*
X9843928Y-15478214D01*
X9872500Y-15492500D01*
X9886786Y-15506786D01*
X9901071Y-15535357D01*
X9915357Y-15592500D01*
X9915357Y-15663929D01*
X9901071Y-15721071D01*
X9886786Y-15749643D01*
X9872500Y-15763929D01*
X9843928Y-15778214D01*
X9815357Y-15778214D01*
X9786786Y-15763929D01*
X9772500Y-15749643D01*
X9758214Y-15721071D01*
X9743928Y-15663929D01*
X9743928Y-15592500D01*
X9758214Y-15535357D01*
X9772500Y-15506786D01*
X9786786Y-15492500D01*
X9815357Y-15478214D01*
X10101071Y-15478214D02*
X10129643Y-15478214D01*
X10158214Y-15492500D01*
X10172500Y-15506786D01*
X10186786Y-15535357D01*
X10201071Y-15592500D01*
X10201071Y-15663929D01*
X10186786Y-15721071D01*
X10172500Y-15749643D01*
X10158214Y-15763929D01*
X10129643Y-15778214D01*
X10101071Y-15778214D01*
X10072500Y-15763929D01*
X10058214Y-15749643D01*
X10043928Y-15721071D01*
X10029643Y-15663929D01*
X10029643Y-15592500D01*
X10043928Y-15535357D01*
X10058214Y-15506786D01*
X10072500Y-15492500D01*
X10101071Y-15478214D01*
X10329643Y-15778214D02*
X10329643Y-15578214D01*
X10329643Y-15606786D02*
X10343928Y-15592500D01*
X10372500Y-15578214D01*
X10415357Y-15578214D01*
X10443928Y-15592500D01*
X10458214Y-15621071D01*
X10458214Y-15778214D01*
X10458214Y-15621071D02*
X10472500Y-15592500D01*
X10501071Y-15578214D01*
X10543928Y-15578214D01*
X10572500Y-15592500D01*
X10586786Y-15621071D01*
X10586786Y-15778214D01*
X10729643Y-15778214D02*
X10729643Y-15578214D01*
X10729643Y-15606786D02*
X10743928Y-15592500D01*
X10772500Y-15578214D01*
X10815357Y-15578214D01*
X10843928Y-15592500D01*
X10858214Y-15621071D01*
X10858214Y-15778214D01*
X10858214Y-15621071D02*
X10872500Y-15592500D01*
X10901071Y-15578214D01*
X10943928Y-15578214D01*
X10972500Y-15592500D01*
X10986786Y-15621071D01*
X10986786Y-15778214D01*
X11572500Y-15463929D02*
X11315357Y-15849643D01*
X11958214Y-15478214D02*
X11986786Y-15478214D01*
X12015357Y-15492500D01*
X12029643Y-15506786D01*
X12043928Y-15535357D01*
X12058214Y-15592500D01*
X12058214Y-15663929D01*
X12043928Y-15721071D01*
X12029643Y-15749643D01*
X12015357Y-15763929D01*
X11986786Y-15778214D01*
X11958214Y-15778214D01*
X11929643Y-15763929D01*
X11915357Y-15749643D01*
X11901071Y-15721071D01*
X11886786Y-15663929D01*
X11886786Y-15592500D01*
X11901071Y-15535357D01*
X11915357Y-15506786D01*
X11929643Y-15492500D01*
X11958214Y-15478214D01*
X12186786Y-15749643D02*
X12201071Y-15763929D01*
X12186786Y-15778214D01*
X12172500Y-15763929D01*
X12186786Y-15749643D01*
X12186786Y-15778214D01*
X12486786Y-15778214D02*
X12315357Y-15778214D01*
X12401071Y-15778214D02*
X12401071Y-15478214D01*
X12372500Y-15521071D01*
X12343928Y-15549643D01*
X12315357Y-15563929D01*
X12672500Y-15478214D02*
X12701071Y-15478214D01*
X12729643Y-15492500D01*
X12743928Y-15506786D01*
X12758214Y-15535357D01*
X12772500Y-15592500D01*
X12772500Y-15663929D01*
X12758214Y-15721071D01*
X12743928Y-15749643D01*
X12729643Y-15763929D01*
X12701071Y-15778214D01*
X12672500Y-15778214D01*
X12643928Y-15763929D01*
X12629643Y-15749643D01*
X12615357Y-15721071D01*
X12601071Y-15663929D01*
X12601071Y-15592500D01*
X12615357Y-15535357D01*
X12629643Y-15506786D01*
X12643928Y-15492500D01*
X12672500Y-15478214D01*
X13029643Y-15478214D02*
X12972500Y-15478214D01*
X12943928Y-15492500D01*
X12929643Y-15506786D01*
X12901071Y-15549643D01*
X12886786Y-15606786D01*
X12886786Y-15721071D01*
X12901071Y-15749643D01*
X12915357Y-15763929D01*
X12943928Y-15778214D01*
X13001071Y-15778214D01*
X13029643Y-15763929D01*
X13043928Y-15749643D01*
X13058214Y-15721071D01*
X13058214Y-15649643D01*
X13043928Y-15621071D01*
X13029643Y-15606786D01*
X13001071Y-15592500D01*
X12943928Y-15592500D01*
X12915357Y-15606786D01*
X12901071Y-15621071D01*
X12886786Y-15649643D01*
X13158214Y-15478214D02*
X13343928Y-15478214D01*
X13243928Y-15592500D01*
X13286786Y-15592500D01*
X13315357Y-15606786D01*
X13329643Y-15621071D01*
X13343928Y-15649643D01*
X13343928Y-15721071D01*
X13329643Y-15749643D01*
X13315357Y-15763929D01*
X13286786Y-15778214D01*
X13201071Y-15778214D01*
X13172500Y-15763929D01*
X13158214Y-15749643D01*
X13458214Y-15478214D02*
X13458214Y-15535357D01*
X13572500Y-15478214D02*
X13572500Y-15535357D01*
X14015357Y-15892500D02*
X14001071Y-15878214D01*
X13972500Y-15835357D01*
X13958214Y-15806786D01*
X13943928Y-15763929D01*
X13929643Y-15692500D01*
X13929643Y-15635357D01*
X13943928Y-15563929D01*
X13958214Y-15521071D01*
X13972500Y-15492500D01*
X14001071Y-15449643D01*
X14015357Y-15435357D01*
X14286786Y-15778214D02*
X14115357Y-15778214D01*
X14201071Y-15778214D02*
X14201071Y-15478214D01*
X14172500Y-15521071D01*
X14143928Y-15549643D01*
X14115357Y-15563929D01*
X14643928Y-15778214D02*
X14643928Y-15478214D01*
X14772500Y-15778214D02*
X14772500Y-15621071D01*
X14758214Y-15592500D01*
X14729643Y-15578214D01*
X14686786Y-15578214D01*
X14658214Y-15592500D01*
X14643928Y-15606786D01*
X14958214Y-15778214D02*
X14929643Y-15763929D01*
X14915357Y-15749643D01*
X14901071Y-15721071D01*
X14901071Y-15635357D01*
X14915357Y-15606786D01*
X14929643Y-15592500D01*
X14958214Y-15578214D01*
X15001071Y-15578214D01*
X15029643Y-15592500D01*
X15043928Y-15606786D01*
X15058214Y-15635357D01*
X15058214Y-15721071D01*
X15043928Y-15749643D01*
X15029643Y-15763929D01*
X15001071Y-15778214D01*
X14958214Y-15778214D01*
X15229643Y-15778214D02*
X15201071Y-15763929D01*
X15186786Y-15735357D01*
X15186786Y-15478214D01*
X15458214Y-15763929D02*
X15429643Y-15778214D01*
X15372500Y-15778214D01*
X15343928Y-15763929D01*
X15329643Y-15735357D01*
X15329643Y-15621071D01*
X15343928Y-15592500D01*
X15372500Y-15578214D01*
X15429643Y-15578214D01*
X15458214Y-15592500D01*
X15472500Y-15621071D01*
X15472500Y-15649643D01*
X15329643Y-15678214D01*
X15572500Y-15892500D02*
X15586786Y-15878214D01*
X15615357Y-15835357D01*
X15629643Y-15806786D01*
X15643928Y-15763929D01*
X15658214Y-15692500D01*
X15658214Y-15635357D01*
X15643928Y-15563929D01*
X15629643Y-15521071D01*
X15615357Y-15492500D01*
X15586786Y-15449643D01*
X15572500Y-15435357D01*
X16115357Y-15892500D02*
X16101071Y-15878214D01*
X16072500Y-15835357D01*
X16058214Y-15806786D01*
X16043928Y-15763929D01*
X16029643Y-15692500D01*
X16029643Y-15635357D01*
X16043928Y-15563929D01*
X16058214Y-15521071D01*
X16072500Y-15492500D01*
X16101071Y-15449643D01*
X16115357Y-15435357D01*
X16229643Y-15578214D02*
X16229643Y-15778214D01*
X16229643Y-15606786D02*
X16243928Y-15592500D01*
X16272500Y-15578214D01*
X16315357Y-15578214D01*
X16343928Y-15592500D01*
X16358214Y-15621071D01*
X16358214Y-15778214D01*
X16543928Y-15778214D02*
X16515357Y-15763929D01*
X16501071Y-15749643D01*
X16486786Y-15721071D01*
X16486786Y-15635357D01*
X16501071Y-15606786D01*
X16515357Y-15592500D01*
X16543928Y-15578214D01*
X16586786Y-15578214D01*
X16615357Y-15592500D01*
X16629643Y-15606786D01*
X16643928Y-15635357D01*
X16643928Y-15721071D01*
X16629643Y-15749643D01*
X16615357Y-15763929D01*
X16586786Y-15778214D01*
X16543928Y-15778214D01*
X16729643Y-15578214D02*
X16843928Y-15578214D01*
X16772500Y-15478214D02*
X16772500Y-15735357D01*
X16786786Y-15763929D01*
X16815357Y-15778214D01*
X16843928Y-15778214D01*
X17172500Y-15578214D02*
X17172500Y-15878214D01*
X17172500Y-15592500D02*
X17201071Y-15578214D01*
X17258214Y-15578214D01*
X17286786Y-15592500D01*
X17301071Y-15606786D01*
X17315357Y-15635357D01*
X17315357Y-15721071D01*
X17301071Y-15749643D01*
X17286786Y-15763929D01*
X17258214Y-15778214D01*
X17201071Y-15778214D01*
X17172500Y-15763929D01*
X17486786Y-15778214D02*
X17458214Y-15763929D01*
X17443928Y-15735357D01*
X17443928Y-15478214D01*
X17729643Y-15778214D02*
X17729643Y-15621071D01*
X17715357Y-15592500D01*
X17686786Y-15578214D01*
X17629643Y-15578214D01*
X17601071Y-15592500D01*
X17729643Y-15763929D02*
X17701071Y-15778214D01*
X17629643Y-15778214D01*
X17601071Y-15763929D01*
X17586786Y-15735357D01*
X17586786Y-15706786D01*
X17601071Y-15678214D01*
X17629643Y-15663929D01*
X17701071Y-15663929D01*
X17729643Y-15649643D01*
X17829643Y-15578214D02*
X17943928Y-15578214D01*
X17872500Y-15478214D02*
X17872500Y-15735357D01*
X17886786Y-15763929D01*
X17915357Y-15778214D01*
X17943928Y-15778214D01*
X18158214Y-15763929D02*
X18129643Y-15778214D01*
X18072500Y-15778214D01*
X18043928Y-15763929D01*
X18029643Y-15735357D01*
X18029643Y-15621071D01*
X18043928Y-15592500D01*
X18072500Y-15578214D01*
X18129643Y-15578214D01*
X18158214Y-15592500D01*
X18172500Y-15621071D01*
X18172500Y-15649643D01*
X18029643Y-15678214D01*
X18429643Y-15778214D02*
X18429643Y-15478214D01*
X18429643Y-15763929D02*
X18401071Y-15778214D01*
X18343928Y-15778214D01*
X18315357Y-15763929D01*
X18301071Y-15749643D01*
X18286786Y-15721071D01*
X18286786Y-15635357D01*
X18301071Y-15606786D01*
X18315357Y-15592500D01*
X18343928Y-15578214D01*
X18401071Y-15578214D01*
X18429643Y-15592500D01*
X18543928Y-15892500D02*
X18558214Y-15878214D01*
X18586786Y-15835357D01*
X18601071Y-15806786D01*
X18615357Y-15763929D01*
X18629643Y-15692500D01*
X18629643Y-15635357D01*
X18615357Y-15563929D01*
X18601071Y-15521071D01*
X18586786Y-15492500D01*
X18558214Y-15449643D01*
X18543928Y-15435357D01*
M02*
